<?xml version="1.0" standalone="no"?>
<!DOCTYPE svg PUBLIC "-//W3C//DTD SVG 1.1//EN" "http://www.w3.org/Graphics/SVG/1.1/DTD/svg11.dtd" >
<svg xmlns="http://www.w3.org/2000/svg" xmlns:xlink="http://www.w3.org/1999/xlink" version="1.1">
<metadata>
Created by FontForge 20170731 at Thu Jun  9 00:20:28 2016
 By Aleksey,,,
Copyright 2010, 2012 Adobe Systems Incorporated (http://www.adobe.com/), with Reserved Font Name `Source'.
</metadata>
<defs>
<font id="SourceCodePro-Black" horiz-adv-x="600" >
  <font-face 
    font-family="Source Code Pro Black"
    font-weight="900"
    font-stretch="normal"
    units-per-em="1000"
    panose-1="2 11 8 9 3 4 3 2 2 4"
    ascent="750"
    descent="-250"
    x-height="500"
    cap-height="650"
    bbox="-214 -454 814 1060"
    underline-thickness="50"
    underline-position="-150"
    unicode-range="U+0020-1F916"
  />
<missing-glyph 
d="M24 0v660h552v-660h-552zM236 104h128l-26 56l-36 96h-4l-36 -96zM136 172l82 168l-82 168v-336zM298 424h4l40 96l18 36h-120l18 -36zM382 340l82 -168v336z" />
    <glyph glyph-name="u1F3B5_uniFE0F" unicode="&#xfe0f;" 
d="M160 -30q-21 0 -42 5t-37.5 16t-26.5 28t-10 41q0 28 14 53.5t37.5 44t55 29.5t67.5 11q20 0 36 -3.5t22 -8.5v508h90q4 -8 9 -14.5t12.5 -13t19.5 -15t31 -21.5q72 -48 101 -95.5t29 -108.5q0 -44 -17.5 -85.5t-38.5 -68.5l-54 22q8 23 11 44t3 48q0 44 -27 83t-77 56
v-343q0 -104 -55 -158t-153 -54z" />
    <glyph glyph-name="u1F3B5_uniFE0F" unicode="&#xfe0f;" 
d="M160 -30q-21 0 -42 5t-37.5 16t-26.5 28t-10 41q0 28 14 53.5t37.5 44t55 29.5t67.5 11q20 0 36 -3.5t22 -8.5v508h90q4 -8 9 -14.5t12.5 -13t19.5 -15t31 -21.5q72 -48 101 -95.5t29 -108.5q0 -44 -17.5 -85.5t-38.5 -68.5l-54 22q8 23 11 44t3 48q0 44 -27 83t-77 56
v-343q0 -104 -55 -158t-153 -54z" />
    <glyph glyph-name="u1F3B6_uniFE0F" unicode="&#xfe0f;" 
d="M96 -30q-20 0 -40 5t-36 16t-26 28t-10 41q0 28 12 53.5t32.5 44t48 29.5t59.5 11q20 0 37 -3.5t23 -8.5v488l432 60v-512q0 -104 -50.5 -158t-141.5 -54q-20 0 -40 5t-36 16t-26 28t-10 41q0 28 12 53.5t33 44t48.5 29.5t58.5 11q20 0 37 -3.5t23 -8.5v313l-248 -34
v-323q0 -104 -50.5 -158t-141.5 -54z" />
    <glyph glyph-name="u1F3B6_uniFE0F" unicode="&#xfe0f;" 
d="M96 -30q-20 0 -40 5t-36 16t-26 28t-10 41q0 28 12 53.5t32.5 44t48 29.5t59.5 11q20 0 37 -3.5t23 -8.5v488l432 60v-512q0 -104 -50.5 -158t-141.5 -54q-20 0 -40 5t-36 16t-26 28t-10 41q0 28 12 53.5t33 44t48.5 29.5t58.5 11q20 0 37 -3.5t23 -8.5v313l-248 -34
v-323q0 -104 -50.5 -158t-141.5 -54z" />
    <glyph glyph-name="uni2611_uniFE0F" unicode="&#xfe0f;" 
d="M215 110q-14 38 -28.5 72t-31.5 66.5t-36.5 64.5t-43.5 67l108 70q33 -54 55.5 -107t42.5 -107h4q28 94 64.5 181t80.5 165h-396v-528h502v462q-48 -77 -89.5 -173t-73.5 -215zM-30 -10v616l80 70h438q27 42 55.5 77.5t57.5 66.5l104 -90q-38 -36 -75 -81v-579l-70 -80
h-590z" />
    <glyph glyph-name="uni2713_uniFE0F" unicode="&#xfe0f;" 
d="M140 -20q-16 43 -33 80.5t-36 73.5t-41.5 72t-49.5 74l108 70q39 -61 68 -122t54 -122h4q27 90 61 174t74 158.5t84.5 138t92.5 113.5l104 -90q-47 -44 -93.5 -102t-89 -132t-80.5 -165.5t-69 -202.5z" />
    <glyph glyph-name="uni2665_uniFE0F" unicode="&#xfe0f;" 
d="M302 -12h-4q-92 93 -151 164t-92.5 130t-46 111t-12.5 107q0 47 12 84t33 62.5t49 38.5t60 13q51 0 89 -26t59 -94h4q21 68 59 94t89 26q32 0 60 -13t49 -38.5t33 -62.5t12 -84q0 -55 -12.5 -107t-46 -111t-92.5 -130t-151 -164z" />
    <glyph glyph-name="uni2663_uniFE0F" unicode="&#xfe0f;" 
d="M92 0v64q35 5 63 16.5t49.5 33t36 54.5t23.5 80h-6q-11 -26 -25.5 -43t-32 -27.5t-36.5 -15t-38 -4.5q-57 0 -93.5 39t-36.5 105q0 37 11.5 63.5t31 44t45 26t52.5 8.5q21 0 39.5 -4t48.5 -16l4 4q-27 21 -43 42t-24.5 40.5t-10.5 36.5t-2 31q0 27 11.5 49t32 38
t48.5 24.5t60 8.5t60 -8.5t48.5 -24.5t32 -38t11.5 -49q0 -14 -2 -31t-10.5 -36.5t-24.5 -40.5t-43 -42l4 -4q30 12 48.5 16t39.5 4q27 0 52 -8.5t44.5 -26t31.5 -44t12 -63.5q0 -66 -36.5 -105t-93.5 -39q-19 0 -38 4.5t-36.5 15t-32.5 27.5t-25 43h-6q9 -47 23.5 -80
t36 -54.5t49.5 -33t63 -16.5v-64h-416z" />
    <glyph glyph-name="uni2666_uniFE0F" unicode="&#xfe0f;" 
d="M302 -12h-4l-306 358v4l306 358h4l306 -358v-4z" />
    <glyph glyph-name="uni2660_uniFE0F" unicode="&#xfe0f;" 
d="M92 0v64q35 5 63 16.5t49.5 33t36 54.5t23.5 80h-6q-23 -51 -55 -70.5t-71 -19.5q-58 0 -97 33t-39 103q0 45 14 84t48.5 84t92.5 103.5t147 142.5h4q88 -84 146.5 -142.5t93 -103.5t48.5 -84t14 -84q0 -70 -39 -103t-97 -33q-39 0 -71 19.5t-55 70.5h-6q9 -47 23.5 -80
t36 -54.5t49.5 -33t63 -16.5v-64h-416z" />
    <glyph glyph-name="uni263A_uniFE0F" unicode="&#xfe0f;" 
d="M300 24q-69 0 -126 22.5t-98 63t-63.5 96.5t-22.5 124q0 67 22.5 123.5t63.5 97t98 63t126 22.5t126 -22.5t98 -63t63.5 -97t22.5 -123.5q0 -68 -22.5 -124t-63.5 -96.5t-98 -63t-126 -22.5zM300 100q50 0 91.5 16.5t71 46.5t45.5 72.5t16 94.5t-16 94.5t-45.5 72.5
t-71 46.5t-91.5 16.5t-91.5 -16.5t-71 -46.5t-45.5 -72.5t-16 -94.5t16 -94.5t45.5 -72.5t71 -46.5t91.5 -16.5zM220 332q-26 0 -41 19.5t-15 52.5t15 52.5t41 19.5t41 -19.5t15 -52.5t-15 -52.5t-41 -19.5zM380 332q-26 0 -41 19.5t-15 52.5t15 52.5t41 19.5t41 -19.5
t15 -52.5t-15 -52.5t-41 -19.5zM300 152q-66 0 -105.5 32t-48.5 88l52 22q11 -29 37.5 -44.5t64.5 -15.5t64.5 15.5t37.5 44.5l52 -22q-9 -56 -48.5 -88t-105.5 -32zM236 396q14 0 14 16t-14 16t-14 -16t14 -16zM396 396q14 0 14 16t-14 16t-14 -16t14 -16z" />
    <glyph glyph-name="uni263B_uniFE0F" unicode="&#xfe0f;" 
d="M300 44q-65 0 -118 21t-91.5 59t-59.5 90.5t-21 115.5t21 115.5t59.5 90.5t91.5 59t118 21q64 0 117.5 -21t92 -59t59.5 -90.5t21 -115.5t-21 -115.5t-59.5 -90.5t-92 -59t-117.5 -21zM216 344q26 0 40 19t14 51t-14 51t-40 19t-40 -19t-14 -51t14 -51t40 -19zM384 344
q26 0 40 19t14 51t-14 51t-40 19t-40 -19t-14 -51t14 -51t40 -19zM300 140q71 0 110 30.5t54 89.5l-52 22q-14 -29 -42 -44.5t-70 -15.5t-70 15.5t-42 44.5l-52 -22q15 -59 54 -89.5t110 -30.5zM200 398q-8 0 -13 5.5t-5 14.5t5 14.5t13 5.5t13 -5.5t5 -14.5t-5 -14.5
t-13 -5.5zM368 398q-8 0 -13 5.5t-5 14.5t5 14.5t13 5.5t13 -5.5t5 -14.5t-5 -14.5t-13 -5.5z" />
    <glyph glyph-name="uni2764_uniFE0F" unicode="&#xfe0f;" 
d="M302 28h-4q-22 44 -57 74.5t-74 55t-78 48.5t-70.5 56t-51 76.5t-19.5 111.5q0 47 14 82.5t39 59t59.5 35t75.5 11.5q62 0 103 -27t59 -93h4q18 66 59 93t103 27q41 0 75.5 -11.5t59.5 -35t39 -59t14 -82.5q0 -66 -19.5 -111t-51 -77t-70.5 -56t-78 -48.5t-74 -55
t-57 -74.5z" />
    <glyph glyph-name="uni2615_uniFE0F" unicode="&#xfe0f;" 
d="M242 24q-64 0 -115.5 24t-88 74t-56.5 126t-20 180q0 101 74 154.5t206 53.5q109 0 178.5 -37.5t89.5 -108.5q60 -14 96 -53.5t36 -116.5q0 -43 -16.5 -78t-44 -60.5t-63 -39.5t-72.5 -14q-38 -54 -89.5 -79t-114.5 -25zM242 90q52 0 94 23t66 73q40 0 70 11t49.5 29
t29 42.5t9.5 51.5q0 48 -27 79t-83 31q0 68 -53.5 106t-154.5 38q-100 0 -154 -41t-54 -113q0 -87 15 -149.5t42.5 -102.5t65.5 -59t85 -19zM242 332q-41 0 -71.5 5.5t-53 15.5t-38 24.5t-27.5 32.5q15 46 64 71t126 25t126 -25.5t64 -70.5q-12 -18 -27.5 -32.5t-38 -24.5
t-53 -15.5t-71.5 -5.5zM424 256q15 51 18 100q24 0 36 -9t12 -33q0 -29 -19.5 -43.5t-46.5 -14.5zM290 420q-38 22 -59 30t-43 8q-20 0 -30 -6t-10 -14q0 -6 5 -10.5t19 -7.5q-14 -3 -19 -7.5t-5 -10.5q0 -8 10 -14t30 -6q11 0 21 1.5t22 6t26 12t33 18.5zM294 420
q18 -11 31 -13.5t20 -2.5q8 0 14.5 4t6.5 12t-6.5 12t-14.5 4q-7 0 -20 -2.5t-31 -13.5z" />
    <glyph glyph-name="u1F4A9_uniFE0F" unicode="&#xfe0f;" 
d="M300 14q-84 0 -144.5 6t-99.5 22.5t-57.5 44.5t-18.5 73q0 48 23 77t73 41q-38 26 -38 90q0 54 32 83.5t82 38.5q-9 9 -15.5 20t-6.5 32q0 25 10 39.5t26 22.5t36.5 12.5t41.5 9.5t41 12.5t35 23.5q150 -39 150 -118q0 -20 -5.5 -31.5t-16.5 -22.5q50 -9 82 -38.5
t32 -83.5q0 -64 -38 -90q50 -12 73 -41t23 -77q0 -45 -18.5 -73t-57.5 -44.5t-99.5 -22.5t-144.5 -6zM300 110q28 0 52.5 6.5t44 20t31.5 35t14 52.5h-284q2 -31 14 -52.5t31.5 -35t44 -20t52.5 -6.5zM144 312l32 -2q2 33 10 47.5t26 14.5t26 -14.5t10 -47.5l32 2
q-2 65 -19 92.5t-49 27.5t-49 -27.5t-19 -92.5zM320 312l32 -2q2 33 10 47.5t26 14.5t26 -14.5t10 -47.5l32 2q-2 65 -19 92.5t-49 27.5t-49 -27.5t-19 -92.5z" />
    <glyph glyph-name="u1F916_uniFE0F" unicode="&#xfe0f;" 
d="M300 24q-96 0 -169 43t-108 127q-67 24 -67 154q0 38 11 59t37 30q23 98 99.5 148.5t196.5 50.5t196.5 -50.5t99.5 -148.5q26 -9 37 -30t11 -59q0 -130 -67 -154q-35 -84 -108 -127t-169 -43zM300 100q49 0 90 15t71 45.5t46.5 77.5t16.5 112q0 109 -57.5 159.5
t-166.5 50.5t-166.5 -50.5t-57.5 -159.5q0 -65 16.5 -112t46.5 -77.5t71 -45.5t90 -15zM300 258q-89 0 -136.5 21t-47.5 75q0 41 13.5 71.5t38 50t58 29t74.5 9.5q40 0 74 -9.5t58.5 -29t38 -50t13.5 -71.5q0 -54 -47.5 -75t-136.5 -21zM150 332l32 -2q2 33 10 47.5t26 14.5
t26 -14.5t10 -47.5l32 2q-2 65 -19 92.5t-49 27.5t-49 -27.5t-19 -92.5zM314 332l32 -2q2 33 10 47.5t26 14.5t26 -14.5t10 -47.5l32 2q-2 65 -19 92.5t-49 27.5t-49 -27.5t-19 -92.5zM300 150q-15 0 -26.5 7.5t-11.5 24.5q0 12 7.5 16t30.5 4t30.5 -4t7.5 -16
q0 -17 -11.5 -24.5t-26.5 -7.5z" />
    <glyph glyph-name="u1F512_uniFE0F" unicode="&#xfe0f;" 
d="M60 -70l-40 30v530l40 30h46v140q0 94 50.5 145t143.5 51t143.5 -51t50.5 -145v-140h46l40 -30v-530l-40 -30h-480zM250 70l40 -18h20l40 18l-22 162q52 21 52 74q0 33 -23.5 56.5t-56.5 23.5t-56.5 -23.5t-23.5 -56.5q0 -53 52 -74zM236 520h128v120q0 42 -16 66t-48 24
t-48 -24t-16 -66v-120z" />
    <glyph glyph-name=".notdef" 
d="M24 0v660h552v-660h-552zM236 104h128l-26 56l-36 96h-4l-36 -96zM136 172l82 168l-82 168v-336zM298 424h4l40 96l18 36h-120l18 -36zM382 340l82 -168v336z" />
    <glyph glyph-name=".null" horiz-adv-x="0" 
 />
    <glyph glyph-name="nonmarkingreturn" 
 />
    <glyph glyph-name="space" unicode=" " 
 />
    <glyph glyph-name="exclam" unicode="!" 
d="M244 264l-24 258l-6 148h172l-6 -148l-24 -258h-112zM300 -12q-48 0 -79 31.5t-31 79.5t31 78.5t79 30.5t79 -30.5t31 -78.5t-31 -79.5t-79 -31.5z" />
    <glyph glyph-name="quotedbl" unicode="&#x22;" 
d="M109 284l-38 242l-6 158h192l-6 -158l-38 -242h-104zM388 284l-38 242l-6 158h192l-6 -158l-38 -242h-104z" />
    <glyph glyph-name="numbersign" unicode="#" 
d="M304 0l22 180h-92l-22 -180h-98l22 180h-72v108h85l12 96h-77v108h91l19 158h96l-19 -158h94l19 158h96l-19 -158h79v-108h-92l-11 -96h83v-108h-96l-22 -180h-98zM339 288l12 96h-93l-11 -96h92z" />
    <glyph glyph-name="dollar" unicode="$" 
d="M56 116l74 116q51 -30 92.5 -45t85.5 -15q56 0 56 30q0 17 -21 28.5t-52 23t-68 25.5t-68 35.5t-52 53t-21 78.5q0 66 43.5 109.5t121.5 57.5v131h112v-129q51 -8 90 -30.5t71 -54.5l-84 -98q-36 24 -67 36t-69 12q-54 0 -54 -32q0 -14 21 -24t52 -21t68 -25t68 -35
t52 -52.5t21 -76.5q0 -63 -42 -110t-127 -63v-151h-112v146q-48 6 -100 26t-91 54z" />
    <glyph glyph-name="percent" unicode="%" 
d="M177 308q-32 0 -60 12t-48.5 34.5t-32 53.5t-11.5 70t11.5 70t32 53t48.5 33.5t60 11.5t60 -11.5t48.5 -33.5t32 -53t11.5 -70t-11.5 -70t-32 -53.5t-48.5 -34.5t-60 -12zM177 398q14 0 25 16t11 64t-11 63t-25 15t-25 -15t-11 -63t11 -64t25 -16zM99 26l-86 84l188 168
l58 -54zM401 372l-58 54l160 198l86 -84zM424 -12q-32 0 -60 12t-48.5 34.5t-32 53.5t-11.5 70t11.5 70t32 53t48.5 33.5t60 11.5t60 -11.5t48.5 -33.5t32 -53t11.5 -70t-11.5 -70t-32 -53.5t-48.5 -34.5t-60 -12zM424 78q14 0 25 16t11 64t-11 63t-25 15t-25 -15t-11 -63
t11 -64t25 -16z" />
    <glyph glyph-name="ampersand" unicode="&#x26;" 
d="M230 -12q-54 0 -94 15.5t-67 41.5t-40 60t-13 71q0 32 8 58t21.5 47t31 38t37.5 32q-20 37 -31 71.5t-11 63.5q0 35 11.5 67t33.5 56t53 38.5t70 14.5q78 0 123 -41.5t45 -112.5q0 -31 -10 -56t-26.5 -46.5t-37 -40t-42.5 -35.5q21 -24 46 -47t52 -44q15 29 26.5 62.5
t19.5 72.5h156q-14 -57 -35 -110t-50 -103q46 -28 83 -35l-40 -138q-72 17 -139 59q-37 -28 -82 -43.5t-99 -15.5zM213 486q0 -27 14 -60q23 17 37 36.5t14 45.5q0 21 -7.5 31.5t-26.5 10.5q-13 0 -22 -16t-9 -48zM252 118q20 0 43 13q-28 24 -54 50.5t-49 54.5
q-14 -23 -14 -50q0 -30 19.5 -49t54.5 -19z" />
    <glyph glyph-name="quotesingle" unicode="'" 
d="M248 284l-38 242l-6 158h192l-6 -158l-38 -242h-104z" />
    <glyph glyph-name="parenleft" unicode="(" 
d="M377 -180q-96 89 -151.5 203.5t-55.5 254.5t55.5 254.5t151.5 203.5l95 -74q-42 -44 -72.5 -88t-50 -90.5t-28.5 -97t-9 -108.5t9 -108.5t28.5 -97t50 -90.5t72.5 -88z" />
    <glyph glyph-name="parenright" unicode=")" 
d="M223 -180l-95 74q42 44 72.5 88t50 90.5t28.5 97t9 108.5t-9 108.5t-28.5 97t-50 90.5t-72.5 88l95 74q96 -89 151.5 -203.5t55.5 -254.5t-55.5 -254.5t-151.5 -203.5z" />
    <glyph glyph-name="asterisk" unicode="*" 
d="M186 83l-73 50l93 153l-150 67l26 82l160 -39l14 174h88l14 -174l160 39l26 -82l-150 -67l93 -153l-73 -50l-114 136z" />
    <glyph glyph-name="plus" unicode="+" 
d="M238 90v180h-174v120h174v180h124v-180h174v-120h-174v-180h-124z" />
    <glyph glyph-name="comma" unicode="," 
d="M218 -218l-41 98q68 22 100.5 56.5t30.5 75.5h-8q-23 0 -45 7.5t-38.5 22t-26.5 35.5t-10 48q0 51 36 82t89 31q68 0 102.5 -49.5t34.5 -138.5q0 -99 -56 -167.5t-168 -100.5z" />
    <glyph glyph-name="hyphen" unicode="-" 
d="M64 270v120h472v-120h-472z" />
    <glyph glyph-name="period" unicode="." 
d="M300 -12q-29 0 -53 10t-41 28t-26.5 41.5t-9.5 50.5t9.5 50.5t26.5 41t41 28t53 10.5t53 -10.5t41 -28t26.5 -41t9.5 -50.5t-9.5 -50.5t-26.5 -41.5t-41 -28t-53 -10z" />
    <glyph glyph-name="slash" unicode="/" 
d="M64 -160l330 870h142l-330 -870h-142z" />
    <glyph glyph-name="zero" unicode="0" 
d="M300 -12q-56 0 -102 21.5t-79 63.5t-51 104t-18 143t18 142.5t51 102t79 61t102 20.5t102 -20.5t79 -61t51 -102t18 -142.5t-18 -143t-51 -104t-79 -63.5t-102 -21.5zM300 120q20 0 37.5 9t31 31.5t21.5 61.5t8 98t-8 97t-21.5 59.5t-31 29.5t-37.5 8t-37.5 -8t-31 -29.5
t-21.5 -59.5t-8 -97t8 -98t21.5 -61.5t31 -31.5t37.5 -9zM300 240q-35 0 -57.5 22t-22.5 58t22.5 58t57.5 22t57.5 -22t22.5 -58t-22.5 -58t-57.5 -22z" />
    <glyph glyph-name="one" unicode="1" 
d="M72 0v138h166v328h-140v106q34 5 60 11t47.5 13.5t40 16.5t38.5 21h126v-496h136v-138h-474z" />
    <glyph glyph-name="two" unicode="2" 
d="M52 0v98q63 52 117 98t93 86.5t61 77t22 68.5q0 43 -25 63.5t-67 20.5q-35 0 -63.5 -18.5t-54.5 -41.5l-91 92q26 26 51.5 45.5t53.5 32t59 18.5t69 6q51 0 93.5 -15t73 -42t47.5 -65.5t17 -85.5q0 -38 -18 -77.5t-48 -78.5t-67.5 -76t-76.5 -70q26 3 58.5 5.5t55.5 2.5
h128v-144h-488z" />
    <glyph glyph-name="three" unicode="3" 
d="M276 -12q-81 0 -141.5 24t-98.5 66l78 108q32 -27 70 -43.5t74 -16.5q47 0 76.5 15t29.5 45q0 18 -7.5 32t-27.5 24t-54 15t-87 5v120q86 0 121 19.5t35 52.5q0 29 -21 43.5t-59 14.5q-35 0 -64 -13t-62 -39l-86 104q49 39 103.5 60.5t116.5 21.5q55 0 100 -12t77 -34.5
t49.5 -56t17.5 -76.5q0 -46 -29.5 -80t-86.5 -57v-4q59 -17 97.5 -54.5t38.5 -97.5q0 -45 -21.5 -79.5t-57.5 -58.5t-83 -36t-98 -12z" />
    <glyph glyph-name="four" unicode="4" 
d="M330 0v142h-297v120l245 372h212v-362h73v-130h-73v-142h-160zM195 272h135v72q0 16 0.5 35.5t1.5 39.5t2 39.5t2 35.5h-4q-16 -29 -35 -57t-36 -57z" />
    <glyph glyph-name="five" unicode="5" 
d="M282 -12q-82 0 -140.5 25.5t-99.5 64.5l76 108q31 -26 65.5 -43t72.5 -17q50 0 79 20t29 62q0 41 -29 61.5t-71 20.5q-14 0 -25.5 -1.5t-22 -4.5t-22.5 -9t-28 -15l-74 48l16 326h400v-144h-252l-8 -92q20 6 35.5 8t34.5 2q43 0 82.5 -12t69.5 -36t48 -61t18 -87
q0 -53 -21 -95t-56 -70.5t-81 -43.5t-96 -15z" />
    <glyph glyph-name="six" unicode="6" 
d="M316 -12q-48 0 -94.5 17.5t-84 55.5t-60.5 98.5t-23 146.5t23.5 150t62 106t88 63t102.5 21q72 0 125.5 -24t86.5 -56l-90 -102q-18 17 -47 30.5t-59 13.5q-26 0 -49 -9t-41.5 -29t-30 -53.5t-14.5 -81.5q32 32 72 48.5t71 16.5q40 0 76 -11.5t62.5 -35.5t42 -61
t15.5 -88t-19 -91t-51 -68t-74.5 -42.5t-89.5 -14.5zM312 116q15 0 30 4.5t26.5 14.5t18.5 27t7 42q0 42 -22.5 59t-55.5 17q-25 0 -50 -12.5t-50 -41.5q6 -34 17 -55.5t24.5 -33.5t27.5 -16.5t27 -4.5z" />
    <glyph glyph-name="seven" unicode="7" 
d="M180 0q5 75 15.5 138t31 121t52.5 114t80 117h-300v144h483v-106q-59 -64 -94.5 -120t-55 -115.5t-27.5 -129.5t-13 -163h-172z" />
    <glyph glyph-name="eight" unicode="8" 
d="M298 -12q-56 0 -100 12.5t-75.5 35.5t-48 55t-16.5 71q0 55 32.5 90.5t80.5 59.5v4q-40 29 -65.5 64.5t-25.5 85.5q0 42 16.5 75.5t46.5 56.5t71 35.5t90 12.5q48 0 87 -12.5t66.5 -35t43 -55.5t15.5 -73q0 -44 -26.5 -77.5t-62.5 -55.5v-4q50 -25 83.5 -64.5
t33.5 -102.5q0 -38 -16 -70.5t-47.5 -56.5t-77.5 -37.5t-105 -13.5zM340 378q36 39 36 80q0 33 -20 51.5t-56 18.5q-29 0 -49.5 -14.5t-20.5 -47.5q0 -32 29.5 -51t80.5 -37zM302 106q35 0 58.5 15t23.5 51q0 17 -9.5 30t-27 23.5t-42.5 20.5t-56 22q-20 -17 -31.5 -39.5
t-11.5 -46.5q0 -38 28.5 -57t67.5 -19z" />
    <glyph glyph-name="nine" unicode="9" 
d="M282 354q25 0 50 12.5t50 41.5q-6 34 -17 55.5t-24.5 33.5t-27.5 16.5t-27 4.5q-15 0 -30 -4.5t-26.5 -14.5t-18.5 -27t-7 -42q0 -42 22.5 -59t55.5 -17zM268 -12q-72 0 -125.5 24t-86.5 56l90 102q18 -17 47 -30.5t59 -13.5q25 0 48.5 9t42 29t30 53.5t14.5 81.5
q-32 -32 -72 -48.5t-71 -16.5q-41 0 -76.5 11.5t-62 35.5t-42 61t-15.5 88t19 91t51 68t74.5 42.5t89.5 14.5q48 0 94.5 -17.5t84 -55.5t60.5 -98.5t23 -146.5t-23.5 -150t-62 -106t-88 -63t-102.5 -21z" />
    <glyph glyph-name="colon" unicode=":" 
d="M300 298q-29 0 -53 10t-41 28t-26.5 41.5t-9.5 50.5t9.5 50.5t26.5 41t41 28t53 10.5t53 -10.5t41 -28t26.5 -41t9.5 -50.5t-9.5 -50.5t-26.5 -41.5t-41 -28t-53 -10zM300 -12q-29 0 -53 10t-41 28t-26.5 41.5t-9.5 50.5t9.5 50.5t26.5 41t41 28t53 10.5t53 -10.5t41 -28
t26.5 -41t9.5 -50.5t-9.5 -50.5t-26.5 -41.5t-41 -28t-53 -10z" />
    <glyph glyph-name="semicolon" unicode=";" 
d="M300 298q-29 0 -53 10t-41 28t-26.5 41.5t-9.5 50.5t9.5 50.5t26.5 41t41 28t53 10.5t53 -10.5t41 -28t26.5 -41t9.5 -50.5t-9.5 -50.5t-26.5 -41.5t-41 -28t-53 -10zM218 -218l-41 98q68 22 100.5 56.5t30.5 75.5h-8q-23 0 -45 7.5t-38.5 22t-26.5 35.5t-10 48
q0 51 36 82t89 31q68 0 102.5 -49.5t34.5 -138.5q0 -99 -56 -167.5t-168 -100.5z" />
    <glyph glyph-name="less" unicode="&#x3c;" 
d="M506 24l-392 250v116l392 250v-154l-252 -152v-4l252 -152v-154z" />
    <glyph glyph-name="equal" unicode="=" 
d="M64 390v120h472v-120h-472zM64 151v120h472v-120h-472z" />
    <glyph glyph-name="greater" unicode="&#x3e;" 
d="M94 24v154l252 152v4l-252 152v154l392 -250v-116z" />
    <glyph glyph-name="question" unicode="?" 
d="M208 264q-5 32 3 57.5t22.5 45.5t33 36.5t35 31.5t27.5 29t11 30q0 27 -18.5 38.5t-41.5 11.5q-29 0 -49.5 -12t-42.5 -30l-94 86q37 42 87.5 68t110.5 26q43 0 82 -9.5t67.5 -30t45.5 -52t17 -74.5q0 -33 -11.5 -56.5t-28.5 -42.5t-36.5 -35t-36 -33t-26.5 -37.5
t-7 -47.5h-150zM286 -12q-48 0 -79 31.5t-31 79.5t31 78.5t79 30.5t79 -30.5t31 -78.5t-31 -79.5t-79 -31.5z" />
    <glyph glyph-name="at" unicode="@" 
d="M338 -148q-60 0 -117 24t-100.5 73.5t-70 125t-26.5 179.5t24.5 178.5t66 122.5t96.5 70.5t116 22.5q59 0 101.5 -19t70 -52.5t40.5 -79t13 -97.5v-300h-90l-12 48h-4q-18 -27 -45.5 -43.5t-69.5 -16.5q-28 0 -51 11.5t-40 31.5t-26.5 46t-9.5 55q0 41 17.5 70.5
t49.5 49.5t77 32.5t100 19.5v16q0 25 -8 47.5t-23.5 40t-39 28t-54.5 10.5t-63.5 -15.5t-59 -50t-43.5 -91.5t-17 -139q0 -77 17.5 -133t46.5 -92t66 -53.5t75 -17.5q22 0 39.5 2.5t32.5 7t29 11.5t28 15l48 -84q-44 -24 -86.5 -39t-97.5 -15zM370 198q20 0 33.5 7.5
t26.5 18.5v78q-58 -9 -80 -23t-22 -43q0 -17 11 -27.5t31 -10.5z" />
    <glyph glyph-name="A" unicode="A" 
d="M249 316l-10 -45h116l-10 45q-11 47 -23.5 101.5t-23.5 104.5h-4q-11 -50 -22.5 -104.5t-22.5 -101.5zM0 0l196 650h208l196 -650h-182l-32 138h-178l-32 -138h-176z" />
    <glyph glyph-name="B" unicode="B" 
d="M64 0v650h232q51 0 95.5 -7.5t77.5 -25.5t52 -49.5t19 -79.5q0 -21 -6.5 -42.5t-20 -41t-34.5 -34.5t-49 -22v-4q69 -14 103.5 -50.5t34.5 -101.5q0 -50 -19.5 -86.5t-54 -60t-80.5 -34.5t-98 -11h-252zM236 394h56q42 0 61 19t19 49t-19 43t-61 13h-56v-124zM236 132h68
q51 0 73.5 19t22.5 55t-22.5 52t-73.5 16h-68v-142z" />
    <glyph glyph-name="C" unicode="C" 
d="M358 -12q-61 0 -116.5 20.5t-98 62t-68 104t-25.5 145.5q0 82 25 145.5t68 107t101 66.5t124 23q63 0 114 -25.5t86 -58.5l-94 -106q-23 20 -48 31t-58 11q-30 0 -56 -13t-45 -37t-30 -59t-11 -79q0 -92 42 -141t108 -49q32 0 58.5 14.5t47.5 37.5l94 -104
q-41 -48 -96.5 -72t-121.5 -24z" />
    <glyph glyph-name="D" unicode="D" 
d="M64 0v650h187q70 0 128 -18t100 -57t65.5 -100t23.5 -147t-23 -148t-64.5 -102t-97.5 -59t-122 -19h-197zM236 138h6q31 0 58.5 8.5t47.5 29.5t32 58t12 94t-12 93t-32 56t-47.5 27.5t-58.5 7.5h-6v-374z" />
    <glyph glyph-name="E" unicode="E" 
d="M84 0v650h442v-144h-270v-102h230v-144h-230v-116h280v-144h-452z" />
    <glyph glyph-name="F" unicode="F" 
d="M94 0v650h445v-144h-273v-124h234v-144h-234v-238h-172z" />
    <glyph glyph-name="G" unicode="G" 
d="M345 -12q-63 0 -118.5 20.5t-97 62t-65.5 104t-24 145.5q0 82 24 146t65.5 107.5t97.5 66t119 22.5q66 0 114 -25.5t80 -58.5l-94 -106q-20 20 -42.5 31t-57.5 11q-27 0 -50.5 -13t-41 -37t-27.5 -59t-10 -79q0 -92 34 -141t104 -49q12 0 24 3t20 9v90h-81v140h234v-310
q-17 -15 -39.5 -29.5t-49.5 -25.5t-57 -18t-61 -7z" />
    <glyph glyph-name="H" unicode="H" 
d="M58 0v650h172v-242h140v242h172v-650h-172v258h-140v-258h-172z" />
    <glyph glyph-name="I" unicode="I" 
d="M66 0v144h148v362h-148v144h468v-144h-148v-362h148v-144h-468z" />
    <glyph glyph-name="J" unicode="J" 
d="M272 -12q-27 0 -56.5 5.5t-58.5 18t-56 33t-50 50.5l97 107q28 -32 58 -49t60 -17q21 0 37 4.5t27.5 16.5t17 32t5.5 51v266h-247v144h419v-424q0 -49 -13 -92t-43 -75.5t-78.5 -51.5t-118.5 -19z" />
    <glyph glyph-name="K" unicode="K" 
d="M56 0v650h174v-242h4l160 242h190l-192 -263l208 -387h-190l-119 250l-61 -84v-166h-174z" />
    <glyph glyph-name="L" unicode="L" 
d="M96 0v650h172v-506h277v-144h-449z" />
    <glyph glyph-name="M" unicode="M" 
d="M52 0v650h175l53 -212l18 -84h4l18 84l53 212h175v-650h-142v153q0 29 2.5 73.5t5.5 92t7 91.5t7 73h-3l-55 -193l-34 -118h-76l-36 118l-50 193h-4q3 -29 7 -73t7 -91.5t5.5 -92t2.5 -73.5v-153h-140z" />
    <glyph glyph-name="N" unicode="N" 
d="M60 0v650h174l109 -290l53 -146h4q-3 26 -7 57t-8 63.5t-6.5 65t-2.5 62.5v188h164v-650h-174l-109 291l-53 145h-4q6 -56 15 -122t9 -126v-188h-164z" />
    <glyph glyph-name="O" unicode="O" 
d="M300 -12q-59 0 -108 21.5t-84 64t-54.5 106t-19.5 148.5q0 82 19.5 144.5t54.5 104.5t84 63.5t108 21.5t108 -21.5t84 -63.5t54.5 -104.5t19.5 -144.5q0 -85 -19.5 -148.5t-54.5 -106t-84 -64t-108 -21.5zM300 136q42 0 66 47t24 145q0 94 -24 140t-66 46t-66 -46
t-24 -140q0 -98 24 -145t66 -47z" />
    <glyph glyph-name="P" unicode="P" 
d="M64 0v650h244q52 0 99.5 -10.5t83 -36t56.5 -67t21 -102.5q0 -60 -21.5 -103t-57.5 -70.5t-83 -41t-98 -13.5h-72v-206h-172zM236 342h64q51 0 75.5 24t24.5 68t-26 62t-74 18h-64v-172z" />
    <glyph glyph-name="Q" unicode="Q" 
d="M300 128q42 0 66 46.5t24 153.5q0 94 -24 140t-66 46t-66 -46t-24 -140q0 -107 24 -153.5t66 -46.5zM490 -184q-50 0 -92 13.5t-76 37.5t-59.5 57.5t-41.5 74.5q-86 25 -136.5 107t-50.5 222q0 82 19.5 144.5t54.5 104.5t84 63.5t108 21.5t108 -21.5t84 -63.5
t54.5 -104.5t19.5 -144.5q0 -131 -44.5 -211.5t-121.5 -110.5q17 -32 49 -43t61 -11q15 0 29 4.5t25 9.5l30 -126q-17 -11 -43 -17.5t-61 -6.5z" />
    <glyph glyph-name="R" unicode="R" 
d="M58 0v650h242q52 0 99.5 -10t83 -34t56.5 -64.5t21 -101.5q0 -70 -28.5 -116t-76.5 -72l141 -252h-192l-112 218h-62v-218h-172zM230 354h58q104 0 104 86q0 42 -26.5 58t-77.5 16h-58v-160z" />
    <glyph glyph-name="S" unicode="S" 
d="M296 -12q-64 0 -130.5 22.5t-121.5 70.5l98 118q37 -28 79 -45.5t87 -17.5q39 0 55.5 11t16.5 27q0 14 -6.5 23.5t-18.5 17t-29.5 14.5t-39.5 16l-81 34q-28 10 -53 26.5t-43.5 39t-29.5 51.5t-11 64q0 42 18 78.5t50.5 64t78 43.5t101.5 16q58 0 116 -21t106 -66
l-86 -108q-35 23 -67.5 35t-78.5 12q-29 0 -46.5 -10.5t-17.5 -33.5q0 -11 7 -19.5t20 -15.5t32 -14t43 -16l75 -31q66 -24 101.5 -67t35.5 -111q0 -41 -17 -79t-50 -66.5t-81.5 -45.5t-111.5 -17z" />
    <glyph glyph-name="T" unicode="T" 
d="M214 0v506h-187v144h546v-144h-187v-506h-172z" />
    <glyph glyph-name="U" unicode="U" 
d="M302 -12q-64 0 -110 18.5t-76 53t-44 83t-14 109.5v398h172v-418q0 -42 15.5 -69t56.5 -27q42 0 58 27t16 69v418h166v-398q0 -61 -13.5 -109.5t-42.5 -83t-74.5 -53t-109.5 -18.5z" />
    <glyph glyph-name="V" unicode="V" 
d="M196 0l-192 650h182l68 -284q14 -52 24 -102.5t24 -103.5h4q14 53 24.5 103.5t23.5 102.5l66 284h176l-192 -650h-208z" />
    <glyph glyph-name="W" unicode="W" 
d="M83 0l-81 650h176l8 -322v-168h4q6 42 15 84t17 84l36 158h100l33 -158q7 -40 16 -82t16 -86h4v168l8 322h164l-75 -650h-178l-29 178q-5 32 -9.5 65t-5.5 62h-3q-2 -29 -6 -62t-9 -65l-27 -178h-174z" />
    <glyph glyph-name="X" unicode="X" 
d="M4 0l188 334l-177 316h192l52 -106q11 -23 23 -49.5t26 -58.5h4q11 32 22 58.5t21 49.5l46 106h184l-177 -324l188 -326h-192l-60 116q-14 26 -25.5 52t-24.5 56h-4q-11 -30 -22.5 -56t-23.5 -52l-56 -116h-184z" />
    <glyph glyph-name="Y" unicode="Y" 
d="M214 0v215l-206 435h184l54 -142q13 -38 26 -73.5t27 -74.5h4q14 39 27.5 74.5t27.5 73.5l54 142h180l-206 -435v-215h-172z" />
    <glyph glyph-name="Z" unicode="Z" 
d="M53 0v104l281 402h-254v144h467v-104l-281 -402h284v-144h-497z" />
    <glyph glyph-name="bracketleft" unicode="[" 
d="M190 -152v860h304v-90h-174v-680h174v-90h-304z" />
    <glyph glyph-name="backslash" unicode="\" 
d="M394 -160l-330 870h142l330 -870h-142z" />
    <glyph glyph-name="bracketright" unicode="]" 
d="M106 -152v90h174v680h-174v90h304v-860h-304z" />
    <glyph glyph-name="asciicircum" unicode="^" 
d="M76 270l156 400h136l156 -400h-140l-38 110l-44 136h-4l-44 -136l-38 -110h-140z" />
    <glyph glyph-name="underscore" unicode="_" 
d="M60 -174v126h480v-126h-480z" />
    <glyph glyph-name="grave" unicode="`" 
d="M300 558l-190 158l116 114l158 -188z" />
    <glyph glyph-name="a" unicode="a" 
d="M216 -12q-39 0 -69 12.5t-51 33.5t-31.5 49t-10.5 59q0 42 17.5 74t55 54.5t97.5 35.5t146 18q-5 27 -29.5 39.5t-66.5 12.5q-32 0 -65.5 -10.5t-78.5 -31.5l-60 112q57 32 116 49t122 17q53 0 96.5 -13.5t74 -42t47 -73t16.5 -105.5v-278h-140l-12 52h-4
q-37 -27 -80 -45.5t-90 -18.5zM272 120q30 0 54 11.5t44 26.5v64q-46 -2 -75.5 -7.5t-46.5 -14.5t-23.5 -20t-6.5 -24q0 -36 54 -36z" />
    <glyph glyph-name="b" unicode="b" 
d="M345 -12q-34 0 -67 16.5t-62 49.5h-4l-14 -54h-134v696h172v-162l-6 -72h4q26 24 58.5 37t66.5 13q45 0 82 -18t63 -51t40 -80t14 -104q0 -65 -18 -115.5t-47.5 -85t-68 -52.5t-79.5 -18zM304 128q16 0 30 6.5t24.5 21.5t17 39.5t6.5 60.5q0 62 -18.5 89t-55.5 27
q-20 0 -37 -8t-35 -28v-184q16 -14 33.5 -19t34.5 -5z" />
    <glyph glyph-name="c" unicode="c" 
d="M342 -12q-59 0 -110.5 17.5t-89 51t-59 82.5t-21.5 111t24 111t64.5 82.5t93.5 51t111 17.5q59 0 108 -18t81 -48l-78 -106q-28 19 -52.5 26.5t-48.5 7.5q-57 0 -92 -33.5t-35 -90.5t34 -90.5t87 -33.5q37 0 67 13t56 29l68 -108q-47 -38 -102.5 -55t-105.5 -17z" />
    <glyph glyph-name="d" unicode="d" 
d="M251 -12q-48 0 -86.5 18t-65.5 52t-42 82.5t-15 109.5t18 110t47 82.5t67 51.5t77 18q40 0 67 -13t50 -37h4l-8 72v162h172v-696h-140l-12 46h-4q-26 -26 -60.5 -42t-68.5 -16zM296 128q21 0 37.5 7.5t30.5 28.5v184q-15 14 -31.5 19t-34.5 5q-32 0 -56 -27t-24 -93
q0 -68 20.5 -96t57.5 -28z" />
    <glyph glyph-name="e" unicode="e" 
d="M330 -12q-59 0 -110.5 17.5t-89 51t-59 82.5t-21.5 111q0 61 22 110t58.5 82.5t84 51.5t97.5 18q59 0 103.5 -19t74.5 -52t45 -77t15 -94q0 -23 -2.5 -43t-4.5 -29h-321q11 -42 44 -61t88 -19q30 0 58.5 7.5t61.5 22.5l56 -102q-45 -29 -99 -43.5t-101 -14.5zM318 382
q-74 0 -95 -72h175q-11 72 -80 72z" />
    <glyph glyph-name="f" unicode="f" 
d="M202 0v366h-128v128l128 6v2q0 42 13 79.5t41.5 65.5t72 44.5t105.5 16.5q45 0 84.5 -8.5t69.5 -17.5l-32 -126q-21 8 -47 13t-53 5q-41 0 -61.5 -16t-20.5 -56v-2h158v-134h-158v-366h-172z" />
    <glyph glyph-name="g" unicode="g" 
d="M269 -206q-47 0 -87.5 6.5t-71.5 21.5t-48.5 38.5t-17.5 57.5q0 60 76 96v4q-21 14 -35.5 34t-14.5 52q0 26 17 51t43 43v4q-29 18 -48.5 51t-19.5 77q0 46 18 80.5t49 57t70.5 33.5t83.5 11q47 0 85 -12h202v-124h-90q5 -9 9.5 -23t4.5 -29q0 -44 -16 -75.5t-44.5 -51.5
t-67 -29.5t-83.5 -9.5q-29 0 -63 7q-9 -7 -12.5 -12.5t-3.5 -16.5q0 -17 18 -23.5t60 -6.5h85q100 0 154 -30.5t54 -99.5q0 -41 -21.5 -74.5t-61.5 -57.5t-96.5 -37t-126.5 -13zM283 260q25 0 43 17t18 53q0 35 -18 51.5t-43 16.5t-42.5 -16.5t-17.5 -51.5q0 -36 17.5 -53
t42.5 -17zM296 -100q51 0 83.5 12.5t32.5 33.5q0 20 -20 25t-58 5h-50q-29 0 -46 1.5t-30 4.5q-13 -9 -19 -17t-6 -19q0 -24 31 -35t82 -11z" />
    <glyph glyph-name="h" unicode="h" 
d="M64 0v696h172v-162l-10 -88h4q24 24 63 45t95 21q82 0 120 -55.5t38 -148.5v-308h-172v286q0 42 -12.5 61t-45.5 19q-24 0 -42 -10t-38 -28v-328h-172z" />
    <glyph glyph-name="i" unicode="i" 
d="M264 0v366h-190v134h362v-500h-172zM344 568q-48 0 -79 27.5t-31 72.5t31 73.5t79 28.5t79 -28.5t31 -73.5t-31 -72.5t-79 -27.5z" />
    <glyph glyph-name="j" unicode="j" 
d="M195 -188q-49 0 -87 9.5t-71 24.5l49 122q32 -14 54.5 -18t42.5 -4q46 0 63.5 21.5t17.5 72.5v326h-190v134h362v-454q0 -46 -11 -88t-38.5 -74.5t-74 -52t-117.5 -19.5zM344 568q-48 0 -79 27.5t-31 72.5t31 73.5t79 28.5t79 -28.5t31 -73.5t-31 -72.5t-79 -27.5z" />
    <glyph glyph-name="k" unicode="k" 
d="M64 0v696h172v-374h4l152 178h186l-186 -206l198 -294h-186l-110 186l-58 -64v-122h-172z" />
    <glyph glyph-name="l" unicode="l" 
d="M391 -12q-50 0 -87.5 16t-63 44.5t-38 68.5t-12.5 89v356h-150v134h322v-496q0 -22 7 -36t17.5 -22.5t24 -12t26.5 -3.5q31 0 72 14l37 -126q-20 -6 -37.5 -11t-35.5 -8t-38 -5t-44 -2z" />
    <glyph glyph-name="m" unicode="m" 
d="M26 0v500h128l12 -60h4q12 29 37 50.5t69 21.5q31 0 53.5 -20.5t30.5 -59.5q11 32 38 56t70 24q54 0 83 -44.5t29 -119.5v-348h-162v336q0 30 -17 30q-20 0 -33 -38v-328h-130v336q0 30 -20 30q-17 0 -30 -38v-328h-162z" />
    <glyph glyph-name="n" unicode="n" 
d="M64 0v500h140l12 -60h4q30 29 71 50.5t96 21.5q83 0 121 -55.5t38 -148.5v-308h-172v286q0 42 -12.5 61t-45.5 19q-24 0 -42 -10t-38 -28v-328h-172z" />
    <glyph glyph-name="o" unicode="o" 
d="M300 -12q-50 0 -96.5 17.5t-82.5 51t-57.5 82.5t-21.5 111t21.5 111t57.5 82.5t82.5 51t96.5 17.5q49 0 95.5 -17.5t82.5 -51t58 -82.5t22 -111t-22 -111t-58 -82.5t-82.5 -51t-95.5 -17.5zM300 126q44 0 63 33.5t19 90.5t-19 90.5t-63 33.5t-63 -33.5t-19 -90.5
t19 -90.5t63 -33.5z" />
    <glyph glyph-name="p" unicode="p" 
d="M64 -176v676h140l12 -46h4q29 26 65.5 42t74.5 16q45 0 82 -18t62.5 -51t39.5 -80t14 -105q0 -65 -18 -115t-47.5 -84.5t-68 -52.5t-79.5 -18q-63 0 -113 50h-4l8 -76v-138h-172zM304 128q16 0 30 6.5t24.5 21.5t17 39.5t6.5 60.5q0 62 -18.5 89t-55.5 27q-20 0 -37 -8
t-35 -28v-184q16 -14 33.5 -19t34.5 -5z" />
    <glyph glyph-name="q" unicode="q" 
d="M364 -176v138l8 76h-4q-23 -23 -54.5 -36.5t-63.5 -13.5q-47 0 -85.5 18t-65.5 52t-42 82.5t-15 109.5t18 110t47 82.5t67 51.5t77 18q41 0 72.5 -14.5t60.5 -47.5h4l14 50h134v-676h-172zM296 128q21 0 37.5 7.5t30.5 28.5v184q-15 14 -31.5 19t-34.5 5q-32 0 -56 -27
t-24 -93q0 -68 20.5 -96t57.5 -28z" />
    <glyph glyph-name="r" unicode="r" 
d="M104 0v500h141l13 -106h4q36 62 87 90t108 28q35 0 54.5 -5.5t40.5 -14.5l-34 -144q-23 7 -41.5 10.5t-45.5 3.5q-43 0 -85 -25.5t-70 -88.5v-248h-172z" />
    <glyph glyph-name="s" unicode="s" 
d="M290 -12q-65 0 -130.5 22t-113.5 54l72 106q48 -28 98 -42t98 -14q33 0 47.5 8t14.5 22q0 9 -5.5 15t-18 10.5t-34 9t-52.5 11.5q-52 11 -87.5 26.5t-58 35.5t-32.5 44.5t-10 53.5q0 37 17 67t48 51t75 32.5t98 11.5q71 0 126.5 -22.5t95.5 -47.5l-76 -102
q-39 23 -81 34.5t-81 11.5q-24 0 -38 -7t-14 -21q0 -8 5.5 -13t17.5 -9.5t32 -8.5t49 -11q56 -13 93.5 -28t60 -34.5t31.5 -44t9 -55.5q0 -35 -16.5 -65.5t-49 -53t-80 -35t-110.5 -12.5z" />
    <glyph glyph-name="t" unicode="t" 
d="M386 -12q-62 0 -104.5 16t-69 45.5t-38.5 71t-12 91.5v154h-120v128l128 6l22 150h142v-150h198v-134h-198v-151q0 -54 24.5 -73.5t72.5 -19.5q26 0 48.5 4.5t42.5 11.5l30 -124q-33 -9 -74 -17.5t-92 -8.5z" />
    <glyph glyph-name="u" unicode="u" 
d="M214 -12q-84 0 -121 55.5t-37 148.5v308h172v-286q0 -42 11.5 -61t45.5 -19q22 0 38.5 8.5t36.5 35.5v322h172v-500h-140l-12 66h-4q-32 -36 -70.5 -57t-91.5 -21z" />
    <glyph glyph-name="v" unicode="v" 
d="M204 0l-180 500h172l65 -218q11 -38 20.5 -76.5t20.5 -79.5h4q11 41 20.5 79.5t20.5 76.5l65 218h164l-174 -500h-198z" />
    <glyph glyph-name="w" unicode="w" 
d="M74 0l-72 500h166l20 -210q4 -38 6.5 -75.5t7.5 -76.5h3q4 39 8.5 77.5t12.5 74.5l20 130h116l22 -130q7 -38 12.5 -75.5t10.5 -76.5h4q5 39 6.5 76.5t4.5 75.5l16 210h160l-66 -500h-198l-16 134q-5 35 -8.5 70.5t-7.5 77.5h-4q-2 -26 -5 -59.5t-9 -88.5l-16 -134h-194z
" />
    <glyph glyph-name="x" unicode="x" 
d="M27 0l167 260l-157 240h184l41 -70q11 -21 24.5 -43t24.5 -43h4q8 21 18 43t18 43l33 70h179l-158 -260l167 -240h-184l-46 70q-13 21 -27 43t-27 43h-4q-10 -21 -20.5 -42.5t-20.5 -43.5l-37 -70h-179z" />
    <glyph glyph-name="y" unicode="y" 
d="M147 -188q-23 0 -43 2.5t-37 7.5l30 130q19 -6 36 -6q40 0 61.5 13.5t31.5 36.5l8 22l-210 482h170l70 -192q13 -36 23.5 -73.5t21.5 -78.5h4q9 38 20.5 76t22.5 76l60 192h162l-188 -492q-20 -51 -42 -88t-50.5 -61t-65 -35.5t-85.5 -11.5z" />
    <glyph glyph-name="z" unicode="z" 
d="M70 0v92l230 274h-202v134h440v-92l-232 -274h238v-134h-474z" />
    <glyph glyph-name="braceleft" unicode="{" 
d="M411 -152q-49 0 -84 7.5t-58 24.5t-34 45t-11 69q0 26 1.5 46t3.5 38t3.5 36.5t1.5 41.5q0 13 -6.5 25.5t-21.5 22.5t-41 16.5t-65 7.5v100q39 1 65 7.5t41 16.5t21.5 22.5t6.5 25.5q0 23 -1.5 41.5t-3.5 36.5t-3.5 38t-1.5 46q0 41 11 69t34 45t58 24.5t84 7.5h83v-90
h-37q-29 0 -47 -2.5t-28 -9t-14 -19t-4 -31.5q0 -38 2 -75t2 -81q0 -60 -24.5 -85.5t-79.5 -34.5v-4q55 -9 79.5 -34.5t24.5 -85.5q0 -44 -2 -81t-2 -75q0 -20 4 -32t14 -18.5t28 -9t47 -2.5h37v-90h-83z" />
    <glyph glyph-name="bar" unicode="|" 
d="M224 -250v1000h152v-1000h-152z" />
    <glyph glyph-name="braceright" unicode="}" 
d="M107 -152v90h37q28 0 46 2.5t28 9t14 18.5t4 32q0 38 -1.5 75t-1.5 81q0 60 24.5 85.5t79.5 34.5v4q-55 9 -79.5 34.5t-24.5 85.5q0 44 1.5 81t1.5 75q0 19 -4 31.5t-14 19t-28 9t-46 2.5h-37v90h83q97 0 142 -32t45 -114q0 -26 -1.5 -46t-4 -38t-4 -36.5t-1.5 -41.5
q0 -13 6.5 -25.5t22 -22.5t41.5 -16.5t65 -7.5v-100q-39 -1 -65 -7.5t-41.5 -16.5t-22 -22.5t-6.5 -25.5q0 -23 1.5 -41.5t4 -36.5t4 -38t1.5 -46q0 -41 -11 -69t-34 -45t-58 -24.5t-84 -7.5h-83z" />
    <glyph glyph-name="asciitilde" unicode="~" 
d="M384 234q-32 0 -54.5 11t-41.5 24.5t-36.5 25t-37.5 11.5t-38 -21t-32 -59l-102 48q35 81 79.5 116.5t94.5 35.5q31 0 54 -11.5t42 -25t36.5 -24.5t37.5 -11t38 21t32 59l102 -48q-35 -81 -79.5 -116.5t-94.5 -35.5z" />
    <glyph glyph-name="uni00A0" unicode="&#xa0;" 
 />
    <glyph glyph-name="exclamdown" unicode="&#xa1;" 
d="M214 -170l6 148l24 258h112l24 -258l6 -148h-172zM300 292q-48 0 -79 30.5t-31 78.5t31 79.5t79 31.5t79 -31.5t31 -79.5t-31 -78.5t-79 -30.5z" />
    <glyph glyph-name="cent" unicode="&#xa2;" 
d="M256 306q0 -76 54 -107v214q-28 -15 -41 -42.5t-13 -64.5zM310 -44v91q-101 14 -160.5 80.5t-59.5 178.5q0 53 16.5 96.5t45.5 76t69.5 53.5t88.5 30v94h92v-89q38 -4 69 -18.5t53 -36.5l-78 -106q-23 18 -44 23v-245q17 4 32 12t28 18l68 -108q-29 -25 -62.5 -39.5
t-65.5 -19.5v-91h-92z" />
    <glyph glyph-name="sterling" unicode="&#xa3;" 
d="M63 0v106q24 9 44.5 23t36.5 32t25 40.5t9 48.5v8t-1 8h-109v98l77 6q-6 16 -10 32t-4 30q0 49 17.5 89t49 67.5t75 42.5t94.5 15q61 0 106.5 -21t83.5 -63l-92 -92q-37 38 -81 38q-41 0 -65.5 -19.5t-24.5 -66.5q0 -23 8 -52h160v-104h-136q1 -5 1 -9v-9
q0 -29 -10.5 -51.5t-35.5 -48.5v-4h276v-144h-494z" />
    <glyph glyph-name="currency" unicode="&#xa4;" 
d="M112 56l-85 85l80 80q-33 47 -33 109q0 32 8.5 58.5t23.5 48.5l-79 80l85 85l90 -90q48 20 98 20t98 -20l90 90l85 -85l-80 -80q16 -22 24.5 -48.5t8.5 -58.5t-9 -59t-25 -50l81 -80l-85 -85l-91 91q-23 -10 -48 -14.5t-49 -4.5q-52 0 -97 19zM300 246q32 0 53 22.5
t21 61.5t-21 61.5t-53 22.5t-53 -22.5t-21 -61.5t21 -61.5t53 -22.5z" />
    <glyph glyph-name="yen" unicode="&#xa5;" 
d="M214 0v142h-164v80h164v50h-164v80h127l-154 282h176l49 -118q14 -33 26 -65.5t26 -64.5h4q13 32 26 65t26 65l49 118h172l-154 -282h127v-80h-164v-50h164v-80h-164v-142h-172z" />
    <glyph glyph-name="brokenbar" unicode="&#xa6;" 
d="M224 -250v440h152v-440h-152zM224 310v440h152v-440h-152z" />
    <glyph glyph-name="section" unicode="&#xa7;" 
d="M272 -92q-56 0 -111.5 21.5t-90.5 68.5l98 86q24 -26 51 -38t53 -12q27 0 38.5 8.5t11.5 23.5q0 16 -19 28t-48 24t-62 27.5t-62 38.5t-48 55.5t-19 80.5q0 35 20.5 69.5t56.5 57.5q-13 17 -20 37t-7 46q0 74 50 118t138 44q62 0 110 -21.5t80 -46.5l-78 -106
q-23 20 -51 34t-51 14q-22 0 -33 -6.5t-11 -23.5q0 -14 20 -25.5t49.5 -24.5t64.5 -29.5t64.5 -39.5t49.5 -55.5t20 -77.5q0 -83 -81 -135q21 -32 21 -75q0 -35 -12.5 -65.5t-38 -53t-64 -35t-89.5 -12.5zM208 332q0 -20 14.5 -34.5t37.5 -26.5t51 -24t56 -26q25 18 25 49
q0 20 -14 35t-37 27t-51.5 23t-56.5 25q-25 -19 -25 -48z" />
    <glyph glyph-name="dieresis" unicode="&#xa8;" 
d="M184 564q-40 0 -65 26t-25 64t25 64t65 26t65 -26t25 -64t-25 -64t-65 -26zM416 564q-40 0 -65 26t-25 64t25 64t65 26t65 -26t25 -64t-25 -64t-65 -26z" />
    <glyph glyph-name="copyright" unicode="&#xa9;" 
d="M300 -8q-57 0 -109 23t-91 66t-62.5 105t-23.5 140t23.5 139.5t62.5 103.5t91 64.5t109 22.5t109 -22.5t91 -64.5t62.5 -103.5t23.5 -139.5t-23.5 -140t-62.5 -105t-91 -66t-109 -23zM300 60q48 0 87.5 19t67.5 54t43.5 84t15.5 109t-15.5 108.5t-43.5 82.5t-67.5 52.5
t-87.5 18.5t-87.5 -18.5t-67.5 -52.5t-43.5 -82.5t-15.5 -108.5t15.5 -109t43.5 -84t67.5 -54t87.5 -19zM314 128q-39 0 -71.5 13.5t-56.5 39t-37 62t-13 81.5q0 44 14.5 80t39 61.5t56 39t66.5 13.5q41 0 68 -15t48 -35l-63 -70q-10 11 -19.5 16.5t-21.5 5.5
q-34 0 -50.5 -28.5t-16.5 -67.5q0 -45 16 -71.5t45 -26.5q17 0 27.5 5.5t24.5 14.5l54 -78q-24 -18 -51.5 -29t-58.5 -11z" />
    <glyph glyph-name="ordfeminine" unicode="&#xaa;" 
d="M250 360q-26 0 -47 8.5t-35.5 22.5t-22 32.5t-7.5 38.5q0 51 49 83t161 37q-4 18 -19.5 25t-41.5 7q-20 0 -44 -6t-53 -22l-42 78q38 21 80 32.5t84 11.5q69 0 111.5 -37t42.5 -119v-184h-96l-8 34h-3q-22 -20 -49.5 -31t-59.5 -11zM284 448q21 0 36 6.5t28 16.5v45
q-54 -3 -75 -15t-21 -27q0 -26 32 -26z" />
    <glyph glyph-name="guillemotleft" unicode="&#xab;" 
d="M205 14l-178 152v172l178 152l72 -64l-128 -174l128 -174zM484 14l-178 152v172l178 152l72 -64l-128 -174l128 -174z" />
    <glyph glyph-name="logicalnot" unicode="&#xac;" 
d="M412 90v180h-348v120h472v-300h-124z" />
    <glyph glyph-name="uni00AD" unicode="&#xad;" 
d="M64 270v120h472v-120h-472z" />
    <glyph glyph-name="registered" unicode="&#xae;" 
d="M299 308q-42 0 -79 15.5t-64 42.5t-43 64.5t-16 81.5t16 81.5t43 64.5t64 42.5t79 15.5t79 -15.5t64 -42.5t43 -64.5t16 -81.5t-16 -81.5t-43 -64.5t-64 -42.5t-79 -15.5zM299 362q63 0 102.5 40.5t39.5 109.5t-39.5 109.5t-102.5 40.5t-102.5 -40.5t-39.5 -109.5
t39.5 -109.5t102.5 -40.5zM215 416v194h94q36 0 59 -16.5t23 -49.5q0 -17 -8 -31t-26 -23l40 -74h-66l-28 56h-24v-56h-64zM279 515h18q14 0 20 8t6 17q0 10 -7 16.5t-19 6.5h-18v-48z" />
    <glyph glyph-name="macron" unicode="&#xaf;" 
d="M146 588v108h308v-108h-308z" />
    <glyph glyph-name="degree" unicode="&#xb0;" 
d="M301 386q-32 0 -60 11.5t-48.5 31.5t-32 47.5t-11.5 59.5t11.5 59.5t32 47.5t48.5 31.5t60 11.5t60 -11.5t48.5 -31.5t32 -47.5t11.5 -59.5t-11.5 -59.5t-32 -47.5t-48.5 -31.5t-60 -11.5zM301 466q29 0 46.5 19t17.5 51t-17.5 51t-46.5 19t-46.5 -19t-17.5 -51t17.5 -51
t46.5 -19z" />
    <glyph glyph-name="plusminus" unicode="&#xb1;" 
d="M238 170v120h-174v120h174v160h124v-160h174v-120h-174v-120h-124zM64 0v120h472v-120h-472z" />
    <glyph glyph-name="two.sups" unicode="&#xb2;" 
d="M152 368l-10 66q85 57 135.5 102t50.5 78q0 26 -15.5 40t-44.5 14q-42 0 -76 -44l-70 64q34 43 75 62.5t91 19.5q72 0 116 -35.5t44 -98.5q0 -45 -29 -83.5t-79 -80.5h120v-104h-308z" />
    <glyph glyph-name="three.sups" unicode="&#xb3;" 
d="M298 356q-56 0 -101 19t-73 61l74 58q19 -26 39.5 -35t46.5 -9q25 0 41.5 10t16.5 28q0 23 -22 33.5t-70 10.5v70q35 0 56.5 8.5t21.5 31.5q0 17 -13.5 25.5t-36.5 8.5q-21 0 -38 -10t-30 -26l-70 62q35 38 72 53t88 15q30 0 57 -7.5t47.5 -22t33 -35t12.5 -45.5
q0 -30 -14.5 -50.5t-47.5 -37.5q36 -12 56 -36.5t20 -57.5q0 -27 -13.5 -49.5t-36.5 -38.5t-53 -25t-63 -9z" />
    <glyph glyph-name="acute" unicode="&#xb4;" 
d="M300 558l-84 84l158 188l116 -114z" />
    <glyph glyph-name="uni00B5" unicode="&#xb5;" 
d="M56 -200v700h172v-286q0 -48 14 -64t40 -16t44 16t34 48v302h174q-2 -41 -4.5 -88t-4 -92t-2.5 -84.5t-1 -65.5t10.5 -35t27.5 -9h8.5t9.5 2l20 -126q-14 -6 -35 -10t-49 -4q-53 0 -85.5 23t-48.5 65h-4q-17 -39 -44 -60.5t-60 -21.5q-14 0 -28.5 2.5t-25.5 11.5
q2 -54 4 -104t8 -104h-174z" />
    <glyph glyph-name="paragraph" unicode="&#xb6;" 
d="M277 186q-48 0 -91 15.5t-76 45.5t-52.5 74.5t-19.5 102.5q0 64 19.5 107.5t52.5 70t76.5 37.5t91.5 11h41v-464h-42zM370 -80v730h172v-730h-172z" />
    <glyph glyph-name="periodcentered" unicode="&#xb7;" 
d="M300 226q-29 0 -53 10t-41 28t-26.5 41.5t-9.5 50.5t9.5 50.5t26.5 41t41 28t53 10.5t53 -10.5t41 -28t26.5 -41t9.5 -50.5t-9.5 -50.5t-26.5 -41.5t-41 -28t-53 -10z" />
    <glyph glyph-name="cedilla" unicode="&#xb8;" 
d="M192 -244l-12 66q57 3 78.5 12t21.5 30q0 13 -15 23.5t-61 16.5l54 108h98l-32 -72q39 -9 58.5 -26.5t19.5 -49.5q0 -54 -55 -79.5t-155 -28.5z" />
    <glyph glyph-name="one.sups" unicode="&#xb9;" 
d="M162 368v104h120v166h-110v76q25 4 44.5 7.5t35 8t29.5 11.5t29 17h98v-286h102v-104h-348z" />
    <glyph glyph-name="ordmasculine" unicode="&#xba;" 
d="M300 360q-33 0 -64 11.5t-55 34t-38 54.5t-14 73t14 73.5t38 55t55 34.5t64 12t64 -12t55 -34.5t38 -55t14 -73.5t-14 -73t-38 -54.5t-55 -34t-64 -11.5zM300 454q29 0 39 21.5t10 57.5q0 37 -10 58t-39 21q-28 0 -38.5 -21t-10.5 -58q0 -36 10.5 -57.5t38.5 -21.5z" />
    <glyph glyph-name="guillemotright" unicode="&#xbb;" 
d="M117 14l-72 64l128 174l-128 174l72 64l178 -152v-172zM396 14l-72 64l128 174l-128 174l72 64l178 -152v-172z" />
    <glyph glyph-name="onequarter" unicode="&#xbc;" 
d="M129 320v205h-81v73q20 2 35 5t27 7.5t23 10t24 13.5h96v-314h-124zM98 26l-86 84l188 168l58 -54zM400 372l-58 54l160 198l86 -84zM440 0v56h-159v59l89 211l88 -32l-70 -163h52v85h108v-85h52v-75h-52v-56h-108z" />
    <glyph glyph-name="onehalf" unicode="&#xbd;" 
d="M129 320v205h-81v73q20 2 35 5t27 7.5t23 10t24 13.5h96v-314h-124zM98 26l-86 84l188 168l58 -54zM400 372l-58 54l160 198l86 -84zM310 0v63q28 16 53.5 34.5t45 36t31 33t11.5 26.5q0 16 -9.5 25.5t-28.5 9.5q-25 0 -49 -32l-70 64q30 30 63.5 48t75.5 18
q62 0 99 -29.5t37 -80.5q0 -32 -21 -62.5t-45 -53.5h76v-100h-269z" />
    <glyph glyph-name="threequarters" unicode="&#xbe;" 
d="M159 308q-30 0 -65.5 5.5t-74.5 31.5l45 76q16 -8 38 -15.5t41 -7.5q14 0 24 5.5t10 16.5q0 14 -15 21.5t-49 7.5v62q23 0 37.5 4t14.5 21q0 20 -32 20q-17 0 -32.5 -7t-30.5 -15l-47 72q24 17 59.5 28.5t79.5 11.5q25 0 47.5 -6.5t39 -18.5t26.5 -28.5t10 -36.5
q0 -27 -11 -43t-42 -27q37 -11 51 -30t14 -46q0 -22 -11 -40.5t-30 -32t-44 -21.5t-53 -8zM98 26l-86 84l188 168l58 -54zM400 372l-58 54l160 198l86 -84zM440 0v56h-159v59l89 211l88 -32l-70 -163h52v85h108v-85h52v-75h-52v-56h-108z" />
    <glyph glyph-name="questiondown" unicode="&#xbf;" 
d="M308 -182q-44 0 -82.5 9.5t-67 30t-45.5 51.5t-17 75q0 32 11.5 56t28.5 42.5t36.5 35t36 33.5t26 37t7.5 48h150q5 -32 -3 -57.5t-22.5 -45.5t-33 -36.5t-35 -31.5t-27.5 -29t-11 -30q0 -27 18.5 -38.5t41.5 -11.5q29 0 49.5 12t42.5 30l94 -86q-37 -42 -87.5 -68
t-110.5 -26zM314 292q-48 0 -79 30.5t-31 78.5t31 79.5t79 31.5t79 -31.5t31 -79.5t-31 -78.5t-79 -30.5z" />
    <glyph glyph-name="Agrave" unicode="&#xc0;" 
d="M249 316l-10 -45h116l-10 45q-11 47 -23.5 101.5t-23.5 104.5h-4q-11 -50 -22.5 -104.5t-22.5 -101.5zM0 0l196 650h208l196 -650h-182l-32 138h-178l-32 -138h-176zM340 674l-196 120l90 110l182 -144z" />
    <glyph glyph-name="Aacute" unicode="&#xc1;" 
d="M249 316l-10 -45h116l-10 45q-11 47 -23.5 101.5t-23.5 104.5h-4q-11 -50 -22.5 -104.5t-22.5 -101.5zM0 0l196 650h208l196 -650h-182l-32 138h-178l-32 -138h-176zM260 674l-76 86l182 144l90 -110z" />
    <glyph glyph-name="Acircumflex" unicode="&#xc2;" 
d="M249 316l-10 -45h116l-10 45q-11 47 -23.5 101.5t-23.5 104.5h-4q-11 -50 -22.5 -104.5t-22.5 -101.5zM0 0l196 650h208l196 -650h-182l-32 138h-178l-32 -138h-176zM196 680l-74 44l84 110h188l84 -110l-74 -44l-102 80h-4z" />
    <glyph glyph-name="Atilde" unicode="&#xc3;" 
d="M249 316l-10 -45h116l-10 45q-11 47 -23.5 101.5t-23.5 104.5h-4q-11 -50 -22.5 -104.5t-22.5 -101.5zM0 0l196 650h208l196 -650h-182l-32 138h-178l-32 -138h-176zM370 686q-26 0 -46.5 8t-36.5 18t-28.5 18t-22.5 8q-12 0 -20.5 -8t-11.5 -34l-110 8q2 41 13.5 70
t29.5 47t42 26.5t51 8.5q26 0 46.5 -8t36.5 -18t28 -18t23 -8q12 0 20.5 8t11.5 34l110 -8q-2 -41 -13.5 -70t-29.5 -47t-42 -26.5t-51 -8.5z" />
    <glyph glyph-name="Adieresis" unicode="&#xc4;" 
d="M249 316l-10 -45h116l-10 45q-11 47 -23.5 101.5t-23.5 104.5h-4q-11 -50 -22.5 -104.5t-22.5 -101.5zM0 0l196 650h208l196 -650h-182l-32 138h-178l-32 -138h-176zM182 694q-36 0 -59 23.5t-23 58.5t23 58.5t59 23.5t59 -23.5t23 -58.5t-23 -58.5t-59 -23.5zM418 694
q-36 0 -59 23.5t-23 58.5t23 58.5t59 23.5t59 -23.5t23 -58.5t-23 -58.5t-59 -23.5z" />
    <glyph glyph-name="Aring" unicode="&#xc5;" 
d="M249 316l-10 -45h116l-10 45q-11 47 -23.5 101.5t-23.5 104.5h-4q-11 -50 -22.5 -104.5t-22.5 -101.5zM0 0l196 650h208l196 -650h-182l-32 138h-178l-32 -138h-176zM300 696q-54 0 -87 27.5t-33 74.5t33 74.5t87 27.5t87 -27.5t33 -74.5t-33 -74.5t-87 -27.5zM300 758
q16 0 27 11t11 29t-11 29t-27 11t-27 -11t-11 -29t11 -29t27 -11z" />
    <glyph glyph-name="AE" unicode="&#xc6;" 
d="M264 348l-22 -83h67v257h-3q-11 -47 -22 -91t-20 -83zM-4 0l200 650h392v-144h-128v-100h107v-144h-107v-118h136v-144h-287v132h-102l-35 -132h-176z" />
    <glyph glyph-name="Ccedilla" unicode="&#xc7;" 
d="M358 -12q-61 0 -116.5 20.5t-98 62t-68 104t-25.5 145.5q0 82 25 145.5t68 107t101 66.5t124 23q63 0 114 -25.5t86 -58.5l-94 -106q-23 20 -48 31t-58 11q-30 0 -56 -13t-45 -37t-30 -59t-11 -79q0 -92 42 -141t108 -49q32 0 58.5 14.5t47.5 37.5l94 -104
q-41 -48 -96.5 -72t-121.5 -24zM232 -244l-12 66q57 3 78.5 12t21.5 30q0 13 -15 23.5t-61 16.5l54 108h98l-32 -72q39 -9 58.5 -26.5t19.5 -49.5q0 -54 -55 -79.5t-155 -28.5z" />
    <glyph glyph-name="Egrave" unicode="&#xc8;" 
d="M84 0v650h442v-144h-270v-102h230v-144h-230v-116h280v-144h-452zM360 674l-196 120l90 110l182 -144z" />
    <glyph glyph-name="Eacute" unicode="&#xc9;" 
d="M84 0v650h442v-144h-270v-102h230v-144h-230v-116h280v-144h-452zM280 674l-76 86l182 144l90 -110z" />
    <glyph glyph-name="Ecircumflex" unicode="&#xca;" 
d="M84 0v650h442v-144h-270v-102h230v-144h-230v-116h280v-144h-452zM216 680l-74 44l84 110h188l84 -110l-74 -44l-102 80h-4z" />
    <glyph glyph-name="Edieresis" unicode="&#xcb;" 
d="M84 0v650h442v-144h-270v-102h230v-144h-230v-116h280v-144h-452zM202 694q-36 0 -59 23.5t-23 58.5t23 58.5t59 23.5t59 -23.5t23 -58.5t-23 -58.5t-59 -23.5zM438 694q-36 0 -59 23.5t-23 58.5t23 58.5t59 23.5t59 -23.5t23 -58.5t-23 -58.5t-59 -23.5z" />
    <glyph glyph-name="Igrave" unicode="&#xcc;" 
d="M66 0v144h148v362h-148v144h468v-144h-148v-362h148v-144h-468zM340 674l-196 120l90 110l182 -144z" />
    <glyph glyph-name="Iacute" unicode="&#xcd;" 
d="M66 0v144h148v362h-148v144h468v-144h-148v-362h148v-144h-468zM260 674l-76 86l182 144l90 -110z" />
    <glyph glyph-name="Icircumflex" unicode="&#xce;" 
d="M66 0v144h148v362h-148v144h468v-144h-148v-362h148v-144h-468zM196 680l-74 44l84 110h188l84 -110l-74 -44l-102 80h-4z" />
    <glyph glyph-name="Idieresis" unicode="&#xcf;" 
d="M66 0v144h148v362h-148v144h468v-144h-148v-362h148v-144h-468zM182 694q-36 0 -59 23.5t-23 58.5t23 58.5t59 23.5t59 -23.5t23 -58.5t-23 -58.5t-59 -23.5zM418 694q-36 0 -59 23.5t-23 58.5t23 58.5t59 23.5t59 -23.5t23 -58.5t-23 -58.5t-59 -23.5z" />
    <glyph glyph-name="Eth" unicode="&#xd0;" 
d="M64 0v292h-68v74l68 6v278h188q69 0 127 -18t100 -57t65.5 -100t23.5 -147t-23.5 -148t-64.5 -102t-97 -59t-121 -19h-198zM236 138h6q31 0 58 8.5t47.5 29.5t32.5 58t12 94t-12 93t-32.5 56t-47.5 27.5t-58 7.5h-6v-140h94v-80h-94v-154z" />
    <glyph glyph-name="Ntilde" unicode="&#xd1;" 
d="M60 0v650h174l109 -290l53 -146h4q-3 26 -7 57t-8 63.5t-6.5 65t-2.5 62.5v188h164v-650h-174l-109 291l-53 145h-4q6 -56 15 -122t9 -126v-188h-164zM380 686q-26 0 -46.5 8t-36.5 18t-28.5 18t-22.5 8q-12 0 -20.5 -8t-11.5 -34l-110 8q2 41 13.5 70t29.5 47t42 26.5
t51 8.5q26 0 46.5 -8t36.5 -18t28 -18t23 -8q12 0 20.5 8t11.5 34l110 -8q-2 -41 -13.5 -70t-29.5 -47t-42 -26.5t-51 -8.5z" />
    <glyph glyph-name="Ograve" unicode="&#xd2;" 
d="M300 -12q-59 0 -108 21.5t-84 64t-54.5 106t-19.5 148.5q0 82 19.5 144.5t54.5 104.5t84 63.5t108 21.5t108 -21.5t84 -63.5t54.5 -104.5t19.5 -144.5q0 -85 -19.5 -148.5t-54.5 -106t-84 -64t-108 -21.5zM300 136q42 0 66 47t24 145q0 94 -24 140t-66 46t-66 -46
t-24 -140q0 -98 24 -145t66 -47zM340 674l-196 120l90 110l182 -144z" />
    <glyph glyph-name="Oacute" unicode="&#xd3;" 
d="M300 -12q-59 0 -108 21.5t-84 64t-54.5 106t-19.5 148.5q0 82 19.5 144.5t54.5 104.5t84 63.5t108 21.5t108 -21.5t84 -63.5t54.5 -104.5t19.5 -144.5q0 -85 -19.5 -148.5t-54.5 -106t-84 -64t-108 -21.5zM300 136q42 0 66 47t24 145q0 94 -24 140t-66 46t-66 -46
t-24 -140q0 -98 24 -145t66 -47zM260 674l-76 86l182 144l90 -110z" />
    <glyph glyph-name="Ocircumflex" unicode="&#xd4;" 
d="M300 -12q-59 0 -108 21.5t-84 64t-54.5 106t-19.5 148.5q0 82 19.5 144.5t54.5 104.5t84 63.5t108 21.5t108 -21.5t84 -63.5t54.5 -104.5t19.5 -144.5q0 -85 -19.5 -148.5t-54.5 -106t-84 -64t-108 -21.5zM300 136q42 0 66 47t24 145q0 94 -24 140t-66 46t-66 -46
t-24 -140q0 -98 24 -145t66 -47zM196 680l-74 44l84 110h188l84 -110l-74 -44l-102 80h-4z" />
    <glyph glyph-name="Otilde" unicode="&#xd5;" 
d="M300 -12q-59 0 -108 21.5t-84 64t-54.5 106t-19.5 148.5q0 82 19.5 144.5t54.5 104.5t84 63.5t108 21.5t108 -21.5t84 -63.5t54.5 -104.5t19.5 -144.5q0 -85 -19.5 -148.5t-54.5 -106t-84 -64t-108 -21.5zM300 136q42 0 66 47t24 145q0 94 -24 140t-66 46t-66 -46
t-24 -140q0 -98 24 -145t66 -47zM370 686q-26 0 -46.5 8t-36.5 18t-28.5 18t-22.5 8q-12 0 -20.5 -8t-11.5 -34l-110 8q2 41 13.5 70t29.5 47t42 26.5t51 8.5q26 0 46.5 -8t36.5 -18t28 -18t23 -8q12 0 20.5 8t11.5 34l110 -8q-2 -41 -13.5 -70t-29.5 -47t-42 -26.5
t-51 -8.5z" />
    <glyph glyph-name="Odieresis" unicode="&#xd6;" 
d="M300 -12q-59 0 -108 21.5t-84 64t-54.5 106t-19.5 148.5q0 82 19.5 144.5t54.5 104.5t84 63.5t108 21.5t108 -21.5t84 -63.5t54.5 -104.5t19.5 -144.5q0 -85 -19.5 -148.5t-54.5 -106t-84 -64t-108 -21.5zM300 136q42 0 66 47t24 145q0 94 -24 140t-66 46t-66 -46
t-24 -140q0 -98 24 -145t66 -47zM182 694q-36 0 -59 23.5t-23 58.5t23 58.5t59 23.5t59 -23.5t23 -58.5t-23 -58.5t-59 -23.5zM418 694q-36 0 -59 23.5t-23 58.5t23 58.5t59 23.5t59 -23.5t23 -58.5t-23 -58.5t-59 -23.5z" />
    <glyph glyph-name="multiply" unicode="&#xd7;" 
d="M162 106l-85 85l138 138l-138 138l85 85l138 -138l138 138l85 -85l-138 -138l138 -138l-85 -85l-138 138z" />
    <glyph glyph-name="Oslash" unicode="&#xd8;" 
d="M300 -12q-83 0 -144 41l-54 -75l-90 58l70 99q-23 41 -35.5 95t-12.5 122q0 82 19.5 144.5t54.5 104.5t84 63.5t108 21.5q83 0 145 -41l53 75l90 -58l-70 -98q23 -41 35.5 -93.5t12.5 -118.5q0 -85 -19.5 -148.5t-54.5 -106t-84 -64t-108 -21.5zM210 328v-19t1 -17
l140 198q-20 24 -51 24q-42 0 -66 -46t-24 -140zM300 136q42 0 66 47t24 145v15.5t-1 14.5l-140 -198q21 -24 51 -24z" />
    <glyph glyph-name="Ugrave" unicode="&#xd9;" 
d="M302 -12q-64 0 -110 18.5t-76 53t-44 83t-14 109.5v398h172v-418q0 -42 15.5 -69t56.5 -27q42 0 58 27t16 69v418h166v-398q0 -61 -13.5 -109.5t-42.5 -83t-74.5 -53t-109.5 -18.5zM340 674l-196 120l90 110l182 -144z" />
    <glyph glyph-name="Uacute" unicode="&#xda;" 
d="M302 -12q-64 0 -110 18.5t-76 53t-44 83t-14 109.5v398h172v-418q0 -42 15.5 -69t56.5 -27q42 0 58 27t16 69v418h166v-398q0 -61 -13.5 -109.5t-42.5 -83t-74.5 -53t-109.5 -18.5zM260 674l-76 86l182 144l90 -110z" />
    <glyph glyph-name="Ucircumflex" unicode="&#xdb;" 
d="M302 -12q-64 0 -110 18.5t-76 53t-44 83t-14 109.5v398h172v-418q0 -42 15.5 -69t56.5 -27q42 0 58 27t16 69v418h166v-398q0 -61 -13.5 -109.5t-42.5 -83t-74.5 -53t-109.5 -18.5zM196 680l-74 44l84 110h188l84 -110l-74 -44l-102 80h-4z" />
    <glyph glyph-name="Udieresis" unicode="&#xdc;" 
d="M302 -12q-64 0 -110 18.5t-76 53t-44 83t-14 109.5v398h172v-418q0 -42 15.5 -69t56.5 -27q42 0 58 27t16 69v418h166v-398q0 -61 -13.5 -109.5t-42.5 -83t-74.5 -53t-109.5 -18.5zM182 694q-36 0 -59 23.5t-23 58.5t23 58.5t59 23.5t59 -23.5t23 -58.5t-23 -58.5
t-59 -23.5zM418 694q-36 0 -59 23.5t-23 58.5t23 58.5t59 23.5t59 -23.5t23 -58.5t-23 -58.5t-59 -23.5z" />
    <glyph glyph-name="Yacute" unicode="&#xdd;" 
d="M214 0v215l-206 435h184l54 -142q13 -38 26 -73.5t27 -74.5h4q14 39 27.5 74.5t27.5 73.5l54 142h180l-206 -435v-215h-172zM260 674l-76 86l182 144l90 -110z" />
    <glyph glyph-name="Thorn" unicode="&#xde;" 
d="M62 0v650h172v-94h80q52 0 99.5 -10.5t83 -36t56.5 -67t21 -102.5q0 -60 -21.5 -103t-57.5 -70.5t-83 -41t-98 -13.5h-80v-112h-172zM234 248h72q51 0 75.5 24t24.5 68t-26 62t-74 18h-72v-172z" />
    <glyph glyph-name="germandbls" unicode="&#xdf;" 
d="M395 -12q-41 0 -71.5 8.5t-65.5 25.5l56 116q40 -24 75 -24q11 0 19 7.5t8 22.5q0 22 -21.5 38.5t-47.5 36t-47.5 48.5t-21.5 77q0 28 7.5 49t17 40.5t17 40t7.5 48.5q0 22 -11 37t-29 15q-35 0 -50 -27t-15 -69v-478h-172v486q0 46 14 86.5t43.5 70.5t74 47.5
t105.5 17.5q52 0 89.5 -15t62 -40t36 -56.5t11.5 -64.5q0 -35 -8 -59.5t-17 -42.5t-17 -33t-8 -31q0 -14 10 -24.5t25.5 -22t33.5 -25t33.5 -32t25.5 -44t10 -60.5t-11 -66t-33.5 -54t-56 -36.5t-78.5 -13.5z" />
    <glyph glyph-name="agrave" unicode="&#xe0;" 
d="M216 -12q-39 0 -69 12.5t-51 33.5t-31.5 49t-10.5 59q0 42 17.5 74t55 54.5t97.5 35.5t146 18q-5 27 -29.5 39.5t-66.5 12.5q-32 0 -65.5 -10.5t-78.5 -31.5l-60 112q57 32 116 49t122 17q53 0 96.5 -13.5t74 -42t47 -73t16.5 -105.5v-278h-140l-12 52h-4
q-37 -27 -80 -45.5t-90 -18.5zM272 120q30 0 54 11.5t44 26.5v64q-46 -2 -75.5 -7.5t-46.5 -14.5t-23.5 -20t-6.5 -24q0 -36 54 -36zM320 558l-190 158l116 114l158 -188z" />
    <glyph glyph-name="aacute" unicode="&#xe1;" 
d="M216 -12q-39 0 -69 12.5t-51 33.5t-31.5 49t-10.5 59q0 42 17.5 74t55 54.5t97.5 35.5t146 18q-5 27 -29.5 39.5t-66.5 12.5q-32 0 -65.5 -10.5t-78.5 -31.5l-60 112q57 32 116 49t122 17q53 0 96.5 -13.5t74 -42t47 -73t16.5 -105.5v-278h-140l-12 52h-4
q-37 -27 -80 -45.5t-90 -18.5zM272 120q30 0 54 11.5t44 26.5v64q-46 -2 -75.5 -7.5t-46.5 -14.5t-23.5 -20t-6.5 -24q0 -36 54 -36zM320 558l-84 84l158 188l116 -114z" />
    <glyph glyph-name="acircumflex" unicode="&#xe2;" 
d="M216 -12q-39 0 -69 12.5t-51 33.5t-31.5 49t-10.5 59q0 42 17.5 74t55 54.5t97.5 35.5t146 18q-5 27 -29.5 39.5t-66.5 12.5q-32 0 -65.5 -10.5t-78.5 -31.5l-60 112q57 32 116 49t122 17q53 0 96.5 -13.5t74 -42t47 -73t16.5 -105.5v-278h-140l-12 52h-4
q-37 -27 -80 -45.5t-90 -18.5zM272 120q30 0 54 11.5t44 26.5v64q-46 -2 -75.5 -7.5t-46.5 -14.5t-23.5 -20t-6.5 -24q0 -36 54 -36zM190 558l-64 60l106 128h176l106 -128l-64 -60l-128 84h-4z" />
    <glyph glyph-name="atilde" unicode="&#xe3;" 
d="M216 -12q-39 0 -69 12.5t-51 33.5t-31.5 49t-10.5 59q0 42 17.5 74t55 54.5t97.5 35.5t146 18q-5 27 -29.5 39.5t-66.5 12.5q-32 0 -65.5 -10.5t-78.5 -31.5l-60 112q57 32 116 49t122 17q53 0 96.5 -13.5t74 -42t47 -73t16.5 -105.5v-278h-140l-12 52h-4
q-37 -27 -80 -45.5t-90 -18.5zM272 120q30 0 54 11.5t44 26.5v64q-46 -2 -75.5 -7.5t-46.5 -14.5t-23.5 -20t-6.5 -24q0 -36 54 -36zM384 572q-23 0 -41.5 8.5t-33.5 19t-27 19.5t-22 9q-12 0 -19.5 -9.5t-10.5 -36.5l-106 6q2 85 37 121.5t95 36.5q22 0 41 -9t34 -19.5
t27 -19t22 -8.5q12 0 19.5 9.5t10.5 36.5l106 -6q-2 -85 -37 -121.5t-95 -36.5z" />
    <glyph glyph-name="adieresis" unicode="&#xe4;" 
d="M216 -12q-39 0 -69 12.5t-51 33.5t-31.5 49t-10.5 59q0 42 17.5 74t55 54.5t97.5 35.5t146 18q-5 27 -29.5 39.5t-66.5 12.5q-32 0 -65.5 -10.5t-78.5 -31.5l-60 112q57 32 116 49t122 17q53 0 96.5 -13.5t74 -42t47 -73t16.5 -105.5v-278h-140l-12 52h-4
q-37 -27 -80 -45.5t-90 -18.5zM272 120q30 0 54 11.5t44 26.5v64q-46 -2 -75.5 -7.5t-46.5 -14.5t-23.5 -20t-6.5 -24q0 -36 54 -36zM204 564q-40 0 -65 26t-25 64t25 64t65 26t65 -26t25 -64t-25 -64t-65 -26zM436 564q-40 0 -65 26t-25 64t25 64t65 26t65 -26t25 -64
t-25 -64t-65 -26z" />
    <glyph glyph-name="aring" unicode="&#xe5;" 
d="M216 -12q-39 0 -69 12.5t-51 33.5t-31.5 49t-10.5 59q0 42 17.5 74t55 54.5t97.5 35.5t146 18q-5 27 -29.5 39.5t-66.5 12.5q-32 0 -65.5 -10.5t-78.5 -31.5l-60 112q57 32 116 49t122 17q53 0 96.5 -13.5t74 -42t47 -73t16.5 -105.5v-278h-140l-12 52h-4
q-37 -27 -80 -45.5t-90 -18.5zM272 120q30 0 54 11.5t44 26.5v64q-46 -2 -75.5 -7.5t-46.5 -14.5t-23.5 -20t-6.5 -24q0 -36 54 -36zM320 568q-71 0 -105.5 31t-34.5 75t34.5 75t105.5 31t105.5 -31t34.5 -75t-34.5 -75t-105.5 -31zM320 630q16 0 27 12t11 32t-11 32t-27 12
t-27 -12t-11 -32t11 -32t27 -12z" />
    <glyph glyph-name="ae" unicode="&#xe6;" 
d="M150 -12q-30 0 -54.5 11t-42.5 30.5t-27.5 46t-9.5 58.5q0 79 54 123.5t163 60.5q-5 36 -19 47t-32 11q-26 0 -46.5 -8t-47.5 -24l-60 112q45 27 85.5 41.5t80.5 14.5q36 0 64 -14t52 -50q28 36 57.5 50t64.5 14q39 0 68.5 -19.5t50 -53t30.5 -78.5t10 -95
q0 -23 -2.5 -41t-4.5 -27h-218q10 -40 32.5 -58t49.5 -18q17 0 33.5 5t36.5 19l58 -110q-30 -24 -67.5 -36t-66.5 -12q-50 0 -88.5 18.5t-64.5 50.5q-38 -39 -71.5 -54t-67.5 -15zM204 120q8 0 17.5 3t23.5 16q-11 38 -11 75v4q-38 -8 -52 -25t-14 -37q0 -18 10.5 -27
t25.5 -9zM416 382q-16 0 -31 -18t-22 -62h95q-2 45 -12 62.5t-30 17.5z" />
    <glyph glyph-name="ccedilla" unicode="&#xe7;" 
d="M342 -12q-59 0 -110.5 17.5t-89 51t-59 82.5t-21.5 111t24 111t64.5 82.5t93.5 51t111 17.5q59 0 108 -18t81 -48l-78 -106q-28 19 -52.5 26.5t-48.5 7.5q-57 0 -92 -33.5t-35 -90.5t34 -90.5t87 -33.5q37 0 67 13t56 29l68 -108q-47 -38 -102.5 -55t-105.5 -17z
M232 -244l-12 66q57 3 78.5 12t21.5 30q0 13 -15 23.5t-61 16.5l54 108h98l-32 -72q39 -9 58.5 -26.5t19.5 -49.5q0 -54 -55 -79.5t-155 -28.5z" />
    <glyph glyph-name="egrave" unicode="&#xe8;" 
d="M330 -12q-59 0 -110.5 17.5t-89 51t-59 82.5t-21.5 111q0 61 22 110t58.5 82.5t84 51.5t97.5 18q59 0 103.5 -19t74.5 -52t45 -77t15 -94q0 -23 -2.5 -43t-4.5 -29h-321q11 -42 44 -61t88 -19q30 0 58.5 7.5t61.5 22.5l56 -102q-45 -29 -99 -43.5t-101 -14.5zM318 382
q-74 0 -95 -72h175q-11 72 -80 72zM310 558l-190 158l116 114l158 -188z" />
    <glyph glyph-name="eacute" unicode="&#xe9;" 
d="M330 -12q-59 0 -110.5 17.5t-89 51t-59 82.5t-21.5 111q0 61 22 110t58.5 82.5t84 51.5t97.5 18q59 0 103.5 -19t74.5 -52t45 -77t15 -94q0 -23 -2.5 -43t-4.5 -29h-321q11 -42 44 -61t88 -19q30 0 58.5 7.5t61.5 22.5l56 -102q-45 -29 -99 -43.5t-101 -14.5zM318 382
q-74 0 -95 -72h175q-11 72 -80 72zM310 558l-84 84l158 188l116 -114z" />
    <glyph glyph-name="ecircumflex" unicode="&#xea;" 
d="M330 -12q-59 0 -110.5 17.5t-89 51t-59 82.5t-21.5 111q0 61 22 110t58.5 82.5t84 51.5t97.5 18q59 0 103.5 -19t74.5 -52t45 -77t15 -94q0 -23 -2.5 -43t-4.5 -29h-321q11 -42 44 -61t88 -19q30 0 58.5 7.5t61.5 22.5l56 -102q-45 -29 -99 -43.5t-101 -14.5zM318 382
q-74 0 -95 -72h175q-11 72 -80 72zM180 558l-64 60l106 128h176l106 -128l-64 -60l-128 84h-4z" />
    <glyph glyph-name="edieresis" unicode="&#xeb;" 
d="M330 -12q-59 0 -110.5 17.5t-89 51t-59 82.5t-21.5 111q0 61 22 110t58.5 82.5t84 51.5t97.5 18q59 0 103.5 -19t74.5 -52t45 -77t15 -94q0 -23 -2.5 -43t-4.5 -29h-321q11 -42 44 -61t88 -19q30 0 58.5 7.5t61.5 22.5l56 -102q-45 -29 -99 -43.5t-101 -14.5zM318 382
q-74 0 -95 -72h175q-11 72 -80 72zM194 564q-40 0 -65 26t-25 64t25 64t65 26t65 -26t25 -64t-25 -64t-65 -26zM426 564q-40 0 -65 26t-25 64t25 64t65 26t65 -26t25 -64t-25 -64t-65 -26z" />
    <glyph glyph-name="igrave" unicode="&#xec;" 
d="M264 0v366h-190v134h362v-500h-172zM344 558l-190 158l116 114l158 -188z" />
    <glyph glyph-name="iacute" unicode="&#xed;" 
d="M264 0v366h-190v134h362v-500h-172zM344 558l-84 84l158 188l116 -114z" />
    <glyph glyph-name="icircumflex" unicode="&#xee;" 
d="M264 0v366h-190v134h362v-500h-172zM214 558l-64 60l106 128h176l106 -128l-64 -60l-128 84h-4z" />
    <glyph glyph-name="idieresis" unicode="&#xef;" 
d="M264 0v366h-190v134h362v-500h-172zM228 564q-40 0 -65 26t-25 64t25 64t65 26t65 -26t25 -64t-25 -64t-65 -26zM460 564q-40 0 -65 26t-25 64t25 64t65 26t65 -26t25 -64t-25 -64t-65 -26z" />
    <glyph glyph-name="eth" unicode="&#xf0;" 
d="M294 -12q-52 0 -97.5 17t-80 48.5t-54.5 76t-20 100.5q0 55 18.5 97.5t49 71.5t70 44t80.5 15q31 0 60.5 -10t51.5 -33q-26 70 -87 125l-149 -75l-44 74l114 57q-19 11 -39.5 22t-43.5 22l74 104q38 -17 74 -37t70 -43l137 69l44 -75l-107 -54q63 -60 102 -141.5
t39 -192.5q0 -61 -17.5 -112.5t-51 -89t-82.5 -59t-111 -21.5zM300 126q41 0 68.5 31.5t27.5 102.5v15t-1 14q-22 23 -45.5 33t-52.5 10q-44 0 -71.5 -23t-27.5 -79q0 -53 30 -78.5t72 -25.5z" />
    <glyph glyph-name="ntilde" unicode="&#xf1;" 
d="M64 0v500h140l12 -60h4q30 29 71 50.5t96 21.5q83 0 121 -55.5t38 -148.5v-308h-172v286q0 42 -12.5 61t-45.5 19q-24 0 -42 -10t-38 -28v-328h-172zM378 572q-23 0 -41.5 8.5t-33.5 19t-27 19.5t-22 9q-12 0 -19.5 -9.5t-10.5 -36.5l-106 6q2 85 37 121.5t95 36.5
q22 0 41 -9t34 -19.5t27 -19t22 -8.5q12 0 19.5 9.5t10.5 36.5l106 -6q-2 -85 -37 -121.5t-95 -36.5z" />
    <glyph glyph-name="ograve" unicode="&#xf2;" 
d="M300 -12q-50 0 -96.5 17.5t-82.5 51t-57.5 82.5t-21.5 111t21.5 111t57.5 82.5t82.5 51t96.5 17.5q49 0 95.5 -17.5t82.5 -51t58 -82.5t22 -111t-22 -111t-58 -82.5t-82.5 -51t-95.5 -17.5zM300 126q44 0 63 33.5t19 90.5t-19 90.5t-63 33.5t-63 -33.5t-19 -90.5
t19 -90.5t63 -33.5zM300 558l-190 158l116 114l158 -188z" />
    <glyph glyph-name="oacute" unicode="&#xf3;" 
d="M300 -12q-50 0 -96.5 17.5t-82.5 51t-57.5 82.5t-21.5 111t21.5 111t57.5 82.5t82.5 51t96.5 17.5q49 0 95.5 -17.5t82.5 -51t58 -82.5t22 -111t-22 -111t-58 -82.5t-82.5 -51t-95.5 -17.5zM300 126q44 0 63 33.5t19 90.5t-19 90.5t-63 33.5t-63 -33.5t-19 -90.5
t19 -90.5t63 -33.5zM300 558l-84 84l158 188l116 -114z" />
    <glyph glyph-name="ocircumflex" unicode="&#xf4;" 
d="M300 -12q-50 0 -96.5 17.5t-82.5 51t-57.5 82.5t-21.5 111t21.5 111t57.5 82.5t82.5 51t96.5 17.5q49 0 95.5 -17.5t82.5 -51t58 -82.5t22 -111t-22 -111t-58 -82.5t-82.5 -51t-95.5 -17.5zM300 126q44 0 63 33.5t19 90.5t-19 90.5t-63 33.5t-63 -33.5t-19 -90.5
t19 -90.5t63 -33.5zM170 558l-64 60l106 128h176l106 -128l-64 -60l-128 84h-4z" />
    <glyph glyph-name="otilde" unicode="&#xf5;" 
d="M300 -12q-50 0 -96.5 17.5t-82.5 51t-57.5 82.5t-21.5 111t21.5 111t57.5 82.5t82.5 51t96.5 17.5q49 0 95.5 -17.5t82.5 -51t58 -82.5t22 -111t-22 -111t-58 -82.5t-82.5 -51t-95.5 -17.5zM300 126q44 0 63 33.5t19 90.5t-19 90.5t-63 33.5t-63 -33.5t-19 -90.5
t19 -90.5t63 -33.5zM364 572q-23 0 -41.5 8.5t-33.5 19t-27 19.5t-22 9q-12 0 -19.5 -9.5t-10.5 -36.5l-106 6q2 85 37 121.5t95 36.5q22 0 41 -9t34 -19.5t27 -19t22 -8.5q12 0 19.5 9.5t10.5 36.5l106 -6q-2 -85 -37 -121.5t-95 -36.5z" />
    <glyph glyph-name="odieresis" unicode="&#xf6;" 
d="M300 -12q-50 0 -96.5 17.5t-82.5 51t-57.5 82.5t-21.5 111t21.5 111t57.5 82.5t82.5 51t96.5 17.5q49 0 95.5 -17.5t82.5 -51t58 -82.5t22 -111t-22 -111t-58 -82.5t-82.5 -51t-95.5 -17.5zM300 126q44 0 63 33.5t19 90.5t-19 90.5t-63 33.5t-63 -33.5t-19 -90.5
t19 -90.5t63 -33.5zM184 564q-40 0 -65 26t-25 64t25 64t65 26t65 -26t25 -64t-25 -64t-65 -26zM416 564q-40 0 -65 26t-25 64t25 64t65 26t65 -26t25 -64t-25 -64t-65 -26z" />
    <glyph glyph-name="divide" unicode="&#xf7;" 
d="M300 424q-39 0 -65.5 24t-26.5 62t26.5 62t65.5 24t65.5 -24t26.5 -62t-26.5 -62t-65.5 -24zM300 64q-39 0 -65.5 24t-26.5 62t26.5 62t65.5 24t65.5 -24t26.5 -62t-26.5 -62t-65.5 -24zM64 270v120h472v-120h-472z" />
    <glyph glyph-name="oslash" unicode="&#xf8;" 
d="M300 -12q-73 0 -136 37l-42 -51l-62 48l44 53q-29 33 -45.5 77t-16.5 98q0 62 21.5 111t57.5 82.5t82.5 51t96.5 17.5q73 0 135 -36l43 52l62 -48l-45 -54q29 -33 46 -77t17 -99q0 -62 -22 -111t-58 -82.5t-82.5 -51t-95.5 -17.5zM218 250q0 -9 0.5 -17.5t1.5 -16.5
l124 150q-19 14 -44 14q-44 0 -63 -36.5t-19 -93.5zM300 120q44 0 63 36.5t19 93.5q0 10 -0.5 19t-1.5 17l-125 -151q18 -15 45 -15z" />
    <glyph glyph-name="ugrave" unicode="&#xf9;" 
d="M214 -12q-84 0 -121 55.5t-37 148.5v308h172v-286q0 -42 11.5 -61t45.5 -19q22 0 38.5 8.5t36.5 35.5v322h172v-500h-140l-12 66h-4q-32 -36 -70.5 -57t-91.5 -21zM297 558l-190 158l116 114l158 -188z" />
    <glyph glyph-name="uacute" unicode="&#xfa;" 
d="M214 -12q-84 0 -121 55.5t-37 148.5v308h172v-286q0 -42 11.5 -61t45.5 -19q22 0 38.5 8.5t36.5 35.5v322h172v-500h-140l-12 66h-4q-32 -36 -70.5 -57t-91.5 -21zM297 558l-84 84l158 188l116 -114z" />
    <glyph glyph-name="ucircumflex" unicode="&#xfb;" 
d="M214 -12q-84 0 -121 55.5t-37 148.5v308h172v-286q0 -42 11.5 -61t45.5 -19q22 0 38.5 8.5t36.5 35.5v322h172v-500h-140l-12 66h-4q-32 -36 -70.5 -57t-91.5 -21zM167 558l-64 60l106 128h176l106 -128l-64 -60l-128 84h-4z" />
    <glyph glyph-name="udieresis" unicode="&#xfc;" 
d="M214 -12q-84 0 -121 55.5t-37 148.5v308h172v-286q0 -42 11.5 -61t45.5 -19q22 0 38.5 8.5t36.5 35.5v322h172v-500h-140l-12 66h-4q-32 -36 -70.5 -57t-91.5 -21zM181 564q-40 0 -65 26t-25 64t25 64t65 26t65 -26t25 -64t-25 -64t-65 -26zM413 564q-40 0 -65 26t-25 64
t25 64t65 26t65 -26t25 -64t-25 -64t-65 -26z" />
    <glyph glyph-name="yacute" unicode="&#xfd;" 
d="M147 -188q-23 0 -43 2.5t-37 7.5l30 130q19 -6 36 -6q40 0 61.5 13.5t31.5 36.5l8 22l-210 482h170l70 -192q13 -36 23.5 -73.5t21.5 -78.5h4q9 38 20.5 76t22.5 76l60 192h162l-188 -492q-20 -51 -42 -88t-50.5 -61t-65 -35.5t-85.5 -11.5zM310 558l-84 84l158 188
l116 -114z" />
    <glyph glyph-name="thorn" unicode="&#xfe;" 
d="M64 -176v872h172v-162l-6 -72h4q26 24 58.5 37t67.5 13q45 0 81.5 -18t62.5 -51t40 -80t14 -105q0 -65 -18 -115t-48 -84.5t-68 -52.5t-78 -18q-36 0 -64 14.5t-48 35.5h-4l6 -76v-138h-172zM304 128q15 0 29 6.5t25 21.5t17.5 39.5t6.5 60.5q0 62 -18 89t-56 27
q-20 0 -37 -8t-35 -28v-184q15 -14 33 -19t35 -5z" />
    <glyph glyph-name="ydieresis" unicode="&#xff;" 
d="M147 -188q-23 0 -43 2.5t-37 7.5l30 130q19 -6 36 -6q40 0 61.5 13.5t31.5 36.5l8 22l-210 482h170l70 -192q13 -36 23.5 -73.5t21.5 -78.5h4q9 38 20.5 76t22.5 76l60 192h162l-188 -492q-20 -51 -42 -88t-50.5 -61t-65 -35.5t-85.5 -11.5zM194 564q-40 0 -65 26t-25 64
t25 64t65 26t65 -26t25 -64t-25 -64t-65 -26zM426 564q-40 0 -65 26t-25 64t25 64t65 26t65 -26t25 -64t-25 -64t-65 -26z" />
    <glyph glyph-name="Amacron" unicode="&#x100;" 
d="M249 316l-10 -45h116l-10 45q-11 47 -23.5 101.5t-23.5 104.5h-4q-11 -50 -22.5 -104.5t-22.5 -101.5zM0 0l196 650h208l196 -650h-182l-32 138h-178l-32 -138h-176zM142 716v108h316v-108h-316z" />
    <glyph glyph-name="amacron" unicode="&#x101;" 
d="M216 -12q-39 0 -69 12.5t-51 33.5t-31.5 49t-10.5 59q0 42 17.5 74t55 54.5t97.5 35.5t146 18q-5 27 -29.5 39.5t-66.5 12.5q-32 0 -65.5 -10.5t-78.5 -31.5l-60 112q57 32 116 49t122 17q53 0 96.5 -13.5t74 -42t47 -73t16.5 -105.5v-278h-140l-12 52h-4
q-37 -27 -80 -45.5t-90 -18.5zM272 120q30 0 54 11.5t44 26.5v64q-46 -2 -75.5 -7.5t-46.5 -14.5t-23.5 -20t-6.5 -24q0 -36 54 -36zM166 588v108h308v-108h-308z" />
    <glyph glyph-name="Abreve" unicode="&#x102;" 
d="M249 316l-10 -45h116l-10 45q-11 47 -23.5 101.5t-23.5 104.5h-4q-11 -50 -22.5 -104.5t-22.5 -101.5zM0 0l196 650h208l196 -650h-182l-32 138h-178l-32 -138h-176zM300 694q-77 0 -119.5 34t-50.5 106l92 16q7 -29 27.5 -43.5t50.5 -14.5t50.5 14.5t27.5 43.5l92 -16
q-8 -72 -50.5 -106t-119.5 -34z" />
    <glyph glyph-name="abreve" unicode="&#x103;" 
d="M216 -12q-39 0 -69 12.5t-51 33.5t-31.5 49t-10.5 59q0 42 17.5 74t55 54.5t97.5 35.5t146 18q-5 27 -29.5 39.5t-66.5 12.5q-32 0 -65.5 -10.5t-78.5 -31.5l-60 112q57 32 116 49t122 17q53 0 96.5 -13.5t74 -42t47 -73t16.5 -105.5v-278h-140l-12 52h-4
q-37 -27 -80 -45.5t-90 -18.5zM272 120q30 0 54 11.5t44 26.5v64q-46 -2 -75.5 -7.5t-46.5 -14.5t-23.5 -20t-6.5 -24q0 -36 54 -36zM320 572q-88 0 -130 44.5t-44 115.5l96 16q5 -30 23.5 -50t54.5 -20t54.5 20t23.5 50l96 -16q-2 -71 -44 -115.5t-130 -44.5z" />
    <glyph glyph-name="Aogonek" unicode="&#x104;" 
d="M504 -228q-51 0 -86.5 25.5t-35.5 72.5q0 24 8.5 45t21.5 38t27.5 29t26.5 18h-48l-32 138h-178l-32 -138h-176l196 650h208l196 -650q-22 0 -39.5 -7.5t-29.5 -19.5t-18.5 -27t-6.5 -30q0 -17 10.5 -25.5t25.5 -8.5q11 0 21 4.5t17 9.5l38 -86q-21 -17 -53 -27.5
t-61 -10.5zM249 316l-10 -45h116l-10 45q-11 47 -23.5 101.5t-23.5 104.5h-4q-11 -50 -22.5 -104.5t-22.5 -101.5z" />
    <glyph glyph-name="aogonek" unicode="&#x105;" 
d="M442 -228q-25 0 -47.5 6.5t-39 19.5t-26 32t-9.5 44q0 24 8.5 43.5t21 34.5t27.5 26t27 18l-14 56h-4q-37 -27 -80 -45.5t-90 -18.5q-39 0 -69 12.5t-51 33.5t-31.5 49t-10.5 59q0 42 17.5 74t55 54.5t97.5 35.5t146 18q-5 27 -29.5 39.5t-66.5 12.5q-32 0 -65.5 -10.5
t-78.5 -31.5l-60 112q57 32 116 49t122 17q53 0 96.5 -13.5t74 -42t47 -73t16.5 -105.5v-278q-57 -14 -82.5 -38.5t-25.5 -47.5t15.5 -32.5t34.5 -9.5q12 0 24 3.5t20 8.5l34 -76q-23 -17 -57.5 -26.5t-62.5 -9.5zM272 120q30 0 54 11.5t44 26.5v64q-46 -2 -75.5 -7.5
t-46.5 -14.5t-23.5 -20t-6.5 -24q0 -36 54 -36z" />
    <glyph glyph-name="Cacute" unicode="&#x106;" 
d="M358 -12q-61 0 -116.5 20.5t-98 62t-68 104t-25.5 145.5q0 82 25 145.5t68 107t101 66.5t124 23q63 0 114 -25.5t86 -58.5l-94 -106q-23 20 -48 31t-58 11q-30 0 -56 -13t-45 -37t-30 -59t-11 -79q0 -92 42 -141t108 -49q32 0 58.5 14.5t47.5 37.5l94 -104
q-41 -48 -96.5 -72t-121.5 -24zM316 674l-76 86l182 144l90 -110z" />
    <glyph glyph-name="cacute" unicode="&#x107;" 
d="M342 -12q-59 0 -110.5 17.5t-89 51t-59 82.5t-21.5 111t24 111t64.5 82.5t93.5 51t111 17.5q59 0 108 -18t81 -48l-78 -106q-28 19 -52.5 26.5t-48.5 7.5q-57 0 -92 -33.5t-35 -90.5t34 -90.5t87 -33.5q37 0 67 13t56 29l68 -108q-47 -38 -102.5 -55t-105.5 -17zM340 558
l-84 84l158 188l116 -114z" />
    <glyph glyph-name="Ccircumflex" unicode="&#x108;" 
d="M358 -12q-61 0 -116.5 20.5t-98 62t-68 104t-25.5 145.5q0 82 25 145.5t68 107t101 66.5t124 23q63 0 114 -25.5t86 -58.5l-94 -106q-23 20 -48 31t-58 11q-30 0 -56 -13t-45 -37t-30 -59t-11 -79q0 -92 42 -141t108 -49q32 0 58.5 14.5t47.5 37.5l94 -104
q-41 -48 -96.5 -72t-121.5 -24zM252 680l-74 44l84 110h188l84 -110l-74 -44l-102 80h-4z" />
    <glyph glyph-name="ccircumflex" unicode="&#x109;" 
d="M342 -12q-59 0 -110.5 17.5t-89 51t-59 82.5t-21.5 111t24 111t64.5 82.5t93.5 51t111 17.5q59 0 108 -18t81 -48l-78 -106q-28 19 -52.5 26.5t-48.5 7.5q-57 0 -92 -33.5t-35 -90.5t34 -90.5t87 -33.5q37 0 67 13t56 29l68 -108q-47 -38 -102.5 -55t-105.5 -17zM210 558
l-64 60l106 128h176l106 -128l-64 -60l-128 84h-4z" />
    <glyph glyph-name="Cdotaccent" unicode="&#x10a;" 
d="M358 -12q-61 0 -116.5 20.5t-98 62t-68 104t-25.5 145.5q0 82 25 145.5t68 107t101 66.5t124 23q63 0 114 -25.5t86 -58.5l-94 -106q-23 20 -48 31t-58 11q-30 0 -56 -13t-45 -37t-30 -59t-11 -79q0 -92 42 -141t108 -49q32 0 58.5 14.5t47.5 37.5l94 -104
q-41 -48 -96.5 -72t-121.5 -24zM356 696q-45 0 -73.5 26t-28.5 68t28.5 68t73.5 26t73.5 -26t28.5 -68t-28.5 -68t-73.5 -26z" />
    <glyph glyph-name="cdotaccent" unicode="&#x10b;" 
d="M342 -12q-59 0 -110.5 17.5t-89 51t-59 82.5t-21.5 111t24 111t64.5 82.5t93.5 51t111 17.5q59 0 108 -18t81 -48l-78 -106q-28 19 -52.5 26.5t-48.5 7.5q-57 0 -92 -33.5t-35 -90.5t34 -90.5t87 -33.5q37 0 67 13t56 29l68 -108q-47 -38 -102.5 -55t-105.5 -17zM340 568
q-48 0 -79 27.5t-31 72.5t31 73.5t79 28.5t79 -28.5t31 -73.5t-31 -72.5t-79 -27.5z" />
    <glyph glyph-name="Ccaron" unicode="&#x10c;" 
d="M358 -12q-61 0 -116.5 20.5t-98 62t-68 104t-25.5 145.5q0 82 25 145.5t68 107t101 66.5t124 23q63 0 114 -25.5t86 -58.5l-94 -106q-23 20 -48 31t-58 11q-30 0 -56 -13t-45 -37t-30 -59t-11 -79q0 -92 42 -141t108 -49q32 0 58.5 14.5t47.5 37.5l94 -104
q-41 -48 -96.5 -72t-121.5 -24zM262 700l-84 110l74 44l102 -80h4l102 80l74 -44l-84 -110h-188z" />
    <glyph glyph-name="ccaron" unicode="&#x10d;" 
d="M342 -12q-59 0 -110.5 17.5t-89 51t-59 82.5t-21.5 111t24 111t64.5 82.5t93.5 51t111 17.5q59 0 108 -18t81 -48l-78 -106q-28 19 -52.5 26.5t-48.5 7.5q-57 0 -92 -33.5t-35 -90.5t34 -90.5t87 -33.5q37 0 67 13t56 29l68 -108q-47 -38 -102.5 -55t-105.5 -17zM252 578
l-106 128l64 60l128 -84h4l128 84l64 -60l-106 -128h-176z" />
    <glyph glyph-name="Dcaron" unicode="&#x10e;" 
d="M64 0v650h187q70 0 128 -18t100 -57t65.5 -100t23.5 -147t-23 -148t-64.5 -102t-97.5 -59t-122 -19h-197zM236 138h6q31 0 58.5 8.5t47.5 29.5t32 58t12 94t-12 93t-32 56t-47.5 27.5t-58.5 7.5h-6v-374zM206 700l-84 110l74 44l102 -80h4l102 80l74 -44l-84 -110h-188z
" />
    <glyph glyph-name="dcaron" unicode="&#x10f;" 
d="M205 -12q-41 0 -74 18t-56.5 52t-36 82.5t-12.5 109.5t15.5 110t40.5 82.5t57 51.5t66 18q33 0 54.5 -13.5t42.5 -36.5h4l-8 72v162h162v-696h-130l-12 46h-4q-24 -23 -52 -40.5t-57 -17.5zM250 128q15 0 25 8t23 28v184q-13 11 -23 17.5t-23 6.5q-23 0 -41.5 -27
t-18.5 -93q0 -68 15.5 -96t42.5 -28zM494 548l-6 276h152l-2 -104l-28 -172h-116z" />
    <glyph glyph-name="Dcroat" unicode="&#x110;" 
d="M64 0v292h-68v74l68 6v278h188q69 0 127 -18t100 -57t65.5 -100t23.5 -147t-23.5 -148t-64.5 -102t-97 -59t-121 -19h-198zM236 138h6q31 0 58 8.5t47.5 29.5t32.5 58t12 94t-12 93t-32.5 56t-47.5 27.5t-58 7.5h-6v-140h94v-80h-94v-154z" />
    <glyph glyph-name="dcroat" unicode="&#x111;" 
d="M251 -12q-48 0 -86.5 17.5t-65.5 50t-42 79t-15 105.5t18 106t47 79.5t67 49.5t77 17q41 0 68.5 -13.5t48.5 -36.5h4l-8 72v36h-148v80h148v66h172v-66h64v-74l-64 -5v-551h-140l-12 46h-4q-26 -26 -60.5 -42t-68.5 -16zM296 128q21 0 37.5 7.5t30.5 28.5v164
q-15 13 -31 18.5t-32 5.5q-34 0 -58.5 -24.5t-24.5 -85.5q0 -63 20.5 -88.5t57.5 -25.5z" />
    <glyph glyph-name="Emacron" unicode="&#x112;" 
d="M84 0v650h442v-144h-270v-102h230v-144h-230v-116h280v-144h-452zM162 716v108h316v-108h-316z" />
    <glyph glyph-name="emacron" unicode="&#x113;" 
d="M330 -12q-59 0 -110.5 17.5t-89 51t-59 82.5t-21.5 111q0 61 22 110t58.5 82.5t84 51.5t97.5 18q59 0 103.5 -19t74.5 -52t45 -77t15 -94q0 -23 -2.5 -43t-4.5 -29h-321q11 -42 44 -61t88 -19q30 0 58.5 7.5t61.5 22.5l56 -102q-45 -29 -99 -43.5t-101 -14.5zM318 382
q-74 0 -95 -72h175q-11 72 -80 72zM156 588v108h308v-108h-308z" />
    <glyph glyph-name="Ebreve" unicode="&#x114;" 
d="M84 0v650h442v-144h-270v-102h230v-144h-230v-116h280v-144h-452zM320 694q-77 0 -119.5 34t-50.5 106l92 16q7 -29 27.5 -43.5t50.5 -14.5t50.5 14.5t27.5 43.5l92 -16q-8 -72 -50.5 -106t-119.5 -34z" />
    <glyph glyph-name="ebreve" unicode="&#x115;" 
d="M330 -12q-59 0 -110.5 17.5t-89 51t-59 82.5t-21.5 111q0 61 22 110t58.5 82.5t84 51.5t97.5 18q59 0 103.5 -19t74.5 -52t45 -77t15 -94q0 -23 -2.5 -43t-4.5 -29h-321q11 -42 44 -61t88 -19q30 0 58.5 7.5t61.5 22.5l56 -102q-45 -29 -99 -43.5t-101 -14.5zM318 382
q-74 0 -95 -72h175q-11 72 -80 72zM310 572q-88 0 -130 44.5t-44 115.5l96 16q5 -30 23.5 -50t54.5 -20t54.5 20t23.5 50l96 -16q-2 -71 -44 -115.5t-130 -44.5z" />
    <glyph glyph-name="Edotaccent" unicode="&#x116;" 
d="M84 0v650h442v-144h-270v-102h230v-144h-230v-116h280v-144h-452zM320 696q-45 0 -73.5 26t-28.5 68t28.5 68t73.5 26t73.5 -26t28.5 -68t-28.5 -68t-73.5 -26z" />
    <glyph glyph-name="edotaccent" unicode="&#x117;" 
d="M330 -12q-59 0 -110.5 17.5t-89 51t-59 82.5t-21.5 111q0 61 22 110t58.5 82.5t84 51.5t97.5 18q59 0 103.5 -19t74.5 -52t45 -77t15 -94q0 -23 -2.5 -43t-4.5 -29h-321q11 -42 44 -61t88 -19q30 0 58.5 7.5t61.5 22.5l56 -102q-45 -29 -99 -43.5t-101 -14.5zM318 382
q-74 0 -95 -72h175q-11 72 -80 72zM310 568q-48 0 -79 27.5t-31 72.5t31 73.5t79 28.5t79 -28.5t31 -73.5t-31 -72.5t-79 -27.5z" />
    <glyph glyph-name="Eogonek" unicode="&#x118;" 
d="M444 -228q-51 0 -86.5 25.5t-35.5 72.5q0 24 8 44.5t20 37t26 28.5t26 20h-316v650h440v-144h-268v-102h228v-144h-228v-116h278v-144h-6q-17 0 -32.5 -7.5t-27 -19.5t-18 -27t-6.5 -30q0 -18 12.5 -26t27.5 -8q9 0 18 4.5t16 9.5l38 -86q-21 -17 -53 -27.5t-61 -10.5z
" />
    <glyph glyph-name="eogonek" unicode="&#x119;" 
d="M412 -228q-54 0 -88 25.5t-34 76.5q0 34 16.5 61t48.5 55q-8 -1 -14 -1.5t-11 -0.5q-59 0 -110.5 17.5t-89 51t-59 82.5t-21.5 111q0 61 22 110t58.5 82.5t84 51.5t97.5 18q59 0 103.5 -19t74.5 -52t45 -77t15 -94q0 -23 -2.5 -43t-4.5 -29h-321q11 -42 44 -61t88 -19
q30 0 58.5 7.5t61.5 22.5l56 -102q-38 -25 -62.5 -43t-38.5 -33t-19.5 -28t-5.5 -28q0 -21 14.5 -31.5t35.5 -10.5q12 0 23.5 3.5t20.5 8.5l34 -76q-23 -17 -57.5 -26.5t-62.5 -9.5zM318 382q-74 0 -95 -72h175q-11 72 -80 72z" />
    <glyph glyph-name="Ecaron" unicode="&#x11a;" 
d="M84 0v650h442v-144h-270v-102h230v-144h-230v-116h280v-144h-452zM226 700l-84 110l74 44l102 -80h4l102 80l74 -44l-84 -110h-188z" />
    <glyph glyph-name="ecaron" unicode="&#x11b;" 
d="M330 -12q-59 0 -110.5 17.5t-89 51t-59 82.5t-21.5 111q0 61 22 110t58.5 82.5t84 51.5t97.5 18q59 0 103.5 -19t74.5 -52t45 -77t15 -94q0 -23 -2.5 -43t-4.5 -29h-321q11 -42 44 -61t88 -19q30 0 58.5 7.5t61.5 22.5l56 -102q-45 -29 -99 -43.5t-101 -14.5zM318 382
q-74 0 -95 -72h175q-11 72 -80 72zM222 578l-106 128l64 60l128 -84h4l128 84l64 -60l-106 -128h-176z" />
    <glyph glyph-name="Gcircumflex" unicode="&#x11c;" 
d="M345 -12q-63 0 -118.5 20.5t-97 62t-65.5 104t-24 145.5q0 82 24 146t65.5 107.5t97.5 66t119 22.5q66 0 114 -25.5t80 -58.5l-94 -106q-20 20 -42.5 31t-57.5 11q-27 0 -50.5 -13t-41 -37t-27.5 -59t-10 -79q0 -92 34 -141t104 -49q12 0 24 3t20 9v90h-81v140h234v-310
q-17 -15 -39.5 -29.5t-49.5 -25.5t-57 -18t-61 -7zM226 680l-74 44l84 110h188l84 -110l-74 -44l-102 80h-4z" />
    <glyph glyph-name="gcircumflex" unicode="&#x11d;" 
d="M269 -206q-47 0 -87.5 6.5t-71.5 21.5t-48.5 38.5t-17.5 57.5q0 60 76 96v4q-21 14 -35.5 34t-14.5 52q0 26 17 51t43 43v4q-29 18 -48.5 51t-19.5 77q0 46 18 80.5t49 57t70.5 33.5t83.5 11q47 0 85 -12h202v-124h-90q5 -9 9.5 -23t4.5 -29q0 -44 -16 -75.5t-44.5 -51.5
t-67 -29.5t-83.5 -9.5q-29 0 -63 7q-9 -7 -12.5 -12.5t-3.5 -16.5q0 -17 18 -23.5t60 -6.5h85q100 0 154 -30.5t54 -99.5q0 -41 -21.5 -74.5t-61.5 -57.5t-96.5 -37t-126.5 -13zM283 260q25 0 43 17t18 53q0 35 -18 51.5t-43 16.5t-42.5 -16.5t-17.5 -51.5q0 -36 17.5 -53
t42.5 -17zM296 -100q51 0 83.5 12.5t32.5 33.5q0 20 -20 25t-58 5h-50q-29 0 -46 1.5t-30 4.5q-13 -9 -19 -17t-6 -19q0 -24 31 -35t82 -11zM173 558l-64 60l106 128h176l106 -128l-64 -60l-128 84h-4z" />
    <glyph glyph-name="Gbreve" unicode="&#x11e;" 
d="M345 -12q-63 0 -118.5 20.5t-97 62t-65.5 104t-24 145.5q0 82 24 146t65.5 107.5t97.5 66t119 22.5q66 0 114 -25.5t80 -58.5l-94 -106q-20 20 -42.5 31t-57.5 11q-27 0 -50.5 -13t-41 -37t-27.5 -59t-10 -79q0 -92 34 -141t104 -49q12 0 24 3t20 9v90h-81v140h234v-310
q-17 -15 -39.5 -29.5t-49.5 -25.5t-57 -18t-61 -7zM330 694q-77 0 -119.5 34t-50.5 106l92 16q7 -29 27.5 -43.5t50.5 -14.5t50.5 14.5t27.5 43.5l92 -16q-8 -72 -50.5 -106t-119.5 -34z" />
    <glyph glyph-name="gbreve" unicode="&#x11f;" 
d="M269 -206q-47 0 -87.5 6.5t-71.5 21.5t-48.5 38.5t-17.5 57.5q0 60 76 96v4q-21 14 -35.5 34t-14.5 52q0 26 17 51t43 43v4q-29 18 -48.5 51t-19.5 77q0 46 18 80.5t49 57t70.5 33.5t83.5 11q47 0 85 -12h202v-124h-90q5 -9 9.5 -23t4.5 -29q0 -44 -16 -75.5t-44.5 -51.5
t-67 -29.5t-83.5 -9.5q-29 0 -63 7q-9 -7 -12.5 -12.5t-3.5 -16.5q0 -17 18 -23.5t60 -6.5h85q100 0 154 -30.5t54 -99.5q0 -41 -21.5 -74.5t-61.5 -57.5t-96.5 -37t-126.5 -13zM283 260q25 0 43 17t18 53q0 35 -18 51.5t-43 16.5t-42.5 -16.5t-17.5 -51.5q0 -36 17.5 -53
t42.5 -17zM296 -100q51 0 83.5 12.5t32.5 33.5q0 20 -20 25t-58 5h-50q-29 0 -46 1.5t-30 4.5q-13 -9 -19 -17t-6 -19q0 -24 31 -35t82 -11zM303 572q-88 0 -130 44.5t-44 115.5l96 16q5 -30 23.5 -50t54.5 -20t54.5 20t23.5 50l96 -16q-2 -71 -44 -115.5t-130 -44.5z" />
    <glyph glyph-name="Gdotaccent" unicode="&#x120;" 
d="M345 -12q-63 0 -118.5 20.5t-97 62t-65.5 104t-24 145.5q0 82 24 146t65.5 107.5t97.5 66t119 22.5q66 0 114 -25.5t80 -58.5l-94 -106q-20 20 -42.5 31t-57.5 11q-27 0 -50.5 -13t-41 -37t-27.5 -59t-10 -79q0 -92 34 -141t104 -49q12 0 24 3t20 9v90h-81v140h234v-310
q-17 -15 -39.5 -29.5t-49.5 -25.5t-57 -18t-61 -7zM330 696q-45 0 -73.5 26t-28.5 68t28.5 68t73.5 26t73.5 -26t28.5 -68t-28.5 -68t-73.5 -26z" />
    <glyph glyph-name="gdotaccent" unicode="&#x121;" 
d="M269 -206q-47 0 -87.5 6.5t-71.5 21.5t-48.5 38.5t-17.5 57.5q0 60 76 96v4q-21 14 -35.5 34t-14.5 52q0 26 17 51t43 43v4q-29 18 -48.5 51t-19.5 77q0 46 18 80.5t49 57t70.5 33.5t83.5 11q47 0 85 -12h202v-124h-90q5 -9 9.5 -23t4.5 -29q0 -44 -16 -75.5t-44.5 -51.5
t-67 -29.5t-83.5 -9.5q-29 0 -63 7q-9 -7 -12.5 -12.5t-3.5 -16.5q0 -17 18 -23.5t60 -6.5h85q100 0 154 -30.5t54 -99.5q0 -41 -21.5 -74.5t-61.5 -57.5t-96.5 -37t-126.5 -13zM283 260q25 0 43 17t18 53q0 35 -18 51.5t-43 16.5t-42.5 -16.5t-17.5 -51.5q0 -36 17.5 -53
t42.5 -17zM296 -100q51 0 83.5 12.5t32.5 33.5q0 20 -20 25t-58 5h-50q-29 0 -46 1.5t-30 4.5q-13 -9 -19 -17t-6 -19q0 -24 31 -35t82 -11zM303 568q-48 0 -79 27.5t-31 72.5t31 73.5t79 28.5t79 -28.5t31 -73.5t-31 -72.5t-79 -27.5z" />
    <glyph glyph-name="uni0122" unicode="&#x122;" 
d="M345 -12q-63 0 -118.5 20.5t-97 62t-65.5 104t-24 145.5q0 82 24 146t65.5 107.5t97.5 66t119 22.5q66 0 114 -25.5t80 -58.5l-94 -106q-20 20 -42.5 31t-57.5 11q-27 0 -50.5 -13t-41 -37t-27.5 -59t-10 -79q0 -92 34 -141t104 -49q12 0 24 3t20 9v90h-81v140h234v-310
q-17 -15 -39.5 -29.5t-49.5 -25.5t-57 -18t-61 -7zM212 -244l-12 66q57 3 78.5 11t21.5 25q0 12 -13.5 20.5t-46.5 11.5l32 60q43 -3 71.5 -10t46 -17.5t25 -25t7.5 -33.5q0 -54 -55 -79.5t-155 -28.5z" />
    <glyph glyph-name="uni0123" unicode="&#x123;" 
d="M269 -206q-47 0 -87.5 6.5t-71.5 21.5t-48.5 38.5t-17.5 57.5q0 60 76 96v4q-21 14 -35.5 34t-14.5 52q0 26 17 51t43 43v4q-29 18 -48.5 51t-19.5 77q0 46 18 80.5t49 57t70.5 33.5t83.5 11q47 0 85 -12h202v-124h-90q5 -9 9.5 -23t4.5 -29q0 -44 -16 -75.5t-44.5 -51.5
t-67 -29.5t-83.5 -9.5q-29 0 -63 7q-9 -7 -12.5 -12.5t-3.5 -16.5q0 -17 18 -23.5t60 -6.5h85q100 0 154 -30.5t54 -99.5q0 -41 -21.5 -74.5t-61.5 -57.5t-96.5 -37t-126.5 -13zM283 260q25 0 43 17t18 53q0 35 -18 51.5t-43 16.5t-42.5 -16.5t-17.5 -51.5q0 -36 17.5 -53
t42.5 -17zM296 -100q51 0 83.5 12.5t32.5 33.5q0 20 -20 25t-58 5h-50q-29 0 -46 1.5t-30 4.5q-13 -9 -19 -17t-6 -19q0 -24 31 -35t82 -11zM351 566q-43 3 -71.5 10t-46 17.5t-25 25t-7.5 33.5q0 54 55 79.5t155 28.5l12 -66q-57 -3 -78.5 -11t-21.5 -25q0 -12 13.5 -20.5
t46.5 -11.5z" />
    <glyph glyph-name="Hcircumflex" unicode="&#x124;" 
d="M58 0v650h172v-242h140v242h172v-650h-172v258h-140v-258h-172zM196 680l-74 44l84 110h188l84 -110l-74 -44l-102 80h-4z" />
    <glyph glyph-name="hcircumflex" unicode="&#x125;" 
d="M64 0v696h172v-162l-10 -88h4q24 24 63 45t95 21q82 0 120 -55.5t38 -148.5v-308h-172v286q0 42 -12.5 61t-45.5 19q-24 0 -42 -10t-38 -28v-328h-172zM47 740l-74 44l84 110h188l84 -110l-74 -44l-102 80h-4z" />
    <glyph glyph-name="Hbar" unicode="&#x126;" 
d="M0 484v74l58 5v87h172v-86h140v86h172v-86h58v-80h-58v-484h-172v258h-140v-258h-172v484h-58zM230 408h140v76h-140v-76z" />
    <glyph glyph-name="hbar" unicode="&#x127;" 
d="M64 0v550h-64v74l64 5v67h172v-66h170v-80h-170v-36l-10 -88h4q24 24 63 45t95 21q82 0 120 -55.5t38 -148.5v-288h-172v266q0 42 -12.5 61t-45.5 19q-24 0 -42 -10t-38 -28v-308h-172z" />
    <glyph glyph-name="Itilde" unicode="&#x128;" 
d="M66 0v144h148v362h-148v144h468v-144h-148v-362h148v-144h-468zM370 686q-26 0 -46.5 8t-36.5 18t-28.5 18t-22.5 8q-12 0 -20.5 -8t-11.5 -34l-110 8q2 41 13.5 70t29.5 47t42 26.5t51 8.5q26 0 46.5 -8t36.5 -18t28 -18t23 -8q12 0 20.5 8t11.5 34l110 -8
q-2 -41 -13.5 -70t-29.5 -47t-42 -26.5t-51 -8.5z" />
    <glyph glyph-name="itilde" unicode="&#x129;" 
d="M264 0v366h-190v134h362v-500h-172zM408 572q-23 0 -41.5 8.5t-33.5 19t-27 19.5t-22 9q-12 0 -19.5 -9.5t-10.5 -36.5l-106 6q2 85 37 121.5t95 36.5q22 0 41 -9t34 -19.5t27 -19t22 -8.5q12 0 19.5 9.5t10.5 36.5l106 -6q-2 -85 -37 -121.5t-95 -36.5z" />
    <glyph glyph-name="Imacron" unicode="&#x12a;" 
d="M66 0v144h148v362h-148v144h468v-144h-148v-362h148v-144h-468zM142 716v108h316v-108h-316z" />
    <glyph glyph-name="imacron" unicode="&#x12b;" 
d="M264 0v366h-190v134h362v-500h-172zM190 588v108h308v-108h-308z" />
    <glyph glyph-name="Ibreve" unicode="&#x12c;" 
d="M66 0v144h148v362h-148v144h468v-144h-148v-362h148v-144h-468zM300 694q-77 0 -119.5 34t-50.5 106l92 16q7 -29 27.5 -43.5t50.5 -14.5t50.5 14.5t27.5 43.5l92 -16q-8 -72 -50.5 -106t-119.5 -34z" />
    <glyph glyph-name="ibreve" unicode="&#x12d;" 
d="M264 0v366h-190v134h362v-500h-172zM344 572q-88 0 -130 44.5t-44 115.5l96 16q5 -30 23.5 -50t54.5 -20t54.5 20t23.5 50l96 -16q-2 -71 -44 -115.5t-130 -44.5z" />
    <glyph glyph-name="Iogonek" unicode="&#x12e;" 
d="M306 -228q-51 0 -86.5 25.5t-35.5 72.5q0 25 8 45.5t20 37t25 28.5t24 19h-195v144h148v362h-148v144h468v-144h-148v-362h148v-144h-148q-44 -14 -61 -37t-17 -47q0 -18 12.5 -26t26.5 -8q10 0 19.5 4.5t15.5 9.5l38 -86q-21 -17 -53 -27.5t-61 -10.5z" />
    <glyph glyph-name="iogonek" unicode="&#x12f;" 
d="M350 -228q-25 0 -47.5 6.5t-39 19.5t-26 32t-9.5 44q0 24 7.5 43.5t20 35t28 27.5t30.5 20h-50v366h-190v134h362v-500q-53 -15 -73.5 -39t-20.5 -47q0 -21 15 -31.5t36 -10.5q11 0 21.5 3.5t21.5 8.5l34 -76q-23 -17 -57.5 -26.5t-62.5 -9.5zM344 568q-48 0 -79 27.5
t-31 72.5t31 73.5t79 28.5t79 -28.5t31 -73.5t-31 -72.5t-79 -27.5z" />
    <glyph glyph-name="Idotaccent" unicode="&#x130;" 
d="M66 0v144h148v362h-148v144h468v-144h-148v-362h148v-144h-468zM300 696q-45 0 -73.5 26t-28.5 68t28.5 68t73.5 26t73.5 -26t28.5 -68t-28.5 -68t-73.5 -26z" />
    <glyph glyph-name="dotlessi" unicode="&#x131;" 
d="M264 0v366h-190v134h362v-500h-172z" />
    <glyph glyph-name="IJ" unicode="&#x132;" 
d="M60 0v650h172v-650h-172zM340 -188q-38 0 -61 5t-41 11l30 126q13 -4 23 -6t21 -2q30 0 43 16.5t13 57.5v630h172v-624q0 -42 -9.5 -80.5t-32.5 -68.5t-61.5 -47.5t-96.5 -17.5z" />
    <glyph glyph-name="ij" unicode="&#x133;" 
d="M64 0v500h172v-500h-172zM150 562q-42 0 -69 24t-27 62t27 62t69 24t69 -24t27 -62t-27 -62t-69 -24zM352 -188q-35 0 -56 4t-38 10l30 126q11 -3 19 -4.5t17 -1.5q27 0 38.5 16.5t11.5 57.5v480h172v-474q0 -42 -9 -80.5t-31.5 -68.5t-60 -47.5t-93.5 -17.5zM460 562
q-42 0 -69 24t-27 62t27 62t69 24t69 -24t27 -62t-27 -62t-69 -24z" />
    <glyph glyph-name="Jcircumflex" unicode="&#x134;" 
d="M272 -12q-27 0 -56.5 5.5t-58.5 18t-56 33t-50 50.5l97 107q28 -32 58 -49t60 -17q21 0 37 4.5t27.5 16.5t17 32t5.5 51v266h-247v144h419v-424q0 -49 -13 -92t-43 -75.5t-78.5 -51.5t-118.5 -19zM226 680l-74 44l84 110h188l84 -110l-74 -44l-102 80h-4z" />
    <glyph glyph-name="jcircumflex" unicode="&#x135;" 
d="M195 -188q-49 0 -87 9.5t-71 24.5l49 122q32 -14 54.5 -18t42.5 -4q46 0 63.5 21.5t17.5 72.5v326h-190v134h362v-454q0 -46 -11 -88t-38.5 -74.5t-74 -52t-117.5 -19.5zM214 558l-64 60l106 128h176l106 -128l-64 -60l-128 84h-4z" />
    <glyph glyph-name="uni0136" unicode="&#x136;" 
d="M56 0v650h174v-242h4l160 242h190l-192 -263l208 -387h-190l-119 250l-61 -84v-166h-174zM212 -244l-12 66q57 3 78.5 11t21.5 25q0 12 -13.5 20.5t-46.5 11.5l32 60q43 -3 71.5 -10t46 -17.5t25 -25t7.5 -33.5q0 -54 -55 -79.5t-155 -28.5z" />
    <glyph glyph-name="uni0137" unicode="&#x137;" 
d="M64 0v696h172v-374h4l152 178h186l-186 -206l198 -294h-186l-110 186l-58 -64v-122h-172zM212 -244l-12 66q57 3 78.5 11t21.5 25q0 12 -13.5 20.5t-46.5 11.5l32 60q43 -3 71.5 -10t46 -17.5t25 -25t7.5 -33.5q0 -54 -55 -79.5t-155 -28.5z" />
    <glyph glyph-name="kgreenlandic" unicode="&#x138;" 
d="M64 0v500h172v-174h4l152 174h186l-185 -208l197 -292h-186l-109 178l-59 -58v-120h-172z" />
    <glyph glyph-name="Lacute" unicode="&#x139;" 
d="M96 0v650h172v-506h277v-144h-449zM155 674l-76 86l182 144l90 -110z" />
    <glyph glyph-name="lacute" unicode="&#x13a;" 
d="M391 -12q-50 0 -87.5 16t-63 44.5t-38 68.5t-12.5 89v356h-150v134h322v-496q0 -22 7 -36t17.5 -22.5t24 -12t26.5 -3.5q31 0 72 14l37 -126q-20 -6 -37.5 -11t-35.5 -8t-38 -5t-44 -2zM231 734l-76 86l182 144l90 -110z" />
    <glyph glyph-name="uni013B" unicode="&#x13b;" 
d="M96 0v650h172v-506h277v-144h-449zM222 -244l-12 66q57 3 78.5 11t21.5 25q0 12 -13.5 20.5t-46.5 11.5l32 60q43 -3 71.5 -10t46 -17.5t25 -25t7.5 -33.5q0 -54 -55 -79.5t-155 -28.5z" />
    <glyph glyph-name="uni013C" unicode="&#x13c;" 
d="M391 -12q-50 0 -87.5 16t-63 44.5t-38 68.5t-12.5 89v356h-150v134h322v-496q0 -22 7 -36t17.5 -22.5t24 -12t26.5 -3.5q31 0 72 14l37 -126q-20 -6 -37.5 -11t-35.5 -8t-38 -5t-44 -2zM252 -244l-12 66q57 3 78.5 11t21.5 25q0 12 -13.5 20.5t-46.5 11.5l32 60
q43 -3 71.5 -10t46 -17.5t25 -25t7.5 -33.5q0 -54 -55 -79.5t-155 -28.5z" />
    <glyph glyph-name="Lcaron" unicode="&#x13d;" 
d="M96 0v650h172v-506h277v-144h-449zM364 509l-6 276h152l-2 -104l-28 -172h-116z" />
    <glyph glyph-name="lcaron" unicode="&#x13e;" 
d="M391 -12q-50 0 -87.5 16t-63 44.5t-38 68.5t-12.5 89v356h-150v134h322v-496q0 -22 7 -36t17.5 -22.5t24 -12t26.5 -3.5q31 0 72 14l37 -126q-20 -6 -37.5 -11t-35.5 -8t-38 -5t-44 -2zM418 548l-6 276h152l-2 -104l-28 -172h-116z" />
    <glyph glyph-name="Ldot" unicode="&#x13f;" 
d="M96 0v650h172v-506h277v-144h-449zM478 263q-48 0 -79 27.5t-31 72.5t31 73.5t79 28.5t79 -28.5t31 -73.5t-31 -72.5t-79 -27.5z" />
    <glyph glyph-name="ldot" unicode="&#x140;" 
d="M338 -12q-50 0 -87.5 16t-63 44.5t-38 68.5t-12.5 89v356h-150v134h322v-496q0 -22 7 -36t17.5 -22.5t24 -12t26.5 -3.5q31 0 72 14l37 -126q-20 -6 -37.5 -11t-35.5 -8t-38 -5t-44 -2zM550 261q-48 0 -79 27.5t-31 72.5t31 73.5t79 28.5t79 -28.5t31 -73.5t-31 -72.5
t-79 -27.5z" />
    <glyph glyph-name="Lslash" unicode="&#x141;" 
d="M44 166l-58 102l110 63v319h172v-240l168 94l58 -102l-226 -125v-133h277v-144h-449v198z" />
    <glyph glyph-name="lslash" unicode="&#x142;" 
d="M391 -12q-50 0 -87.5 16t-63 44.5t-38 68.5t-12.5 89v51l-76 -43l-58 106l134 74v168h-150v134h322v-222l112 62l58 -106l-170 -92v-138q0 -22 7 -36t17.5 -22.5t24 -12t26.5 -3.5q31 0 72 14l37 -126q-20 -6 -37.5 -11t-35.5 -8t-38 -5t-44 -2z" />
    <glyph glyph-name="Nacute" unicode="&#x143;" 
d="M60 0v650h174l109 -290l53 -146h4q-3 26 -7 57t-8 63.5t-6.5 65t-2.5 62.5v188h164v-650h-174l-109 291l-53 145h-4q6 -56 15 -122t9 -126v-188h-164zM270 674l-76 86l182 144l90 -110z" />
    <glyph glyph-name="nacute" unicode="&#x144;" 
d="M64 0v500h140l12 -60h4q30 29 71 50.5t96 21.5q83 0 121 -55.5t38 -148.5v-308h-172v286q0 42 -12.5 61t-45.5 19q-24 0 -42 -10t-38 -28v-328h-172zM314 558l-84 84l158 188l116 -114z" />
    <glyph glyph-name="uni0145" unicode="&#x145;" 
d="M60 0v650h174l109 -290l53 -146h4q-3 26 -7 57t-8 63.5t-6.5 65t-2.5 62.5v188h164v-650h-174l-109 291l-53 145h-4q6 -56 15 -122t9 -126v-188h-164zM192 -244l-12 66q57 3 78.5 11t21.5 25q0 12 -13.5 20.5t-46.5 11.5l32 60q43 -3 71.5 -10t46 -17.5t25 -25t7.5 -33.5
q0 -54 -55 -79.5t-155 -28.5z" />
    <glyph glyph-name="uni0146" unicode="&#x146;" 
d="M64 0v500h140l12 -60h4q30 29 71 50.5t96 21.5q83 0 121 -55.5t38 -148.5v-308h-172v286q0 42 -12.5 61t-45.5 19q-24 0 -42 -10t-38 -28v-328h-172zM196 -244l-12 66q57 3 78.5 11t21.5 25q0 12 -13.5 20.5t-46.5 11.5l32 60q43 -3 71.5 -10t46 -17.5t25 -25t7.5 -33.5
q0 -54 -55 -79.5t-155 -28.5z" />
    <glyph glyph-name="Ncaron" unicode="&#x147;" 
d="M60 0v650h174l109 -290l53 -146h4q-3 26 -7 57t-8 63.5t-6.5 65t-2.5 62.5v188h164v-650h-174l-109 291l-53 145h-4q6 -56 15 -122t9 -126v-188h-164zM216 700l-84 110l74 44l102 -80h4l102 80l74 -44l-84 -110h-188z" />
    <glyph glyph-name="ncaron" unicode="&#x148;" 
d="M64 0v500h140l12 -60h4q30 29 71 50.5t96 21.5q83 0 121 -55.5t38 -148.5v-308h-172v286q0 42 -12.5 61t-45.5 19q-24 0 -42 -10t-38 -28v-328h-172zM226 578l-106 128l64 60l128 -84h4l128 84l64 -60l-106 -128h-176z" />
    <glyph glyph-name="napostrophe" unicode="&#x149;" 
d="M224 0v500h140l12 -60h4q27 29 61 50.5t82 21.5q73 0 106 -55.5t33 -148.5v-308h-172v286q0 42 -8.5 61t-29.5 19q-18 0 -29.5 -10t-26.5 -28v-328h-172zM-13 267l-43 89q108 44 115 133q-5 -1 -9 -1.5t-9 -0.5q-44 0 -71.5 27t-27.5 72q0 51 29.5 80.5t74.5 29.5
q63 0 95.5 -46t32.5 -129q0 -85 -45.5 -148.5t-141.5 -105.5z" />
    <glyph glyph-name="Eng" unicode="&#x14a;" 
d="M354 -12q-21 0 -45.5 4.5t-38.5 13.5l36 148q5 -2 12 -4t16 -2q13 0 22 7t15 26.5t8.5 55t2.5 93.5q0 99 -17.5 141.5t-50.5 42.5q-23 0 -44.5 -15.5t-39.5 -50.5v-448h-172v650h166v-56q29 35 61 51.5t74 16.5q43 0 79.5 -18t63 -57.5t41.5 -102.5t15 -154
q0 -84 -10 -148t-33.5 -107t-62.5 -65t-98 -22z" />
    <glyph glyph-name="eng" unicode="&#x14b;" 
d="M362 -188q-33 0 -53.5 4t-36.5 10l30 126q10 -3 17 -4.5t15 -1.5q20 0 30 16.5t10 57.5v266q0 42 -12.5 61t-45.5 19q-24 0 -42 -10t-38 -28v-328h-172v500h140l12 -60h4q30 29 71 50.5t96 21.5q83 0 121 -55.5t38 -148.5v-282q0 -42 -9.5 -80.5t-31 -68.5t-56.5 -47.5
t-87 -17.5z" />
    <glyph glyph-name="Omacron" unicode="&#x14c;" 
d="M300 -12q-59 0 -108 21.5t-84 64t-54.5 106t-19.5 148.5q0 82 19.5 144.5t54.5 104.5t84 63.5t108 21.5t108 -21.5t84 -63.5t54.5 -104.5t19.5 -144.5q0 -85 -19.5 -148.5t-54.5 -106t-84 -64t-108 -21.5zM300 136q42 0 66 47t24 145q0 94 -24 140t-66 46t-66 -46
t-24 -140q0 -98 24 -145t66 -47zM142 716v108h316v-108h-316z" />
    <glyph glyph-name="omacron" unicode="&#x14d;" 
d="M300 -12q-50 0 -96.5 17.5t-82.5 51t-57.5 82.5t-21.5 111t21.5 111t57.5 82.5t82.5 51t96.5 17.5q49 0 95.5 -17.5t82.5 -51t58 -82.5t22 -111t-22 -111t-58 -82.5t-82.5 -51t-95.5 -17.5zM300 126q44 0 63 33.5t19 90.5t-19 90.5t-63 33.5t-63 -33.5t-19 -90.5
t19 -90.5t63 -33.5zM146 588v108h308v-108h-308z" />
    <glyph glyph-name="Obreve" unicode="&#x14e;" 
d="M300 -12q-59 0 -108 21.5t-84 64t-54.5 106t-19.5 148.5q0 82 19.5 144.5t54.5 104.5t84 63.5t108 21.5t108 -21.5t84 -63.5t54.5 -104.5t19.5 -144.5q0 -85 -19.5 -148.5t-54.5 -106t-84 -64t-108 -21.5zM300 136q42 0 66 47t24 145q0 94 -24 140t-66 46t-66 -46
t-24 -140q0 -98 24 -145t66 -47zM300 694q-77 0 -119.5 34t-50.5 106l92 16q7 -29 27.5 -43.5t50.5 -14.5t50.5 14.5t27.5 43.5l92 -16q-8 -72 -50.5 -106t-119.5 -34z" />
    <glyph glyph-name="obreve" unicode="&#x14f;" 
d="M300 -12q-50 0 -96.5 17.5t-82.5 51t-57.5 82.5t-21.5 111t21.5 111t57.5 82.5t82.5 51t96.5 17.5q49 0 95.5 -17.5t82.5 -51t58 -82.5t22 -111t-22 -111t-58 -82.5t-82.5 -51t-95.5 -17.5zM300 126q44 0 63 33.5t19 90.5t-19 90.5t-63 33.5t-63 -33.5t-19 -90.5
t19 -90.5t63 -33.5zM300 572q-88 0 -130 44.5t-44 115.5l96 16q5 -30 23.5 -50t54.5 -20t54.5 20t23.5 50l96 -16q-2 -71 -44 -115.5t-130 -44.5z" />
    <glyph glyph-name="Ohungarumlaut" unicode="&#x150;" 
d="M300 -12q-59 0 -108 21.5t-84 64t-54.5 106t-19.5 148.5q0 82 19.5 144.5t54.5 104.5t84 63.5t108 21.5t108 -21.5t84 -63.5t54.5 -104.5t19.5 -144.5q0 -85 -19.5 -148.5t-54.5 -106t-84 -64t-108 -21.5zM300 136q42 0 66 47t24 145q0 94 -24 140t-66 46t-66 -46
t-24 -140q0 -98 24 -145t66 -47zM236 690l-84 40l104 164l108 -60zM434 690l-84 40l104 164l108 -60z" />
    <glyph glyph-name="ohungarumlaut" unicode="&#x151;" 
d="M300 -12q-50 0 -96.5 17.5t-82.5 51t-57.5 82.5t-21.5 111t21.5 111t57.5 82.5t82.5 51t96.5 17.5q49 0 95.5 -17.5t82.5 -51t58 -82.5t22 -111t-22 -111t-58 -82.5t-82.5 -51t-95.5 -17.5zM300 126q44 0 63 33.5t19 90.5t-19 90.5t-63 33.5t-63 -33.5t-19 -90.5
t19 -90.5t63 -33.5zM248 564l-90 40l88 184l114 -50zM438 564l-90 40l88 184l114 -50z" />
    <glyph glyph-name="OE" unicode="&#x152;" 
d="M284 0q-57 0 -106 19t-85.5 59t-57.5 102t-21 148t22 147t59.5 100t88.5 57t110 18h292v-144h-146v-102h110v-144h-110v-116h156v-144h-312zM274 138h14v374h-14q-18 0 -33 -7t-26.5 -27t-18 -56t-6.5 -94t6.5 -95t18 -58t26.5 -29t33 -8z" />
    <glyph glyph-name="oe" unicode="&#x153;" 
d="M212 126q20 0 29.5 33.5t9.5 90.5t-9.5 90.5t-29.5 33.5q-25 0 -35.5 -33.5t-10.5 -90.5t10.5 -90.5t35.5 -33.5zM198 -12q-38 0 -72 17.5t-59.5 51t-40 82.5t-14.5 111t15 111t41 82.5t60.5 51t73.5 17.5q36 0 65.5 -18t49.5 -61q10 21 23.5 36t29 24.5t31.5 14t31 4.5
q39 0 68.5 -19.5t50 -53t30.5 -78.5t10 -95q0 -23 -2.5 -41t-4.5 -27h-218q10 -40 32.5 -58t49.5 -18q17 0 33.5 5t36.5 19l58 -110q-30 -24 -67.5 -36t-66.5 -12q-15 0 -33 3.5t-35 12t-32 22.5t-25 35q-20 -42 -50 -57.5t-69 -15.5zM416 382q-16 0 -31 -18t-22 -62h95
q-2 45 -12 62.5t-30 17.5z" />
    <glyph glyph-name="Racute" unicode="&#x154;" 
d="M58 0v650h242q52 0 99.5 -10t83 -34t56.5 -64.5t21 -101.5q0 -70 -28.5 -116t-76.5 -72l141 -252h-192l-112 218h-62v-218h-172zM230 354h58q104 0 104 86q0 42 -26.5 58t-77.5 16h-58v-160zM260 674l-76 86l182 144l90 -110z" />
    <glyph glyph-name="racute" unicode="&#x155;" 
d="M104 0v500h141l13 -106h4q36 62 87 90t108 28q35 0 54.5 -5.5t40.5 -14.5l-34 -144q-23 7 -41.5 10.5t-45.5 3.5q-43 0 -85 -25.5t-70 -88.5v-248h-172zM350 558l-84 84l158 188l116 -114z" />
    <glyph glyph-name="uni0156" unicode="&#x156;" 
d="M58 0v650h242q52 0 99.5 -10t83 -34t56.5 -64.5t21 -101.5q0 -70 -28.5 -116t-76.5 -72l141 -252h-192l-112 218h-62v-218h-172zM230 354h58q104 0 104 86q0 42 -26.5 58t-77.5 16h-58v-160zM212 -244l-12 66q57 3 78.5 11t21.5 25q0 12 -13.5 20.5t-46.5 11.5l32 60
q43 -3 71.5 -10t46 -17.5t25 -25t7.5 -33.5q0 -54 -55 -79.5t-155 -28.5z" />
    <glyph glyph-name="uni0157" unicode="&#x157;" 
d="M104 0v500h141l13 -106h4q36 62 87 90t108 28q35 0 54.5 -5.5t40.5 -14.5l-34 -144q-23 7 -41.5 10.5t-45.5 3.5q-43 0 -85 -25.5t-70 -88.5v-248h-172zM87 -244l-12 66q57 3 78.5 11t21.5 25q0 12 -13.5 20.5t-46.5 11.5l32 60q43 -3 71.5 -10t46 -17.5t25 -25
t7.5 -33.5q0 -54 -55 -79.5t-155 -28.5z" />
    <glyph glyph-name="Rcaron" unicode="&#x158;" 
d="M58 0v650h242q52 0 99.5 -10t83 -34t56.5 -64.5t21 -101.5q0 -70 -28.5 -116t-76.5 -72l141 -252h-192l-112 218h-62v-218h-172zM230 354h58q104 0 104 86q0 42 -26.5 58t-77.5 16h-58v-160zM206 700l-84 110l74 44l102 -80h4l102 80l74 -44l-84 -110h-188z" />
    <glyph glyph-name="rcaron" unicode="&#x159;" 
d="M104 0v500h141l13 -106h4q36 62 87 90t108 28q35 0 54.5 -5.5t40.5 -14.5l-34 -144q-23 7 -41.5 10.5t-45.5 3.5q-43 0 -85 -25.5t-70 -88.5v-248h-172zM262 578l-106 128l64 60l128 -84h4l128 84l64 -60l-106 -128h-176z" />
    <glyph glyph-name="Sacute" unicode="&#x15a;" 
d="M296 -12q-64 0 -130.5 22.5t-121.5 70.5l98 118q37 -28 79 -45.5t87 -17.5q39 0 55.5 11t16.5 27q0 14 -6.5 23.5t-18.5 17t-29.5 14.5t-39.5 16l-81 34q-28 10 -53 26.5t-43.5 39t-29.5 51.5t-11 64q0 42 18 78.5t50.5 64t78 43.5t101.5 16q58 0 116 -21t106 -66
l-86 -108q-35 23 -67.5 35t-78.5 12q-29 0 -46.5 -10.5t-17.5 -33.5q0 -11 7 -19.5t20 -15.5t32 -14t43 -16l75 -31q66 -24 101.5 -67t35.5 -111q0 -41 -17 -79t-50 -66.5t-81.5 -45.5t-111.5 -17zM280 674l-76 86l182 144l90 -110z" />
    <glyph glyph-name="sacute" unicode="&#x15b;" 
d="M290 -12q-65 0 -130.5 22t-113.5 54l72 106q48 -28 98 -42t98 -14q33 0 47.5 8t14.5 22q0 9 -5.5 15t-18 10.5t-34 9t-52.5 11.5q-52 11 -87.5 26.5t-58 35.5t-32.5 44.5t-10 53.5q0 37 17 67t48 51t75 32.5t98 11.5q71 0 126.5 -22.5t95.5 -47.5l-76 -102
q-39 23 -81 34.5t-81 11.5q-24 0 -38 -7t-14 -21q0 -8 5.5 -13t17.5 -9.5t32 -8.5t49 -11q56 -13 93.5 -28t60 -34.5t31.5 -44t9 -55.5q0 -35 -16.5 -65.5t-49 -53t-80 -35t-110.5 -12.5zM316 558l-84 84l158 188l116 -114z" />
    <glyph glyph-name="Scircumflex" unicode="&#x15c;" 
d="M296 -12q-64 0 -130.5 22.5t-121.5 70.5l98 118q37 -28 79 -45.5t87 -17.5q39 0 55.5 11t16.5 27q0 14 -6.5 23.5t-18.5 17t-29.5 14.5t-39.5 16l-81 34q-28 10 -53 26.5t-43.5 39t-29.5 51.5t-11 64q0 42 18 78.5t50.5 64t78 43.5t101.5 16q58 0 116 -21t106 -66
l-86 -108q-35 23 -67.5 35t-78.5 12q-29 0 -46.5 -10.5t-17.5 -33.5q0 -11 7 -19.5t20 -15.5t32 -14t43 -16l75 -31q66 -24 101.5 -67t35.5 -111q0 -41 -17 -79t-50 -66.5t-81.5 -45.5t-111.5 -17zM216 680l-74 44l84 110h188l84 -110l-74 -44l-102 80h-4z" />
    <glyph glyph-name="scircumflex" unicode="&#x15d;" 
d="M290 -12q-65 0 -130.5 22t-113.5 54l72 106q48 -28 98 -42t98 -14q33 0 47.5 8t14.5 22q0 9 -5.5 15t-18 10.5t-34 9t-52.5 11.5q-52 11 -87.5 26.5t-58 35.5t-32.5 44.5t-10 53.5q0 37 17 67t48 51t75 32.5t98 11.5q71 0 126.5 -22.5t95.5 -47.5l-76 -102
q-39 23 -81 34.5t-81 11.5q-24 0 -38 -7t-14 -21q0 -8 5.5 -13t17.5 -9.5t32 -8.5t49 -11q56 -13 93.5 -28t60 -34.5t31.5 -44t9 -55.5q0 -35 -16.5 -65.5t-49 -53t-80 -35t-110.5 -12.5zM186 558l-64 60l106 128h176l106 -128l-64 -60l-128 84h-4z" />
    <glyph glyph-name="uni015E" unicode="&#x15e;" 
d="M296 -12q-64 0 -130.5 22.5t-121.5 70.5l98 118q37 -28 79 -45.5t87 -17.5q39 0 55.5 11t16.5 27q0 14 -6.5 23.5t-18.5 17t-29.5 14.5t-39.5 16l-81 34q-28 10 -53 26.5t-43.5 39t-29.5 51.5t-11 64q0 42 18 78.5t50.5 64t78 43.5t101.5 16q58 0 116 -21t106 -66
l-86 -108q-35 23 -67.5 35t-78.5 12q-29 0 -46.5 -10.5t-17.5 -33.5q0 -11 7 -19.5t20 -15.5t32 -14t43 -16l75 -31q66 -24 101.5 -67t35.5 -111q0 -41 -17 -79t-50 -66.5t-81.5 -45.5t-111.5 -17zM192 -244l-12 66q57 3 78.5 12t21.5 30q0 13 -15 23.5t-61 16.5l54 108h98
l-32 -72q39 -9 58.5 -26.5t19.5 -49.5q0 -54 -55 -79.5t-155 -28.5z" />
    <glyph glyph-name="uni015F" unicode="&#x15f;" 
d="M290 -12q-65 0 -130.5 22t-113.5 54l72 106q48 -28 98 -42t98 -14q33 0 47.5 8t14.5 22q0 9 -5.5 15t-18 10.5t-34 9t-52.5 11.5q-52 11 -87.5 26.5t-58 35.5t-32.5 44.5t-10 53.5q0 37 17 67t48 51t75 32.5t98 11.5q71 0 126.5 -22.5t95.5 -47.5l-76 -102
q-39 23 -81 34.5t-81 11.5q-24 0 -38 -7t-14 -21q0 -8 5.5 -13t17.5 -9.5t32 -8.5t49 -11q56 -13 93.5 -28t60 -34.5t31.5 -44t9 -55.5q0 -35 -16.5 -65.5t-49 -53t-80 -35t-110.5 -12.5zM202 -244l-12 66q57 3 78.5 12t21.5 30q0 13 -15 23.5t-61 16.5l54 108h98l-32 -72
q39 -9 58.5 -26.5t19.5 -49.5q0 -54 -55 -79.5t-155 -28.5z" />
    <glyph glyph-name="Scaron" unicode="&#x160;" 
d="M296 -12q-64 0 -130.5 22.5t-121.5 70.5l98 118q37 -28 79 -45.5t87 -17.5q39 0 55.5 11t16.5 27q0 14 -6.5 23.5t-18.5 17t-29.5 14.5t-39.5 16l-81 34q-28 10 -53 26.5t-43.5 39t-29.5 51.5t-11 64q0 42 18 78.5t50.5 64t78 43.5t101.5 16q58 0 116 -21t106 -66
l-86 -108q-35 23 -67.5 35t-78.5 12q-29 0 -46.5 -10.5t-17.5 -33.5q0 -11 7 -19.5t20 -15.5t32 -14t43 -16l75 -31q66 -24 101.5 -67t35.5 -111q0 -41 -17 -79t-50 -66.5t-81.5 -45.5t-111.5 -17zM226 700l-84 110l74 44l102 -80h4l102 80l74 -44l-84 -110h-188z" />
    <glyph glyph-name="scaron" unicode="&#x161;" 
d="M290 -12q-65 0 -130.5 22t-113.5 54l72 106q48 -28 98 -42t98 -14q33 0 47.5 8t14.5 22q0 9 -5.5 15t-18 10.5t-34 9t-52.5 11.5q-52 11 -87.5 26.5t-58 35.5t-32.5 44.5t-10 53.5q0 37 17 67t48 51t75 32.5t98 11.5q71 0 126.5 -22.5t95.5 -47.5l-76 -102
q-39 23 -81 34.5t-81 11.5q-24 0 -38 -7t-14 -21q0 -8 5.5 -13t17.5 -9.5t32 -8.5t49 -11q56 -13 93.5 -28t60 -34.5t31.5 -44t9 -55.5q0 -35 -16.5 -65.5t-49 -53t-80 -35t-110.5 -12.5zM228 578l-106 128l64 60l128 -84h4l128 84l64 -60l-106 -128h-176z" />
    <glyph glyph-name="uni0162" unicode="&#x162;" 
d="M214 0v506h-187v144h546v-144h-187v-506h-172zM192 -244l-12 66q57 3 78.5 12t21.5 30q0 13 -15 23.5t-61 16.5l54 108h98l-32 -72q39 -9 58.5 -26.5t19.5 -49.5q0 -54 -55 -79.5t-155 -28.5z" />
    <glyph glyph-name="uni0163" unicode="&#x163;" 
d="M386 -12q-62 0 -104.5 16t-69 45.5t-38.5 71t-12 91.5v154h-120v128l128 6l22 150h142v-150h198v-134h-198v-151q0 -54 24.5 -73.5t72.5 -19.5q26 0 48.5 4.5t42.5 11.5l30 -124q-33 -9 -74 -17.5t-92 -8.5zM262 -244l-12 66q57 3 78.5 12t21.5 30q0 13 -15 23.5
t-61 16.5l54 108h98l-32 -72q39 -9 58.5 -26.5t19.5 -49.5q0 -54 -55 -79.5t-155 -28.5z" />
    <glyph glyph-name="Tcaron" unicode="&#x164;" 
d="M214 0v506h-187v144h546v-144h-187v-506h-172zM206 700l-84 110l74 44l102 -80h4l102 80l74 -44l-84 -110h-188z" />
    <glyph glyph-name="tcaron" unicode="&#x165;" 
d="M386 -12q-62 0 -104.5 16t-69 45.5t-38.5 71t-12 91.5v154h-120v128l128 6l22 150h142v-150h198v-134h-198v-151q0 -54 24.5 -73.5t72.5 -19.5q26 0 48.5 4.5t42.5 11.5l30 -124q-33 -9 -74 -17.5t-92 -8.5zM378 548l-6 276h152l-2 -104l-28 -172h-116z" />
    <glyph glyph-name="Tbar" unicode="&#x166;" 
d="M84 274v74l96 6h34v152h-187v144h546v-144h-187v-152h130v-80h-130v-274h-172v274h-130z" />
    <glyph glyph-name="tbar" unicode="&#x167;" 
d="M42 216v74l120 5v71h-120v128l128 6l22 150h142v-150h198v-134h-198v-70h178v-80h-178v-1q0 -54 24.5 -73.5t72.5 -19.5q26 0 48.5 4.5t42.5 11.5l30 -124q-33 -9 -74 -17.5t-92 -8.5q-62 0 -104.5 16t-69 45.5t-38.5 71t-12 91.5v4h-120z" />
    <glyph glyph-name="Utilde" unicode="&#x168;" 
d="M302 -12q-64 0 -110 18.5t-76 53t-44 83t-14 109.5v398h172v-418q0 -42 15.5 -69t56.5 -27q42 0 58 27t16 69v418h166v-398q0 -61 -13.5 -109.5t-42.5 -83t-74.5 -53t-109.5 -18.5zM370 686q-26 0 -46.5 8t-36.5 18t-28.5 18t-22.5 8q-12 0 -20.5 -8t-11.5 -34l-110 8
q2 41 13.5 70t29.5 47t42 26.5t51 8.5q26 0 46.5 -8t36.5 -18t28 -18t23 -8q12 0 20.5 8t11.5 34l110 -8q-2 -41 -13.5 -70t-29.5 -47t-42 -26.5t-51 -8.5z" />
    <glyph glyph-name="utilde" unicode="&#x169;" 
d="M214 -12q-84 0 -121 55.5t-37 148.5v308h172v-286q0 -42 11.5 -61t45.5 -19q22 0 38.5 8.5t36.5 35.5v322h172v-500h-140l-12 66h-4q-32 -36 -70.5 -57t-91.5 -21zM361 572q-23 0 -41.5 8.5t-33.5 19t-27 19.5t-22 9q-12 0 -19.5 -9.5t-10.5 -36.5l-106 6q2 85 37 121.5
t95 36.5q22 0 41 -9t34 -19.5t27 -19t22 -8.5q12 0 19.5 9.5t10.5 36.5l106 -6q-2 -85 -37 -121.5t-95 -36.5z" />
    <glyph glyph-name="Umacron" unicode="&#x16a;" 
d="M302 -12q-64 0 -110 18.5t-76 53t-44 83t-14 109.5v398h172v-418q0 -42 15.5 -69t56.5 -27q42 0 58 27t16 69v418h166v-398q0 -61 -13.5 -109.5t-42.5 -83t-74.5 -53t-109.5 -18.5zM142 716v108h316v-108h-316z" />
    <glyph glyph-name="umacron" unicode="&#x16b;" 
d="M214 -12q-84 0 -121 55.5t-37 148.5v308h172v-286q0 -42 11.5 -61t45.5 -19q22 0 38.5 8.5t36.5 35.5v322h172v-500h-140l-12 66h-4q-32 -36 -70.5 -57t-91.5 -21zM143 588v108h308v-108h-308z" />
    <glyph glyph-name="Ubreve" unicode="&#x16c;" 
d="M302 -12q-64 0 -110 18.5t-76 53t-44 83t-14 109.5v398h172v-418q0 -42 15.5 -69t56.5 -27q42 0 58 27t16 69v418h166v-398q0 -61 -13.5 -109.5t-42.5 -83t-74.5 -53t-109.5 -18.5zM300 694q-77 0 -119.5 34t-50.5 106l92 16q7 -29 27.5 -43.5t50.5 -14.5t50.5 14.5
t27.5 43.5l92 -16q-8 -72 -50.5 -106t-119.5 -34z" />
    <glyph glyph-name="ubreve" unicode="&#x16d;" 
d="M214 -12q-84 0 -121 55.5t-37 148.5v308h172v-286q0 -42 11.5 -61t45.5 -19q22 0 38.5 8.5t36.5 35.5v322h172v-500h-140l-12 66h-4q-32 -36 -70.5 -57t-91.5 -21zM297 572q-88 0 -130 44.5t-44 115.5l96 16q5 -30 23.5 -50t54.5 -20t54.5 20t23.5 50l96 -16
q-2 -71 -44 -115.5t-130 -44.5z" />
    <glyph glyph-name="Uring" unicode="&#x16e;" 
d="M302 -12q-64 0 -110 18.5t-76 53t-44 83t-14 109.5v398h172v-418q0 -42 15.5 -69t56.5 -27q42 0 58 27t16 69v418h166v-398q0 -61 -13.5 -109.5t-42.5 -83t-74.5 -53t-109.5 -18.5zM300 696q-54 0 -87 27.5t-33 74.5t33 74.5t87 27.5t87 -27.5t33 -74.5t-33 -74.5
t-87 -27.5zM300 758q16 0 27 11t11 29t-11 29t-27 11t-27 -11t-11 -29t11 -29t27 -11z" />
    <glyph glyph-name="uring" unicode="&#x16f;" 
d="M214 -12q-84 0 -121 55.5t-37 148.5v308h172v-286q0 -42 11.5 -61t45.5 -19q22 0 38.5 8.5t36.5 35.5v322h172v-500h-140l-12 66h-4q-32 -36 -70.5 -57t-91.5 -21zM297 568q-71 0 -105.5 31t-34.5 75t34.5 75t105.5 31t105.5 -31t34.5 -75t-34.5 -75t-105.5 -31zM297 630
q16 0 27 12t11 32t-11 32t-27 12t-27 -12t-11 -32t11 -32t27 -12z" />
    <glyph glyph-name="Uhungarumlaut" unicode="&#x170;" 
d="M302 -12q-64 0 -110 18.5t-76 53t-44 83t-14 109.5v398h172v-418q0 -42 15.5 -69t56.5 -27q42 0 58 27t16 69v418h166v-398q0 -61 -13.5 -109.5t-42.5 -83t-74.5 -53t-109.5 -18.5zM236 690l-84 40l104 164l108 -60zM434 690l-84 40l104 164l108 -60z" />
    <glyph glyph-name="uhungarumlaut" unicode="&#x171;" 
d="M214 -12q-84 0 -121 55.5t-37 148.5v308h172v-286q0 -42 11.5 -61t45.5 -19q22 0 38.5 8.5t36.5 35.5v322h172v-500h-140l-12 66h-4q-32 -36 -70.5 -57t-91.5 -21zM245 564l-90 40l88 184l114 -50zM435 564l-90 40l88 184l114 -50z" />
    <glyph glyph-name="Uogonek" unicode="&#x172;" 
d="M324 -228q-51 0 -86.5 25.5t-35.5 72.5q0 24 8 44t18.5 35t21.5 25.5t16 15.5q-106 9 -157 77.5t-51 184.5v398h172v-418q0 -42 15.5 -69t56.5 -27q42 0 58 27t16 69v418h166v-398q0 -90 -30 -150.5t-94 -91.5q-30 -15 -48 -27.5t-28 -24t-13 -22t-3 -20.5
q0 -18 12.5 -26t27.5 -8q9 0 18 4.5t16 9.5l38 -86q-21 -17 -53 -27.5t-61 -10.5z" />
    <glyph glyph-name="uogonek" unicode="&#x173;" 
d="M432 -228q-25 0 -47.5 6.5t-39 19.5t-26 32t-9.5 44q0 24 8.5 43.5t21 34.5t27.5 26t27 18l-14 70h-4q-32 -36 -70.5 -57t-91.5 -21q-84 0 -121 55.5t-37 148.5v308h172v-286q0 -42 11.5 -61t45.5 -19q22 0 38.5 8.5t36.5 35.5v322h172v-500q-59 -14 -83.5 -38.5
t-24.5 -47.5q0 -21 15.5 -31.5t34.5 -10.5q12 0 24 3.5t20 8.5l34 -76q-23 -17 -57.5 -26.5t-62.5 -9.5z" />
    <glyph glyph-name="Wcircumflex" unicode="&#x174;" 
d="M83 0l-81 650h176l8 -322v-168h4q6 42 15 84t17 84l36 158h100l33 -158q7 -40 16 -82t16 -86h4v168l8 322h164l-75 -650h-178l-29 178q-5 32 -9.5 65t-5.5 62h-3q-2 -29 -6 -62t-9 -65l-27 -178h-174zM196 680l-74 44l84 110h188l84 -110l-74 -44l-102 80h-4z" />
    <glyph glyph-name="wcircumflex" unicode="&#x175;" 
d="M74 0l-72 500h166l20 -210q4 -38 6.5 -75.5t7.5 -76.5h3q4 39 8.5 77.5t12.5 74.5l20 130h116l22 -130q7 -38 12.5 -75.5t10.5 -76.5h4q5 39 6.5 76.5t4.5 75.5l16 210h160l-66 -500h-198l-16 134q-5 35 -8.5 70.5t-7.5 77.5h-4q-2 -26 -5 -59.5t-9 -88.5l-16 -134h-194z
M170 558l-64 60l106 128h176l106 -128l-64 -60l-128 84h-4z" />
    <glyph glyph-name="Ycircumflex" unicode="&#x176;" 
d="M214 0v215l-206 435h184l54 -142q13 -38 26 -73.5t27 -74.5h4q14 39 27.5 74.5t27.5 73.5l54 142h180l-206 -435v-215h-172zM196 680l-74 44l84 110h188l84 -110l-74 -44l-102 80h-4z" />
    <glyph glyph-name="ycircumflex" unicode="&#x177;" 
d="M147 -188q-23 0 -43 2.5t-37 7.5l30 130q19 -6 36 -6q40 0 61.5 13.5t31.5 36.5l8 22l-210 482h170l70 -192q13 -36 23.5 -73.5t21.5 -78.5h4q9 38 20.5 76t22.5 76l60 192h162l-188 -492q-20 -51 -42 -88t-50.5 -61t-65 -35.5t-85.5 -11.5zM180 558l-64 60l106 128h176
l106 -128l-64 -60l-128 84h-4z" />
    <glyph glyph-name="Ydieresis" unicode="&#x178;" 
d="M214 0v215l-206 435h184l54 -142q13 -38 26 -73.5t27 -74.5h4q14 39 27.5 74.5t27.5 73.5l54 142h180l-206 -435v-215h-172zM182 694q-36 0 -59 23.5t-23 58.5t23 58.5t59 23.5t59 -23.5t23 -58.5t-23 -58.5t-59 -23.5zM418 694q-36 0 -59 23.5t-23 58.5t23 58.5t59 23.5
t59 -23.5t23 -58.5t-23 -58.5t-59 -23.5z" />
    <glyph glyph-name="Zacute" unicode="&#x179;" 
d="M53 0v104l281 402h-254v144h467v-104l-281 -402h284v-144h-497zM280 674l-76 86l182 144l90 -110z" />
    <glyph glyph-name="zacute" unicode="&#x17a;" 
d="M70 0v92l230 274h-202v134h440v-92l-232 -274h238v-134h-474zM330 558l-84 84l158 188l116 -114z" />
    <glyph glyph-name="Zdotaccent" unicode="&#x17b;" 
d="M53 0v104l281 402h-254v144h467v-104l-281 -402h284v-144h-497zM320 696q-45 0 -73.5 26t-28.5 68t28.5 68t73.5 26t73.5 -26t28.5 -68t-28.5 -68t-73.5 -26z" />
    <glyph glyph-name="zdotaccent" unicode="&#x17c;" 
d="M70 0v92l230 274h-202v134h440v-92l-232 -274h238v-134h-474zM330 568q-48 0 -79 27.5t-31 72.5t31 73.5t79 28.5t79 -28.5t31 -73.5t-31 -72.5t-79 -27.5z" />
    <glyph glyph-name="Zcaron" unicode="&#x17d;" 
d="M53 0v104l281 402h-254v144h467v-104l-281 -402h284v-144h-497zM226 700l-84 110l74 44l102 -80h4l102 80l74 -44l-84 -110h-188z" />
    <glyph glyph-name="zcaron" unicode="&#x17e;" 
d="M70 0v92l230 274h-202v134h440v-92l-232 -274h238v-134h-474zM242 578l-106 128l64 60l128 -84h4l128 84l64 -60l-106 -128h-176z" />
    <glyph glyph-name="longs" unicode="&#x17f;" 
d="M202 0v366h-128v128l128 6v2q0 42 13 79.5t41.5 65.5t72 44.5t105.5 16.5q45 0 84.5 -8.5t69.5 -17.5l-32 -126q-21 8 -47 13t-53 5q-41 0 -61.5 -16t-20.5 -56v-502h-172z" />
    <glyph glyph-name="uni0180" unicode="&#x180;" 
d="M345 -12q-34 0 -67 16.5t-62 49.5h-4l-14 -54h-134v550h-64v74l64 5v67h172l-1 -66h171v-80h-173l-1 -42l-2 -66h4q26 24 59 37t66 13q45 0 82 -17.5t63 -49t40 -76.5t14 -100q0 -63 -18 -111.5t-47.5 -81.5t-68 -50.5t-79.5 -17.5zM304 128q16 0 30 6t24.5 19.5t17 36.5
t6.5 56q0 57 -18.5 81.5t-55.5 24.5q-20 0 -37 -8t-35 -28v-164q16 -14 33.5 -19t34.5 -5z" />
    <glyph glyph-name="uni018A" unicode="&#x18a;" 
d="M180 0v516q-31 -11 -43.5 -32t-12.5 -48q0 -29 11 -47t33 -31l-60 -108q-53 26 -81.5 67.5t-28.5 108.5q0 52 16 95t50.5 74.5t88.5 49t131 17.5q70 0 126 -19t95 -59t60 -102t21 -148q0 -89 -20.5 -152t-56.5 -103.5t-85.5 -59.5t-107.5 -19h-136zM332 138h10
q18 0 34 8.5t28 30.5t19 60t7 97q0 52 -6.5 87t-19 56.5t-31 32t-41.5 13.5v-385z" />
    <glyph glyph-name="uni018F" unicode="&#x18f;" 
d="M304 -12q-56 0 -103 22t-81.5 64.5t-54 105t-19.5 142.5q0 14 1 28.5t3 29.5h342q-8 73 -34.5 103.5t-73.5 30.5q-32 0 -57 -12.5t-43 -29.5l-78 118q35 32 82 52t112 20q58 0 107 -22.5t83.5 -65.5t54 -105.5t19.5 -142.5t-19.5 -143t-54 -106.5t-82 -66t-104.5 -22.5z
M304 136q15 0 29 5t25.5 18.5t20 36.5t12.5 60h-176q4 -37 12 -60t19.5 -36.5t26 -18.5t31.5 -5z" />
    <glyph glyph-name="uni0192" unicode="&#x192;" 
d="M146 -96q-35 1 -62 5t-39 10l21 127q13 -4 26 -5.5t26 -2.5q18 1 30.5 5.5t21.5 19t15.5 41t12.5 70.5l13 118h-79v118l76 6h18l4 38q9 57 25 96.5t42.5 64t65.5 36t94 11.5q10 0 23.5 -1.5t27.5 -4t27 -5.5t21 -7l-31 -128q-11 3 -23.5 6.5t-29.5 3.5q-34 0 -51.5 -14.5
t-24.5 -43.5l-6 -52h104v-124h-119l-21 -170q-6 -44 -17.5 -83.5t-35 -69.5t-61 -47.5t-94.5 -17.5z" />
    <glyph glyph-name="uni0193" unicode="&#x193;" 
d="M540 578l-94 -106q-20 20 -42.5 31t-57.5 11q-27 0 -50.5 -13t-41 -37t-27.5 -59t-10 -79q0 -92 34 -141t104 -49q12 0 24 3t20 9v90h-81v140h234v-310q-17 -15 -39.5 -29.5t-49.5 -25.5t-57 -18t-61 -7q-63 0 -118.5 20.5t-97 62t-65.5 104t-24 145.5q0 82 24 146
t65.5 107.5t97.5 66t119 22.5h13t12 -1q0 5 -0.5 9.5t-0.5 9.5q0 29 10 55t29.5 46t48 31.5t64.5 11.5q35 0 56 -4.5t38 -9.5l-30 -126q-8 3 -13 4.5t-13 1.5q-21 0 -35.5 -11t-14.5 -35q0 -23 9.5 -38.5t20.5 -27.5z" />
    <glyph glyph-name="Ohorn" unicode="&#x1a0;" 
d="M300 -12q-59 0 -108 21.5t-84 64t-54.5 106t-19.5 148.5q0 82 19.5 144.5t54.5 104.5t84 63.5t108 21.5q66 0 116 -25q25 10 37.5 28.5t12.5 54.5q0 21 -5.5 39t-10.5 29l126 50q12 -17 22 -45t10 -61q0 -59 -28.5 -96t-91.5 -54q37 -42 57.5 -105.5t20.5 -148.5
t-19.5 -148.5t-54.5 -106t-84 -64t-108 -21.5zM300 136q42 0 66 47t24 145q0 94 -24 140t-66 46t-66 -46t-24 -140q0 -98 24 -145t66 -47z" />
    <glyph glyph-name="ohorn" unicode="&#x1a1;" 
d="M300 -12q-50 0 -96.5 17.5t-82.5 51t-57.5 82.5t-21.5 111t21.5 111t57.5 82.5t82.5 51t96.5 17.5q54 0 104 -21q26 11 43 32.5t17 66.5q0 21 -4 39t-12 29l126 54q14 -18 23 -47.5t9 -62.5q0 -63 -33.5 -103.5t-88.5 -60.5q34 -34 54 -81t20 -107q0 -62 -22 -111
t-58 -82.5t-82.5 -51t-95.5 -17.5zM300 126q44 0 63 33.5t19 90.5t-19 90.5t-63 33.5t-63 -33.5t-19 -90.5t19 -90.5t63 -33.5z" />
    <glyph glyph-name="Uhorn" unicode="&#x1af;" 
d="M302 -12q-64 0 -110 18.5t-76 53t-44 83t-14 109.5v398h172v-418q0 -42 15.5 -69t56.5 -27q42 0 58 27t16 69v418h84q12 0 24.5 2t22.5 9.5t16.5 21t6.5 37.5q0 21 -5.5 39t-10.5 29l126 50q12 -17 22 -45t10 -61q0 -63 -33.5 -97.5t-96.5 -45.5v-337q0 -61 -13.5 -109.5
t-42.5 -83t-74.5 -53t-109.5 -18.5z" />
    <glyph glyph-name="uhorn" unicode="&#x1b0;" 
d="M214 -12q-84 0 -121 55.5t-37 148.5v308h172v-286q0 -42 11.5 -61t45.5 -19q22 0 38.5 8.5t36.5 35.5v322h40q14 0 30 3t29.5 12t22 27t8.5 48q0 21 -4 39t-12 29l126 54q14 -18 23 -47.5t9 -62.5q0 -54 -27.5 -90t-72.5 -56v-456h-140l-12 66h-4q-32 -36 -70.5 -57
t-91.5 -21z" />
    <glyph glyph-name="uni01C2" unicode="&#x1c2;" 
d="M214 -176v300h-154v74l154 6v126h-154v74l154 6v286h172v-286h154v-80h-154v-126h154v-80h-154v-300h-172z" />
    <glyph glyph-name="uni01CD" unicode="&#x1cd;" 
d="M249 316l-10 -45h116l-10 45q-11 47 -23.5 101.5t-23.5 104.5h-4q-11 -50 -22.5 -104.5t-22.5 -101.5zM0 0l196 650h208l196 -650h-182l-32 138h-178l-32 -138h-176zM206 700l-84 110l74 44l102 -80h4l102 80l74 -44l-84 -110h-188z" />
    <glyph glyph-name="uni01CE" unicode="&#x1ce;" 
d="M216 -12q-39 0 -69 12.5t-51 33.5t-31.5 49t-10.5 59q0 42 17.5 74t55 54.5t97.5 35.5t146 18q-5 27 -29.5 39.5t-66.5 12.5q-32 0 -65.5 -10.5t-78.5 -31.5l-60 112q57 32 116 49t122 17q53 0 96.5 -13.5t74 -42t47 -73t16.5 -105.5v-278h-140l-12 52h-4
q-37 -27 -80 -45.5t-90 -18.5zM272 120q30 0 54 11.5t44 26.5v64q-46 -2 -75.5 -7.5t-46.5 -14.5t-23.5 -20t-6.5 -24q0 -36 54 -36zM232 578l-106 128l64 60l128 -84h4l128 84l64 -60l-106 -128h-176z" />
    <glyph glyph-name="uni01CF" unicode="&#x1cf;" 
d="M66 0v144h148v362h-148v144h468v-144h-148v-362h148v-144h-468zM206 700l-84 110l74 44l102 -80h4l102 80l74 -44l-84 -110h-188z" />
    <glyph glyph-name="uni01D0" unicode="&#x1d0;" 
d="M264 0v366h-190v134h362v-500h-172zM256 578l-106 128l64 60l128 -84h4l128 84l64 -60l-106 -128h-176z" />
    <glyph glyph-name="uni01D1" unicode="&#x1d1;" 
d="M300 -12q-59 0 -108 21.5t-84 64t-54.5 106t-19.5 148.5q0 82 19.5 144.5t54.5 104.5t84 63.5t108 21.5t108 -21.5t84 -63.5t54.5 -104.5t19.5 -144.5q0 -85 -19.5 -148.5t-54.5 -106t-84 -64t-108 -21.5zM300 136q42 0 66 47t24 145q0 94 -24 140t-66 46t-66 -46
t-24 -140q0 -98 24 -145t66 -47zM206 700l-84 110l74 44l102 -80h4l102 80l74 -44l-84 -110h-188z" />
    <glyph glyph-name="uni01D2" unicode="&#x1d2;" 
d="M300 -12q-50 0 -96.5 17.5t-82.5 51t-57.5 82.5t-21.5 111t21.5 111t57.5 82.5t82.5 51t96.5 17.5q49 0 95.5 -17.5t82.5 -51t58 -82.5t22 -111t-22 -111t-58 -82.5t-82.5 -51t-95.5 -17.5zM300 126q44 0 63 33.5t19 90.5t-19 90.5t-63 33.5t-63 -33.5t-19 -90.5
t19 -90.5t63 -33.5zM212 578l-106 128l64 60l128 -84h4l128 84l64 -60l-106 -128h-176z" />
    <glyph glyph-name="uni01D3" unicode="&#x1d3;" 
d="M302 -12q-64 0 -110 18.5t-76 53t-44 83t-14 109.5v398h172v-418q0 -42 15.5 -69t56.5 -27q42 0 58 27t16 69v418h166v-398q0 -61 -13.5 -109.5t-42.5 -83t-74.5 -53t-109.5 -18.5zM206 700l-84 110l74 44l102 -80h4l102 80l74 -44l-84 -110h-188z" />
    <glyph glyph-name="uni01D4" unicode="&#x1d4;" 
d="M214 -12q-84 0 -121 55.5t-37 148.5v308h172v-286q0 -42 11.5 -61t45.5 -19q22 0 38.5 8.5t36.5 35.5v322h172v-500h-140l-12 66h-4q-32 -36 -70.5 -57t-91.5 -21zM209 578l-106 128l64 60l128 -84h4l128 84l64 -60l-106 -128h-176z" />
    <glyph glyph-name="uni01D5" unicode="&#x1d5;" 
d="M302 -12q-64 0 -110 18.5t-76 53t-44 83t-14 109.5v398h172v-418q0 -42 15.5 -69t56.5 -27q42 0 58 27t16 69v418h166v-398q0 -61 -13.5 -109.5t-42.5 -83t-74.5 -53t-109.5 -18.5zM186 694q-30 0 -49 19.5t-19 48.5t19 48.5t49 19.5t49 -19.5t19 -48.5t-19 -48.5
t-49 -19.5zM414 694q-30 0 -49 19.5t-19 48.5t19 48.5t49 19.5t49 -19.5t19 -48.5t-19 -48.5t-49 -19.5zM142 876v78h316v-78h-316z" />
    <glyph glyph-name="uni01D6" unicode="&#x1d6;" 
d="M214 -12q-84 0 -121 55.5t-37 148.5v308h172v-286q0 -42 11.5 -61t45.5 -19q22 0 38.5 8.5t36.5 35.5v322h172v-500h-140l-12 66h-4q-32 -36 -70.5 -57t-91.5 -21zM183 564q-30 0 -49 19.5t-19 48.5t19 48.5t49 19.5t49 -19.5t19 -48.5t-19 -48.5t-49 -19.5zM411 564
q-30 0 -49 19.5t-19 48.5t19 48.5t49 19.5t49 -19.5t19 -48.5t-19 -48.5t-49 -19.5zM143 758v78h308v-78h-308z" />
    <glyph glyph-name="uni01D7" unicode="&#x1d7;" 
d="M302 -12q-64 0 -110 18.5t-76 53t-44 83t-14 109.5v398h172v-418q0 -42 15.5 -69t56.5 -27q42 0 58 27t16 69v418h166v-398q0 -61 -13.5 -109.5t-42.5 -83t-74.5 -53t-109.5 -18.5zM186 694q-30 0 -49 19.5t-19 48.5t19 48.5t49 19.5t49 -19.5t19 -48.5t-19 -48.5
t-49 -19.5zM414 694q-30 0 -49 19.5t-19 48.5t19 48.5t49 19.5t49 -19.5t19 -48.5t-19 -48.5t-49 -19.5zM312 826l-74 44l96 154l106 -64z" />
    <glyph glyph-name="uni01D8" unicode="&#x1d8;" 
d="M214 -12q-84 0 -121 55.5t-37 148.5v308h172v-286q0 -42 11.5 -61t45.5 -19q22 0 38.5 8.5t36.5 35.5v322h172v-500h-140l-12 66h-4q-32 -36 -70.5 -57t-91.5 -21zM183 564q-30 0 -49 19.5t-19 48.5t19 48.5t49 19.5t49 -19.5t19 -48.5t-19 -48.5t-49 -19.5zM411 564
q-30 0 -49 19.5t-19 48.5t19 48.5t49 19.5t49 -19.5t19 -48.5t-19 -48.5t-49 -19.5zM309 716l-64 40l76 140l90 -58z" />
    <glyph glyph-name="uni01D9" unicode="&#x1d9;" 
d="M302 -12q-64 0 -110 18.5t-76 53t-44 83t-14 109.5v398h172v-418q0 -42 15.5 -69t56.5 -27q42 0 58 27t16 69v418h166v-398q0 -61 -13.5 -109.5t-42.5 -83t-74.5 -53t-109.5 -18.5zM186 694q-30 0 -49 19.5t-19 48.5t19 48.5t49 19.5t49 -19.5t19 -48.5t-19 -48.5
t-49 -19.5zM414 694q-30 0 -49 19.5t-19 48.5t19 48.5t49 19.5t49 -19.5t19 -48.5t-19 -48.5t-49 -19.5zM226 860l-88 104l68 44l92 -72h4l92 72l68 -44l-88 -104h-148z" />
    <glyph glyph-name="uni01DA" unicode="&#x1da;" 
d="M214 -12q-84 0 -121 55.5t-37 148.5v308h172v-286q0 -42 11.5 -61t45.5 -19q22 0 38.5 8.5t36.5 35.5v322h172v-500h-140l-12 66h-4q-32 -36 -70.5 -57t-91.5 -21zM183 564q-30 0 -49 19.5t-19 48.5t19 48.5t49 19.5t49 -19.5t19 -48.5t-19 -48.5t-49 -19.5zM411 564
q-30 0 -49 19.5t-19 48.5t19 48.5t49 19.5t49 -19.5t19 -48.5t-19 -48.5t-49 -19.5zM229 744l-90 92l54 50l102 -62h4l102 62l54 -50l-90 -92h-136z" />
    <glyph glyph-name="uni01DB" unicode="&#x1db;" 
d="M302 -12q-64 0 -110 18.5t-76 53t-44 83t-14 109.5v398h172v-418q0 -42 15.5 -69t56.5 -27q42 0 58 27t16 69v418h166v-398q0 -61 -13.5 -109.5t-42.5 -83t-74.5 -53t-109.5 -18.5zM186 694q-30 0 -49 19.5t-19 48.5t19 48.5t49 19.5t49 -19.5t19 -48.5t-19 -48.5
t-49 -19.5zM414 694q-30 0 -49 19.5t-19 48.5t19 48.5t49 19.5t49 -19.5t19 -48.5t-19 -48.5t-49 -19.5zM288 826l-128 134l106 64l96 -154z" />
    <glyph glyph-name="uni01DC" unicode="&#x1dc;" 
d="M214 -12q-84 0 -121 55.5t-37 148.5v308h172v-286q0 -42 11.5 -61t45.5 -19q22 0 38.5 8.5t36.5 35.5v322h172v-500h-140l-12 66h-4q-32 -36 -70.5 -57t-91.5 -21zM183 564q-30 0 -49 19.5t-19 48.5t19 48.5t49 19.5t49 -19.5t19 -48.5t-19 -48.5t-49 -19.5zM411 564
q-30 0 -49 19.5t-19 48.5t19 48.5t49 19.5t49 -19.5t19 -48.5t-19 -48.5t-49 -19.5zM285 716l-102 122l90 58l76 -140z" />
    <glyph glyph-name="uni01E2" unicode="&#x1e2;" 
d="M264 348l-22 -83h67v257h-3q-11 -47 -22 -91t-20 -83zM-4 0l200 650h392v-144h-128v-100h107v-144h-107v-118h136v-144h-287v132h-102l-35 -132h-176zM222 716v108h316v-108h-316z" />
    <glyph glyph-name="uni01E3" unicode="&#x1e3;" 
d="M150 -12q-30 0 -54.5 11t-42.5 30.5t-27.5 46t-9.5 58.5q0 79 54 123.5t163 60.5q-5 36 -19 47t-32 11q-26 0 -46.5 -8t-47.5 -24l-60 112q45 27 85.5 41.5t80.5 14.5q36 0 64 -14t52 -50q28 36 57.5 50t64.5 14q39 0 68.5 -19.5t50 -53t30.5 -78.5t10 -95
q0 -23 -2.5 -41t-4.5 -27h-218q10 -40 32.5 -58t49.5 -18q17 0 33.5 5t36.5 19l58 -110q-30 -24 -67.5 -36t-66.5 -12q-50 0 -88.5 18.5t-64.5 50.5q-38 -39 -71.5 -54t-67.5 -15zM204 120q8 0 17.5 3t23.5 16q-11 38 -11 75v4q-38 -8 -52 -25t-14 -37q0 -18 10.5 -27
t25.5 -9zM416 382q-16 0 -31 -18t-22 -62h95q-2 45 -12 62.5t-30 17.5zM154 588v108h308v-108h-308z" />
    <glyph glyph-name="Gcaron" unicode="&#x1e6;" 
d="M345 -12q-63 0 -118.5 20.5t-97 62t-65.5 104t-24 145.5q0 82 24 146t65.5 107.5t97.5 66t119 22.5q66 0 114 -25.5t80 -58.5l-94 -106q-20 20 -42.5 31t-57.5 11q-27 0 -50.5 -13t-41 -37t-27.5 -59t-10 -79q0 -92 34 -141t104 -49q12 0 24 3t20 9v90h-81v140h234v-310
q-17 -15 -39.5 -29.5t-49.5 -25.5t-57 -18t-61 -7zM236 700l-84 110l74 44l102 -80h4l102 80l74 -44l-84 -110h-188z" />
    <glyph glyph-name="gcaron" unicode="&#x1e7;" 
d="M269 -206q-47 0 -87.5 6.5t-71.5 21.5t-48.5 38.5t-17.5 57.5q0 60 76 96v4q-21 14 -35.5 34t-14.5 52q0 26 17 51t43 43v4q-29 18 -48.5 51t-19.5 77q0 46 18 80.5t49 57t70.5 33.5t83.5 11q47 0 85 -12h202v-124h-90q5 -9 9.5 -23t4.5 -29q0 -44 -16 -75.5t-44.5 -51.5
t-67 -29.5t-83.5 -9.5q-29 0 -63 7q-9 -7 -12.5 -12.5t-3.5 -16.5q0 -17 18 -23.5t60 -6.5h85q100 0 154 -30.5t54 -99.5q0 -41 -21.5 -74.5t-61.5 -57.5t-96.5 -37t-126.5 -13zM283 260q25 0 43 17t18 53q0 35 -18 51.5t-43 16.5t-42.5 -16.5t-17.5 -51.5q0 -36 17.5 -53
t42.5 -17zM296 -100q51 0 83.5 12.5t32.5 33.5q0 20 -20 25t-58 5h-50q-29 0 -46 1.5t-30 4.5q-13 -9 -19 -17t-6 -19q0 -24 31 -35t82 -11zM215 578l-106 128l64 60l128 -84h4l128 84l64 -60l-106 -128h-176z" />
    <glyph glyph-name="uni01EA" unicode="&#x1ea;" 
d="M324 -228q-51 0 -86.5 25.5t-35.5 72.5q0 41 21.5 71.5t42.5 48.5q-59 8 -103 38t-72.5 75t-42.5 102.5t-14 122.5q0 80 19.5 142.5t54.5 105t84 64.5t108 22t108 -22t84 -65t54.5 -105t19.5 -142q0 -67 -12.5 -119.5t-35.5 -92t-55 -67.5t-71 -45q-38 -17 -52 -41.5
t-14 -46.5q0 -18 12.5 -26t27.5 -8q9 0 18 4.5t16 9.5l38 -86q-21 -17 -53 -27.5t-61 -10.5zM300 132q42 0 66 45.5t24 150.5q0 94 -24 140t-66 46t-66 -46t-24 -140q0 -105 24 -150.5t66 -45.5z" />
    <glyph glyph-name="uni01EB" unicode="&#x1eb;" 
d="M318 -228q-50 0 -84 25.5t-34 76.5q0 20 6 38t15 32.5t20 26.5t20 20q-44 6 -83.5 26.5t-69.5 53.5t-48 78t-18 101q0 62 21.5 111t57.5 82.5t82.5 51t96.5 17.5t96.5 -17.5t82.5 -51t57.5 -82.5t21.5 -111q0 -49 -12.5 -87.5t-35.5 -68.5t-55 -52.5t-71 -39.5
q-38 -17 -54 -41.5t-16 -46.5t15.5 -32t30.5 -10q17 0 29 3.5t19 8.5l34 -76q-21 -17 -56 -26.5t-68 -9.5zM300 122q44 0 63 34t19 94q0 57 -19 90.5t-63 33.5t-63 -33.5t-19 -90.5q0 -60 19 -94t63 -34z" />
    <glyph glyph-name="uni01F4" unicode="&#x1f4;" 
d="M345 -12q-63 0 -118.5 20.5t-97 62t-65.5 104t-24 145.5q0 82 24 146t65.5 107.5t97.5 66t119 22.5q66 0 114 -25.5t80 -58.5l-94 -106q-20 20 -42.5 31t-57.5 11q-27 0 -50.5 -13t-41 -37t-27.5 -59t-10 -79q0 -92 34 -141t104 -49q12 0 24 3t20 9v90h-81v140h234v-310
q-17 -15 -39.5 -29.5t-49.5 -25.5t-57 -18t-61 -7zM290 674l-76 86l182 144l90 -110z" />
    <glyph glyph-name="uni01F5" unicode="&#x1f5;" 
d="M269 -206q-47 0 -87.5 6.5t-71.5 21.5t-48.5 38.5t-17.5 57.5q0 60 76 96v4q-21 14 -35.5 34t-14.5 52q0 26 17 51t43 43v4q-29 18 -48.5 51t-19.5 77q0 46 18 80.5t49 57t70.5 33.5t83.5 11q47 0 85 -12h202v-124h-90q5 -9 9.5 -23t4.5 -29q0 -44 -16 -75.5t-44.5 -51.5
t-67 -29.5t-83.5 -9.5q-29 0 -63 7q-9 -7 -12.5 -12.5t-3.5 -16.5q0 -17 18 -23.5t60 -6.5h85q100 0 154 -30.5t54 -99.5q0 -41 -21.5 -74.5t-61.5 -57.5t-96.5 -37t-126.5 -13zM283 260q25 0 43 17t18 53q0 35 -18 51.5t-43 16.5t-42.5 -16.5t-17.5 -51.5q0 -36 17.5 -53
t42.5 -17zM296 -100q51 0 83.5 12.5t32.5 33.5q0 20 -20 25t-58 5h-50q-29 0 -46 1.5t-30 4.5q-13 -9 -19 -17t-6 -19q0 -24 31 -35t82 -11zM303 558l-84 84l158 188l116 -114z" />
    <glyph glyph-name="uni01F8" unicode="&#x1f8;" 
d="M60 0v650h174l109 -290l53 -146h4q-3 26 -7 57t-8 63.5t-6.5 65t-2.5 62.5v188h164v-650h-174l-109 291l-53 145h-4q6 -56 15 -122t9 -126v-188h-164zM350 674l-196 120l90 110l182 -144z" />
    <glyph glyph-name="uni01F9" unicode="&#x1f9;" 
d="M64 0v500h140l12 -60h4q30 29 71 50.5t96 21.5q83 0 121 -55.5t38 -148.5v-308h-172v286q0 42 -12.5 61t-45.5 19q-24 0 -42 -10t-38 -28v-328h-172zM314 558l-190 158l116 114l158 -188z" />
    <glyph glyph-name="Aringacute" unicode="&#x1fa;" 
d="M249 316l-10 -45h116l-10 45q-11 47 -23.5 101.5t-23.5 104.5h-4q-11 -50 -22.5 -104.5t-22.5 -101.5zM0 0l196 650h208l196 -650h-182l-32 138h-178l-32 -138h-176zM300 696q-54 0 -87 27.5t-33 74.5q0 52 41 80l155 144l68 -94l-85 -39q29 -12 45 -35.5t16 -55.5
q0 -47 -33 -74.5t-87 -27.5zM300 758q16 0 27 11t11 29t-11 29t-27 11t-27 -11t-11 -29t11 -29t27 -11z" />
    <glyph glyph-name="aringacute" unicode="&#x1fb;" 
d="M216 -12q-39 0 -69 12.5t-51 33.5t-31.5 49t-10.5 59q0 42 17.5 74t55 54.5t97.5 35.5t146 18q-5 27 -29.5 39.5t-66.5 12.5q-32 0 -65.5 -10.5t-78.5 -31.5l-60 112q57 32 116 49t122 17q53 0 96.5 -13.5t74 -42t47 -73t16.5 -105.5v-278h-140l-12 52h-4
q-37 -27 -80 -45.5t-90 -18.5zM272 120q30 0 54 11.5t44 26.5v64q-46 -2 -75.5 -7.5t-46.5 -14.5t-23.5 -20t-6.5 -24q0 -36 54 -36zM320 568q-71 0 -105.5 31t-34.5 75q0 24 10.5 45.5t32.5 35.5l163 137l68 -84l-78 -35q42 -11 63 -38t21 -61q0 -44 -34.5 -75t-105.5 -31z
M320 630q16 0 27 12t11 32t-11 32t-27 12t-27 -12t-11 -32t11 -32t27 -12z" />
    <glyph glyph-name="AEacute" unicode="&#x1fc;" 
d="M264 348l-22 -83h67v257h-3q-11 -47 -22 -91t-20 -83zM-4 0l200 650h392v-144h-128v-100h107v-144h-107v-118h136v-144h-287v132h-102l-35 -132h-176zM340 674l-76 86l182 144l90 -110z" />
    <glyph glyph-name="aeacute" unicode="&#x1fd;" 
d="M150 -12q-30 0 -54.5 11t-42.5 30.5t-27.5 46t-9.5 58.5q0 79 54 123.5t163 60.5q-5 36 -19 47t-32 11q-26 0 -46.5 -8t-47.5 -24l-60 112q45 27 85.5 41.5t80.5 14.5q36 0 64 -14t52 -50q28 36 57.5 50t64.5 14q39 0 68.5 -19.5t50 -53t30.5 -78.5t10 -95
q0 -23 -2.5 -41t-4.5 -27h-218q10 -40 32.5 -58t49.5 -18q17 0 33.5 5t36.5 19l58 -110q-30 -24 -67.5 -36t-66.5 -12q-50 0 -88.5 18.5t-64.5 50.5q-38 -39 -71.5 -54t-67.5 -15zM204 120q8 0 17.5 3t23.5 16q-11 38 -11 75v4q-38 -8 -52 -25t-14 -37q0 -18 10.5 -27
t25.5 -9zM416 382q-16 0 -31 -18t-22 -62h95q-2 45 -12 62.5t-30 17.5zM308 558l-84 84l158 188l116 -114z" />
    <glyph glyph-name="Oslashacute" unicode="&#x1fe;" 
d="M300 -12q-83 0 -144 41l-54 -75l-90 58l70 99q-23 41 -35.5 95t-12.5 122q0 82 19.5 144.5t54.5 104.5t84 63.5t108 21.5q83 0 145 -41l53 75l90 -58l-70 -98q23 -41 35.5 -93.5t12.5 -118.5q0 -85 -19.5 -148.5t-54.5 -106t-84 -64t-108 -21.5zM210 328v-19t1 -17
l140 198q-20 24 -51 24q-42 0 -66 -46t-24 -140zM300 136q42 0 66 47t24 145v15.5t-1 14.5l-140 -198q21 -24 51 -24zM260 674l-76 86l182 144l90 -110z" />
    <glyph glyph-name="oslashacute" unicode="&#x1ff;" 
d="M300 -12q-73 0 -136 37l-42 -51l-62 48l44 53q-29 33 -45.5 77t-16.5 98q0 62 21.5 111t57.5 82.5t82.5 51t96.5 17.5q73 0 135 -36l43 52l62 -48l-45 -54q29 -33 46 -77t17 -99q0 -62 -22 -111t-58 -82.5t-82.5 -51t-95.5 -17.5zM218 250q0 -9 0.5 -17.5t1.5 -16.5
l124 150q-19 14 -44 14q-44 0 -63 -36.5t-19 -93.5zM300 120q44 0 63 36.5t19 93.5q0 10 -0.5 19t-1.5 17l-125 -151q18 -15 45 -15zM300 558l-84 84l158 188l116 -114z" />
    <glyph glyph-name="uni0218" unicode="&#x218;" 
d="M296 -12q-64 0 -130.5 22.5t-121.5 70.5l98 118q37 -28 79 -45.5t87 -17.5q39 0 55.5 11t16.5 27q0 14 -6.5 23.5t-18.5 17t-29.5 14.5t-39.5 16l-81 34q-28 10 -53 26.5t-43.5 39t-29.5 51.5t-11 64q0 42 18 78.5t50.5 64t78 43.5t101.5 16q58 0 116 -21t106 -66
l-86 -108q-35 23 -67.5 35t-78.5 12q-29 0 -46.5 -10.5t-17.5 -33.5q0 -11 7 -19.5t20 -15.5t32 -14t43 -16l75 -31q66 -24 101.5 -67t35.5 -111q0 -41 -17 -79t-50 -66.5t-81.5 -45.5t-111.5 -17zM192 -244l-12 66q57 3 78.5 11t21.5 25q0 12 -13.5 20.5t-46.5 11.5l32 60
q43 -3 71.5 -10t46 -17.5t25 -25t7.5 -33.5q0 -54 -55 -79.5t-155 -28.5z" />
    <glyph glyph-name="uni0219" unicode="&#x219;" 
d="M290 -12q-65 0 -130.5 22t-113.5 54l72 106q48 -28 98 -42t98 -14q33 0 47.5 8t14.5 22q0 9 -5.5 15t-18 10.5t-34 9t-52.5 11.5q-52 11 -87.5 26.5t-58 35.5t-32.5 44.5t-10 53.5q0 37 17 67t48 51t75 32.5t98 11.5q71 0 126.5 -22.5t95.5 -47.5l-76 -102
q-39 23 -81 34.5t-81 11.5q-24 0 -38 -7t-14 -21q0 -8 5.5 -13t17.5 -9.5t32 -8.5t49 -11q56 -13 93.5 -28t60 -34.5t31.5 -44t9 -55.5q0 -35 -16.5 -65.5t-49 -53t-80 -35t-110.5 -12.5zM198 -244l-12 66q57 3 78.5 11t21.5 25q0 12 -13.5 20.5t-46.5 11.5l32 60
q43 -3 71.5 -10t46 -17.5t25 -25t7.5 -33.5q0 -54 -55 -79.5t-155 -28.5z" />
    <glyph glyph-name="uni021A" unicode="&#x21a;" 
d="M214 0v506h-187v144h546v-144h-187v-506h-172zM192 -244l-12 66q57 3 78.5 11t21.5 25q0 12 -13.5 20.5t-46.5 11.5l32 60q43 -3 71.5 -10t46 -17.5t25 -25t7.5 -33.5q0 -54 -55 -79.5t-155 -28.5z" />
    <glyph glyph-name="uni021B" unicode="&#x21b;" 
d="M386 -12q-62 0 -104.5 16t-69 45.5t-38.5 71t-12 91.5v154h-120v128l128 6l22 150h142v-150h198v-134h-198v-151q0 -54 24.5 -73.5t72.5 -19.5q26 0 48.5 4.5t42.5 11.5l30 -124q-33 -9 -74 -17.5t-92 -8.5zM256 -244l-12 66q57 3 78.5 11t21.5 25q0 12 -13.5 20.5
t-46.5 11.5l32 60q43 -3 71.5 -10t46 -17.5t25 -25t7.5 -33.5q0 -54 -55 -79.5t-155 -28.5z" />
    <glyph glyph-name="uni0237" unicode="&#x237;" 
d="M195 -188q-49 0 -87 9.5t-71 24.5l49 122q32 -14 54.5 -18t42.5 -4q46 0 63.5 21.5t17.5 72.5v326h-190v134h362v-454q0 -46 -11 -88t-38.5 -74.5t-74 -52t-117.5 -19.5z" />
    <glyph glyph-name="uni0243" unicode="&#x243;" 
d="M76 0v174h-74v74l74 6v396h220q51 0 95 -7.5t77 -25.5t51.5 -48t18.5 -75q0 -20 -6 -39t-19.5 -36t-34 -30.5t-48.5 -20.5v-4q69 -14 103.5 -53.5t34.5 -108.5q0 -53 -19.5 -91t-54 -63t-80.5 -36.5t-98 -11.5h-240zM248 122h56q51 0 72.5 24.5t21.5 69.5
q0 47 -21.5 67.5t-72.5 20.5h-56v-50h92v-80h-92v-52zM248 404h44q82 0 82 68q0 30 -20 43t-62 13h-44v-124z" />
    <glyph glyph-name="uni0250" unicode="&#x250;" 
d="M298 -12q-53 0 -96.5 13.5t-74 42t-47 72.5t-16.5 106v278h140l12 -52h4q37 27 80 45.5t90 18.5q39 0 69 -12.5t51 -33.5t31.5 -49t10.5 -59q0 -42 -17.5 -74t-55 -54.5t-98 -36t-145.5 -17.5q5 -27 29.5 -39.5t66.5 -12.5q32 0 65.5 10.5t78.5 31.5l60 -112
q-57 -32 -116 -49t-122 -17zM236 278q46 1 75.5 7t46.5 15t23.5 20t6.5 24q0 36 -54 36q-30 0 -54 -11.5t-44 -26.5v-64z" />
    <glyph glyph-name="uni0251" unicode="&#x251;" 
d="M250 -12q-47 0 -85 18t-65.5 52t-42.5 82.5t-15 109.5t17.5 110t47 82.5t68 51.5t79.5 18q36 0 68.5 -14.5t61.5 -47.5h4l14 50h134v-500h-140l-12 46h-4q-26 -26 -61.5 -42t-68.5 -16zM296 128q21 0 37.5 7.5t30.5 28.5v184q-15 14 -31.5 19t-34.5 5q-32 0 -56 -27
t-24 -93q0 -68 20.5 -96t57.5 -28z" />
    <glyph glyph-name="uni0252" unicode="&#x252;" 
d="M344 -12q-33 0 -66 16.5t-62 49.5h-4l-14 -54h-134v500h140l12 -46h4q26 26 62.5 42t77.5 16q45 0 81.5 -18t62.5 -51t40 -79.5t14 -103.5q0 -65 -18 -116t-48 -85.5t-68.5 -52.5t-79.5 -18zM302 128q32 0 56 27t24 93q0 68 -20.5 96t-57.5 28q-21 0 -37.5 -7.5
t-30.5 -28.5v-184q15 -14 31.5 -19t34.5 -5z" />
    <glyph glyph-name="uni0253" unicode="&#x253;" 
d="M346 -12q-34 0 -67.5 16t-62.5 50h-4l-14 -54h-134v486q0 44 12 84t39 71t71 49t108 18q40 0 70.5 -7.5t49.5 -14.5l-30 -126q-16 5 -32.5 9.5t-31.5 4.5q-39 0 -59 -16t-25 -58l-6 -58h4q55 50 125 50q45 0 81 -17.5t62 -49t40 -76.5t14 -100q0 -63 -18 -111.5
t-47 -81.5t-67 -50.5t-78 -17.5zM304 128q15 0 29 6t24.5 19.5t16.5 36.5t6 56q0 57 -18.5 81.5t-53.5 24.5q-20 0 -37.5 -8t-34.5 -28v-164q16 -14 33.5 -19t34.5 -5z" />
    <glyph glyph-name="uni0254" unicode="&#x254;" 
d="M252 -12q-52 0 -105.5 17t-98.5 55l70 108q23 -16 51 -29t62 -13q58 0 94.5 33.5t36.5 90.5q0 28 -9.5 51t-25.5 39.5t-37 25t-45 8.5q-26 0 -52.5 -7t-58.5 -27l-78 106q33 30 86.5 48t115.5 18q55 0 106 -17.5t89.5 -51t61.5 -82.5t23 -111t-22.5 -111t-61.5 -82.5
t-91 -51t-111 -17.5z" />
    <glyph glyph-name="uni0255" unicode="&#x255;" 
d="M370 118q33 0 50.5 11t17.5 25q0 30 -44 30q-34 0 -84 -56q27 -10 60 -10zM196 -94l-132 58q12 33 26.5 63t30.5 57q-28 32 -43.5 73.5t-15.5 92.5q0 62 24 111t64.5 82.5t93.5 51t112 17.5q60 0 107.5 -18t80.5 -48l-74 -102q-24 20 -50.5 29t-53.5 9q-60 0 -99 -35
t-39 -97q0 -18 3 -33q46 40 92 59.5t85 19.5q72 0 114 -38t42 -104q0 -35 -13.5 -65t-39 -52.5t-63 -35.5t-84.5 -13q-71 0 -129 21q-22 -45 -39 -103z" />
    <glyph glyph-name="uni0256" unicode="&#x256;" 
d="M542 -168q-46 0 -79.5 13.5t-55.5 35.5t-32.5 50t-10.5 57l2 50h-4q-23 -23 -52.5 -36.5t-61.5 -13.5q-47 0 -85 18t-65 52t-41.5 82.5t-14.5 109.5t18 110t47 82.5t66 51.5t75 18q41 0 67 -13.5t47 -36.5h4l-8 72v162h172v-666q0 -35 9 -49.5t31 -14.5q11 0 26 6
l30 -126q-15 -6 -34 -10t-50 -4zM294 128q20 0 35 7.5t29 28.5v184q-15 14 -33 19t-35 5q-27 0 -49.5 -27t-22.5 -93q0 -68 20.5 -96t55.5 -28z" />
    <glyph glyph-name="uni0257" unicode="&#x257;" 
d="M246 -12q-47 0 -84.5 18t-64 52t-41 82.5t-14.5 109.5t17.5 110t46 82.5t65.5 51.5t75 18t64.5 -13t49.5 -37h4l-2 72v8q0 32 9.5 62t32 53t58 37t88.5 14q27 0 43.5 -2.5t30.5 -7.5l-30 -126q-5 2 -8 2h-8q-27 0 -38.5 -14.5t-11.5 -49.5v-510h-140l-12 46h-4
q-26 -26 -59.5 -42t-66.5 -16zM292 128q20 0 35 7.5t29 28.5v184q-15 14 -33 19t-35 5q-27 0 -48.5 -27t-21.5 -93q0 -68 19.5 -96t54.5 -28z" />
    <glyph glyph-name="uni0258" unicode="&#x258;" 
d="M282 382q-69 0 -80 -72h175q-21 72 -95 72zM270 -12q-47 0 -101 14.5t-99 43.5l56 102q33 -15 61.5 -22.5t58.5 -7.5q55 0 88 19t44 61h-321q-2 9 -4.5 29t-2.5 43q0 50 16.5 94t48 77t78 52t105.5 19q50 0 96 -18t80.5 -51.5t55 -82.5t20.5 -110q0 -62 -21.5 -111
t-59 -82.5t-89 -51t-110.5 -17.5z" />
    <glyph glyph-name="uni0259" unicode="&#x259;" 
d="M288 -12q-59 0 -103.5 19t-74.5 52t-45 77t-15 94q0 23 2.5 43t4.5 29h321q-11 42 -41.5 61t-80.5 19q-30 0 -58.5 -7.5t-61.5 -22.5l-56 102q45 29 99 43.5t101 14.5q57 0 106.5 -17.5t85.5 -51t57 -82.5t21 -111t-22 -110.5t-58.5 -82t-84 -51.5t-97.5 -18zM282 118
q74 0 95 72h-175q11 -72 80 -72z" />
    <glyph glyph-name="uni025A" unicode="&#x25a;" 
d="M198 -12q-52 0 -89.5 18.5t-62 50.5t-37.5 75t-15 92l236 117q-11 25 -29 34t-41 9t-44 -8t-42 -22l-56 108q41 27 83 38.5t76 11.5q68 0 116 -26.5t76 -75.5l77 38l76 -30q0 -56 9.5 -77t32.5 -21q8 0 14.5 3.5t12.5 6.5l33 -80q-15 -10 -32.5 -18t-37.5 -8
q-18 0 -36 3.5t-33.5 14t-28.5 28.5t-22 48l-30 -15q2 -15 3 -30.5t1 -32.5q0 -56 -15 -102.5t-42.5 -79.5t-66.5 -51.5t-86 -18.5zM196 116q23 0 38.5 19t15.5 61v27l-113 -57q11 -32 26.5 -41t32.5 -9z" />
    <glyph glyph-name="uni025B" unicode="&#x25b;" 
d="M316 -12q-53 0 -99.5 10t-81 29.5t-54 49t-19.5 69.5q0 50 30 76t85 40v4q-48 14 -71.5 43.5t-23.5 58.5q0 39 19 66t52.5 44.5t80 25.5t102.5 8q52 0 106.5 -14.5t99.5 -41.5l-60 -108q-32 18 -67.5 26t-68.5 8q-54 0 -75 -11t-21 -28q0 -19 21.5 -26t62.5 -7h72v-112
h-88q-47 0 -67.5 -7.5t-20.5 -27.5q0 -21 27 -33t93 -12q41 0 75.5 13t58.5 31l66 -108q-23 -18 -47.5 -30.5t-53 -20.5t-61 -11.5t-72.5 -3.5z" />
    <glyph glyph-name="uni025C" unicode="&#x25c;" 
d="M278 -12q-61 0 -117.5 14.5t-118.5 57.5l66 108q42 -26 82 -38t71 -12q68 0 94.5 11.5t26.5 32.5q0 20 -16 28t-52 8h-133v112h125q62 0 62 36q0 8 -4.5 15t-16.5 11.5t-32 7t-51 2.5q-39 0 -74.5 -9t-77.5 -35l-62 110q54 35 110 49.5t116 14.5q57 0 104.5 -8.5t81 -26
t52 -45t18.5 -66.5q0 -14 -4 -29.5t-13.5 -29t-26.5 -25t-44 -18.5v-4q57 -13 81.5 -39.5t24.5 -76.5q0 -39 -21 -68.5t-57.5 -49t-86 -29t-107.5 -9.5z" />
    <glyph glyph-name="uni025E" unicode="&#x25e;" 
d="M312 -12q-57 0 -106.5 16t-85.5 49t-57 82t-21 115t22.5 115t60 82t85.5 49t100 16q44 0 84 -8t70 -26t48 -45.5t18 -66.5q0 -33 -20 -62t-68 -40v-4q108 -18 108 -116q0 -39 -18.5 -68.5t-50.5 -49t-75.5 -29t-93.5 -9.5zM318 118q27 0 45.5 11.5t18.5 32.5t-16.5 28.5
t-45.5 7.5h-30v112h32q20 0 33 7t13 27q0 17 -13 27.5t-37 10.5q-49 0 -77.5 -30t-28.5 -102q0 -39 7 -64.5t20.5 -40.5t33.5 -21t45 -6z" />
    <glyph glyph-name="uni025F" unicode="&#x25f;" 
d="M195 -188q-49 0 -87 9.5t-71 24.5l49 122q32 -14 54.5 -18t42.5 -4q46 0 63.5 21.5t17.5 72.5v140h-166v74l166 6v106h-190v134h362v-240h120v-80h-120v-134q0 -46 -11 -88t-38.5 -74.5t-74 -52t-117.5 -19.5z" />
    <glyph glyph-name="uni0260" unicode="&#x260;" 
d="M264 -186q-20 0 -43.5 3.5t-48.5 10.5t-50.5 17.5t-47.5 24.5l56 112q35 -18 70 -26t64 -8q50 0 70.5 18t23.5 44l6 50h-4q-23 -21 -52.5 -32.5t-59.5 -11.5q-47 0 -84.5 18.5t-64 51t-41 77t-14.5 97.5q0 57 18 103.5t47.5 79.5t67 51t75.5 18q36 0 61.5 -13.5
t46.5 -36.5h4l-2 30q0 29 9.5 59.5t32 55t58.5 40t90 15.5q27 0 43.5 -2.5t30.5 -7.5l-30 -126q-4 2 -8 2h-8q-27 0 -38.5 -15.5t-11.5 -48.5v-448q0 -100 -69 -151t-197 -51zM294 154q20 0 34.5 7.5t29.5 30.5v156q-15 14 -33 19t-35 5q-29 0 -50.5 -26.5t-21.5 -83.5
q0 -54 20.5 -81t55.5 -27z" />
    <glyph glyph-name="uni0261" unicode="&#x261;" 
d="M266 -188q-20 0 -44 3t-50 9t-52 16t-48 24l56 116q35 -18 72 -26t66 -8q50 0 74.5 19t29.5 45l6 50h-4q-23 -21 -56.5 -32.5t-65.5 -11.5q-47 0 -85 18.5t-65.5 51t-42.5 77t-15 97.5q0 57 17.5 103.5t46.5 79.5t67.5 51t80.5 18q77 0 130 -62h4l14 50h134v-470
q0 -105 -67.5 -161.5t-202.5 -56.5zM296 154q20 0 36.5 7.5t31.5 30.5v156q-15 14 -31.5 19t-36.5 5q-14 0 -28.5 -6.5t-26 -20t-18.5 -34.5t-7 -49q0 -54 22.5 -81t57.5 -27z" />
    <glyph glyph-name="uni0262" unicode="&#x262;" 
d="M336 -12q-55 0 -105 15t-88.5 46.5t-61.5 80.5t-23 116q0 64 24 114t63.5 83.5t90.5 51t104 17.5q35 0 62.5 -4.5t51 -13t43 -20.5t37.5 -26l-76 -102q-14 9 -25 15.5t-23 11t-25.5 7t-32.5 2.5q-23 0 -44.5 -7.5t-38 -24t-27 -42t-10.5 -62.5q0 -62 30 -95t80 -33
q13 0 23.5 1.5t22.5 6.5v72h-76v112h222v-255q-17 -15 -39 -27.5t-48 -21t-54.5 -13.5t-56.5 -5z" />
    <glyph glyph-name="uni0263" unicode="&#x263;" 
d="M304 -206q-81 0 -129.5 42.5t-48.5 113.5q0 19 4.5 36t13 34.5t20.5 37t27 43.5l-167 399h172l70 -208q9 -32 18 -57t18 -60h4q9 35 18 60t18 57l70 208h164l-160 -397q15 -24 27 -44t21 -37.5t13.5 -35t4.5 -36.5q0 -71 -48.5 -113.5t-129.5 -42.5zM304 -100
q17 0 28.5 12.5t11.5 35.5q0 17 -9.5 34t-29.5 48h-5q-18 -30 -27 -47.5t-9 -34.5q0 -23 11.5 -35.5t28.5 -12.5z" />
    <glyph glyph-name="uni0264" unicode="&#x264;" 
d="M300 -12q-46 0 -84 12t-65 35.5t-42 58.5t-15 81q0 40 24 84t66 83q-15 18 -33.5 25t-36.5 7q-29 0 -46 -14l-48 124q18 14 52 21t66 7q41 0 83.5 -17t78.5 -59q36 42 78.5 59t83.5 17q32 0 66 -7t52 -21l-48 -124q-8 6 -20.5 10t-25.5 4q-19 0 -37 -7t-33 -25
q42 -39 66 -83t24 -84q0 -46 -15 -81t-42 -58.5t-65 -35.5t-84 -12zM300 126q22 0 34 14t12 40q0 20 -12 43t-34 43q-22 -20 -34 -43t-12 -43q0 -26 12 -40t34 -14z" />
    <glyph glyph-name="uni0265" unicode="&#x265;" 
d="M364 -176v142l9 88q-25 -24 -65 -45t-96 -21q-83 0 -120.5 55.5t-37.5 148.5v308h172v-286q0 -42 12.5 -61t45.5 -19q24 0 42 10t38 28v328h172v-676h-172z" />
    <glyph glyph-name="uni0266" unicode="&#x266;" 
d="M64 0v486q0 44 12 84t39 71t71 49t108 18q40 0 70.5 -7.5t49.5 -14.5l-30 -126q-16 5 -32.5 9.5t-31.5 4.5q-39 0 -59 -16t-25 -58l-10 -74h4q24 24 63 45t95 21q82 0 120 -55.5t38 -148.5v-288h-172v266q0 42 -12.5 61t-45.5 19q-24 0 -42 -10t-38 -28v-308h-172z" />
    <glyph glyph-name="uni0267" unicode="&#x267;" 
d="M352 -188q-35 0 -56 4t-38 10l30 126q11 -3 19 -4.5t17 -1.5q27 0 38.5 16.5t11.5 57.5v246q0 42 -12.5 61t-45.5 19q-24 0 -42 -10t-38 -28v-308h-172v486q0 44 12 84t39 71t71 49t108 18q40 0 70.5 -7.5t49.5 -14.5l-30 -126q-16 5 -32.5 9.5t-31.5 4.5q-39 0 -59 -16
t-25 -58l-10 -74h4q24 24 63 45t95 21q82 0 120 -55.5t38 -148.5v-262q0 -42 -9 -80.5t-31.5 -68.5t-60 -47.5t-93.5 -17.5z" />
    <glyph glyph-name="uni0268" unicode="&#x268;" 
d="M108 180v74l156 6v106h-190v134h362v-240h120v-80h-120v-180h-172v180h-156zM344 568q-48 0 -79 27.5t-31 72.5t31 73.5t79 28.5t79 -28.5t31 -73.5t-31 -72.5t-79 -27.5z" />
    <glyph glyph-name="uni026A" unicode="&#x26a;" 
d="M76 0v134h138v232h-138v134h448v-134h-138v-232h138v-134h-448z" />
    <glyph glyph-name="uni026B" unicode="&#x26b;" 
d="M391 -12q-50 0 -87.5 16t-63 44.5t-38 68.5t-12.5 89v356h-150v134h322v-496q0 -22 7 -36t17.5 -22.5t24 -12t26.5 -3.5q31 0 72 14l37 -126q-20 -6 -37.5 -11t-35.5 -8t-38 -5t-44 -2zM399 274q-39 0 -71.5 8.5t-60 19t-51 19.5t-45.5 9q-12 0 -19.5 -9t-10.5 -33
l-106 22q3 74 34 106t82 32q40 0 72.5 -9t60 -19.5t50.5 -19t45 -8.5q12 0 19.5 9t10.5 33l106 -22q-3 -74 -34 -106t-82 -32z" />
    <glyph glyph-name="uni026C" unicode="&#x26c;" 
d="M183 262q-41 0 -70.5 8.5t-48 23.5t-27.5 35t-9 43q0 46 31 76t79 30q30 0 52 -14v98h-150v134h322v-354h126v-80h-126v-62q0 -22 7 -36t17.5 -22.5t24 -12t26.5 -3.5q31 0 72 14l37 -126q-20 -6 -37.5 -11t-35.5 -8t-38 -5t-44 -2q-50 0 -87.5 16t-63 44.5t-38 68.5
t-12.5 89v56h-7zM167 342h23v8q0 7 -2 15.5t-7.5 16t-14.5 13t-22 5.5q-14 0 -21 -7.5t-7 -19.5q0 -13 11.5 -22t39.5 -9z" />
    <glyph glyph-name="uni026D" unicode="&#x26d;" 
d="M391 -188q-50 0 -87.5 16t-63 44.5t-38 68.5t-12.5 89v532h-150v134h322v-672q0 -22 7 -36t17.5 -22.5t24 -12t26.5 -3.5q31 0 72 14l37 -126q-20 -6 -37.5 -11t-35.5 -8t-38 -5t-44 -2z" />
    <glyph glyph-name="uni026E" unicode="&#x26e;" 
d="M374 -188q-72 0 -123 23.5t-87 58.5l76 106q24 -21 52 -35.5t60 -14.5q39 0 62.5 23t23.5 67q0 38 -23 58t-59 20q-20 0 -29.5 -2t-26.5 -8l-54 80l136 178h-184v-366h-172v696h172v-196h388v-92l-133 -172q40 -8 70 -26t49 -43.5t28.5 -57t9.5 -65.5q0 -56 -18.5 -99
t-51 -72.5t-75.5 -45t-91 -15.5z" />
    <glyph glyph-name="uni026F" unicode="&#x26f;" 
d="M574 500v-500h-128l-12 60h-4q-12 -29 -37 -50.5t-69 -21.5q-31 0 -53.5 20.5t-30.5 59.5q-11 -32 -38 -56t-70 -24q-54 0 -83 44.5t-29 119.5v348h162v-336q0 -30 17 -30q20 0 33 38v328h130v-336q0 -30 20 -30q17 0 30 38v328h162z" />
    <glyph glyph-name="uni0270" unicode="&#x270;" 
d="M412 -176v142l11 95h-4q-13 -29 -34.5 -51t-61.5 -22q-31 0 -53.5 20.5t-30.5 59.5q-11 -32 -38 -56t-69 -24q-53 0 -82.5 44.5t-29.5 119.5v348h162v-336q0 -30 17 -30q20 0 33 38v328h130v-336q0 -30 20 -30q17 0 30 38v328h162v-676h-162z" />
    <glyph glyph-name="uni0271" unicode="&#x271;" 
d="M420 -188q-29 0 -47.5 3t-32.5 9l30 126q11 -4 22 -4q15 0 20.5 12.5t5.5 41.5v336q0 30 -17 30q-20 0 -33 -38v-328h-130v336q0 30 -20 30q-17 0 -30 -38v-328h-162v500h128l12 -61h4q13 29 37 51t69 22q31 0 53.5 -20.5t30.5 -59.5q11 32 38.5 56t69.5 24
q53 0 82.5 -44.5t29.5 -119.5v-352q0 -36 -7.5 -69.5t-26 -59t-49.5 -40.5t-77 -15z" />
    <glyph glyph-name="uni0272" unicode="&#x272;" 
d="M64 -188q-31 0 -50 4t-34 10l30 126q15 -6 26 -6q22 0 31 14.5t9 49.5v490h140l12 -60h4q30 29 68.5 50.5t89.5 21.5q82 0 119 -55.5t37 -148.5v-308h-172v286q0 48 -12 64t-38 16q-24 0 -40 -10t-36 -28v-312q0 -40 -9 -77t-30 -65t-56.5 -45t-88.5 -17z" />
    <glyph glyph-name="uni0273" unicode="&#x273;" 
d="M546 -188q-53 0 -88.5 17t-56.5 45t-30 65t-9 77v270q0 48 -12 64t-38 16q-24 0 -40 -10t-36 -28v-328h-172v500h140l12 -60h4q30 29 68.5 50.5t89.5 21.5q82 0 119 -55.5t37 -148.5v-298q0 -35 9 -49.5t31 -14.5q11 0 26 6l30 -126q-15 -6 -34 -10t-50 -4z" />
    <glyph glyph-name="uni0274" unicode="&#x274;" 
d="M66 0v500h158l110 -184q12 -21 26.5 -51.5t24.5 -52.5h3q-5 45 -9.5 91.5t-4.5 83.5v113h160v-500h-158l-110 184q-12 20 -26.5 50.5t-24.5 53.5h-4l10 -92t5 -83v-113h-160z" />
    <glyph glyph-name="uni0275" unicode="&#x275;" 
d="M300 -12q-51 0 -97.5 16.5t-82 49.5t-57 82t-21.5 114q0 64 21.5 113t57 82t82 50t97.5 17t97.5 -17t82 -50t57 -82t21.5 -113q0 -65 -21.5 -114t-57 -82t-82 -49.5t-97.5 -16.5zM300 385q-72 0 -92 -75h184q-20 75 -92 75zM300 116q76 0 93 82h-186q17 -82 93 -82z" />
    <glyph glyph-name="uni0276" unicode="&#x276;" 
d="M242 -12q-42 0 -83 15.5t-73 47.5t-52 81t-20 117q0 66 20 115.5t52 82.5t73 49t83 16q28 0 50.5 -2.5t57.5 -9.5h236v-134h-146v-56h118v-112h-118v-64h156v-134h-246q-32 -7 -55.5 -9.5t-52.5 -2.5zM258 122q15 0 30 6v242q-6 2 -13.5 3t-16.5 1q-13 0 -25 -6.5
t-21.5 -21t-15.5 -38.5t-6 -59q0 -39 6 -63.5t15.5 -38.5t21.5 -19.5t25 -5.5z" />
    <glyph glyph-name="uni0278" unicode="&#x278;" 
d="M164 250q0 -62 17 -94t49 -36v260q-32 -4 -49 -36t-17 -94zM436 250q0 62 -17 94t-49 36v-260q32 4 49 36t17 94zM230 -177v170q-42 3 -80.5 21.5t-67.5 51t-46.5 79t-17.5 105.5t17.5 105.5t46.5 79t67.5 51t80.5 21.5v189h140v-189q42 -3 80.5 -21.5t67.5 -51t46.5 -79
t17.5 -105.5t-17.5 -105.5t-46.5 -79t-67.5 -51t-80.5 -21.5v-169z" />
    <glyph glyph-name="uni0279" unicode="&#x279;" 
d="M496 500v-500h-141l-13 106h-4q-36 -62 -87 -90t-108 -28q-35 0 -54.5 5.5t-40.5 14.5l34 144q23 -7 41.5 -10.5t45.5 -3.5q43 0 85 25.5t70 88.5v248h172z" />
    <glyph glyph-name="uni027A" unicode="&#x27a;" 
d="M143 -12q-35 0 -54.5 5.5t-40.5 14.5l34 144q23 -7 41.5 -10.5t45.5 -3.5q43 0 85 25.5t70 88.5v444h172v-696h-141l-13 106h-4q-36 -62 -87 -90t-108 -28z" />
    <glyph glyph-name="uni027B" unicode="&#x27b;" 
d="M476 -188q-50 0 -82.5 15t-52 39.5t-27.5 56.5t-8 67v106h-4q-30 -56 -77 -82t-95 -26q-18 0 -39.5 4.5t-42.5 15.5l34 144q31 -14 66 -14q16 0 35 5.5t38.5 17.5t36.5 32t28 49v258h172v-490q0 -36 10 -50t36 -14q18 0 38 10l36 -124q-20 -8 -43.5 -14t-58.5 -6z" />
    <glyph glyph-name="uni027D" unicode="&#x27d;" 
d="M328 -188q-62 0 -104.5 16t-69 45.5t-38.5 71t-12 91.5v464h141l13 -106h4q36 62 87 90t108 28q35 0 54.5 -5.5t40.5 -14.5l-34 -144q-23 7 -41.5 10.5t-45.5 3.5q-43 0 -85 -25.5t-70 -88.5v-209q0 -54 24.5 -73.5t72.5 -19.5q26 0 48.5 4.5t42.5 11.5l30 -124
q-33 -9 -74 -17.5t-92 -8.5z" />
    <glyph glyph-name="uni027E" unicode="&#x27e;" 
d="M104 0v260q0 50 14.5 95.5t47 80.5t84.5 55.5t126 20.5q59 0 103 -6t73 -14l-34 -144q-19 5 -32.5 8t-25.5 5t-25.5 2.5t-32.5 0.5q-18 0 -40 -6.5t-41 -23t-32 -44t-13 -68.5v-222h-172z" />
    <glyph glyph-name="uni0280" unicode="&#x280;" 
d="M64 0v500h257q44 0 82.5 -8.5t67.5 -28.5t46 -53t17 -82q0 -56 -25.5 -92t-63.5 -56l129 -180h-192l-99 150h-47v-150h-172zM236 264h64q34 0 49.5 16.5t15.5 42.5q0 53 -65 53h-64v-112z" />
    <glyph glyph-name="uni0281" unicode="&#x281;" 
d="M536 500v-500h-257q-44 0 -82.5 8.5t-67.5 28.5t-46 53t-17 82q0 56 25.5 92t63.5 56l-129 180h192l99 -150h47v150h172zM364 236h-64q-34 0 -49.5 -16.5t-15.5 -42.5q0 -53 65 -53h64v112z" />
    <glyph glyph-name="uni0282" unicode="&#x282;" 
d="M220 -188q-48 0 -81 15t-54 42.5t-30 67t-9 89.5v38l72 106q48 -28 98 -42t98 -14q33 0 47.5 8t14.5 22q0 9 -5.5 15t-18 10.5t-34 9t-52.5 11.5q-52 11 -87.5 26.5t-58 35.5t-32.5 44.5t-10 53.5q0 37 17 67t48 51t75 32.5t98 11.5q71 0 126.5 -22.5t95.5 -47.5
l-76 -102q-39 23 -81 34.5t-81 11.5q-24 0 -38 -7t-14 -21q0 -8 5.5 -13t17.5 -9.5t32 -8.5t49 -11q56 -13 93.5 -28t60 -34.5t31.5 -44t9 -55.5q0 -35 -16.5 -65.5t-49 -53t-80 -35t-110.5 -12.5q-48 0 -94 12v-6q0 -52 52 -52q9 0 17 1.5t19 4.5l30 -122q-17 -6 -38 -10
t-56 -4z" />
    <glyph glyph-name="uni0283" unicode="&#x283;" 
d="M184 -188q-53 0 -86 10t-60 23l48 119q39 -18 70 -18q33 0 46.5 16.5t13.5 57.5v474q0 42 10 80.5t35 68.5t66 47.5t103 17.5q50 0 82 -9.5t56 -18.5l-42 -122q-20 8 -35.5 12t-32.5 4q-38 0 -54 -16.5t-16 -57.5v-474q0 -42 -9.5 -80.5t-32.5 -68.5t-62.5 -47.5
t-99.5 -17.5z" />
    <glyph glyph-name="uni0284" unicode="&#x284;" 
d="M184 -188q-53 0 -86 10t-60 23l48 119q39 -18 70 -18q33 0 46.5 16.5t13.5 57.5v200h-136v74l136 6v194q0 42 10 80.5t35 68.5t66 47.5t103 17.5q50 0 82 -9.5t56 -18.5l-42 -122q-20 8 -35.5 12t-32.5 4q-38 0 -54 -16.5t-16 -57.5v-200h140v-80h-140v-194
q0 -42 -9.5 -80.5t-32.5 -68.5t-62.5 -47.5t-99.5 -17.5z" />
    <glyph glyph-name="uni0287" unicode="&#x287;" 
d="M214 512q61 0 104 -16t69.5 -45.5t38.5 -71t12 -91.5v-154h120v-128l-128 -6l-22 -150h-142v150h-198v134h198v151q0 54 -24.5 73.5t-72.5 19.5q-26 0 -48.5 -4.5t-42.5 -11.5l-30 124q33 9 74 17.5t92 8.5z" />
    <glyph glyph-name="uni0288" unicode="&#x288;" 
d="M386 -188q-62 0 -104.5 16t-69 45.5t-38.5 71t-12 91.5v330h-120v128l128 6l22 150h142v-150h198v-134h-198v-327q0 -54 24.5 -73.5t72.5 -19.5q26 0 48.5 4.5t42.5 11.5l30 -124q-33 -9 -74 -17.5t-92 -8.5z" />
    <glyph glyph-name="uni0289" unicode="&#x289;" 
d="M282 134q24 0 39.5 10t32.5 34v92h-122v-56q0 -48 12 -64t38 -16zM216 -12q-41 0 -70.5 14.5t-48.5 41t-28 64t-9 84.5v78h-76v74l76 6v150h172v-150h122v150h172v-150h80v-80h-80v-270h-140l-12 66h-4q-30 -36 -66.5 -57t-87.5 -21z" />
    <glyph glyph-name="uni028A" unicode="&#x28a;" 
d="M300 -12q-61 0 -108 18.5t-79.5 48t-49.5 67t-17 76.5q0 54 21 96t47 69v3h-80v134h232v-111q-12 -18 -21 -35t-15 -35t-9 -38.5t-3 -46.5q0 -47 19 -77.5t63 -30.5t63 30.5t19 77.5q0 26 -3 46.5t-9 38.5t-15 35t-21 35v111h232v-134h-80v-3q26 -27 47 -69t21 -96
q0 -39 -17 -76.5t-49.5 -67t-79.5 -48t-108 -18.5z" />
    <glyph glyph-name="uni028B" unicode="&#x28b;" 
d="M298 -12q-114 0 -178 62.5t-64 181.5v268h172v-267q0 -107 78 -107q36 0 56 39t20 113q0 54 -10 78t-34 24q-5 0 -8.5 -0.5t-7.5 -1.5l-18 126q14 5 30.5 6.5t41.5 1.5q38 0 71.5 -12t58 -37.5t38.5 -64.5t14 -94q0 -72 -16.5 -130.5t-49 -99.5t-81 -63.5t-113.5 -22.5z
" />
    <glyph glyph-name="uni028C" unicode="&#x28c;" 
d="M396 500l180 -500h-172l-65 218q-11 38 -20.5 76.5t-20.5 79.5h-4q-11 -41 -20.5 -79.5t-20.5 -76.5l-65 -218h-164l174 500h198z" />
    <glyph glyph-name="uni028D" unicode="&#x28d;" 
d="M526 500l72 -500h-166l-20 210q-4 38 -6.5 75.5t-7.5 76.5h-3q-4 -39 -8.5 -77.5t-12.5 -74.5l-20 -130h-116l-22 130q-7 38 -12.5 75.5t-10.5 76.5h-4q-5 -39 -6.5 -76.5t-4.5 -75.5l-16 -210h-160l66 500h198l16 -134q5 -35 8.5 -70.5t7.5 -77.5h4q2 26 5 59.5t9 88.5
l16 134h194z" />
    <glyph glyph-name="uni028E" unicode="&#x28e;" 
d="M22 0l194 508q20 51 41.5 88.5t49.5 62t64 37t84 12.5q23 0 42.5 -2.5t36.5 -7.5l-30 -130q-20 6 -35 6q-38 0 -58.5 -15.5t-30.5 -38.5l-14 -38l210 -482h-170l-70 192q-13 36 -23.5 73.5t-21.5 78.5h-4q-9 -38 -20.5 -76t-22.5 -76l-60 -192h-162z" />
    <glyph glyph-name="uni028F" unicode="&#x28f;" 
d="M216 0v144l-192 356h180l42 -96q14 -36 26.5 -68.5l27.5 -71.5h4q15 38 27 71t29 69l40 96h178l-190 -356v-144h-172z" />
    <glyph glyph-name="uni0290" unicode="&#x290;" 
d="M556 -188q-53 0 -88.5 16.5t-56.5 43t-30 59.5t-9 65v4h-302v92l230 274h-202v134h440v-92l-232 -274h238v-124q0 -35 9 -49.5t31 -14.5q11 0 26 6l30 -126q-15 -6 -34 -10t-50 -4z" />
    <glyph glyph-name="uni0291" unicode="&#x291;" 
d="M360 -112l-79 16q5 26 10 49.5t10 46.5h-231v92l206 274h-178v134h390v-92l-204 -274q14 -2 28.5 -3t28.5 -2q26 66 60.5 103.5t76.5 37.5q53 0 83.5 -28.5t30.5 -87.5q0 -32 -11 -60t-33.5 -49t-57.5 -33t-84 -12h-24q-5 -24 -11 -52t-11 -60zM453 124q26 0 38.5 10.5
t12.5 24.5q0 23 -26 23q-13 0 -27 -13.5t-28 -44.5h30z" />
    <glyph glyph-name="uni0292" unicode="&#x292;" 
d="M280 -188q-78 0 -134 27t-96 65l76 106q29 -26 62 -43t70 -17q48 0 77 24t29 70q0 39 -28.5 60.5t-73.5 21.5q-13 0 -22 -1t-17 -3.5t-16.5 -6t-20.5 -7.5l-54 80l176 178h-228v134h432v-92l-159 -175q41 -3 75 -19t58 -41.5t37 -57.5t13 -67q0 -57 -20.5 -101t-55 -74
t-81.5 -45.5t-99 -15.5z" />
    <glyph glyph-name="uni0294" unicode="&#x294;" 
d="M192 0v314q50 31 82.5 53.5t52 42t27.5 37.5t8 39q0 42 -30 63t-80 21q-36 0 -69.5 -19t-56.5 -47l-84 108q38 41 95 68.5t135 27.5q52 0 99.5 -13t83.5 -40t57.5 -67t21.5 -94q0 -40 -12 -71.5t-34 -60t-53.5 -55t-70.5 -55.5v-252h-172z" />
    <glyph glyph-name="uni0295" unicode="&#x295;" 
d="M232 0v252q-39 29 -70.5 55.5t-53.5 55t-34 60t-12 71.5q0 54 21 94t57 67t83.5 40t100.5 13q78 0 135 -27.5t95 -68.5l-84 -108q-23 28 -56.5 47t-69.5 19q-50 0 -80 -21t-30 -63q0 -21 8 -39t27.5 -37.5t52 -42t82.5 -53.5v-314h-172z" />
    <glyph glyph-name="uni0298" unicode="&#x298;" 
d="M300 -12q-55 0 -102 23t-81.5 68t-54.5 113t-20 158q0 92 20 159.5t54.5 111.5t81.5 65.5t102 21.5t102 -21.5t82 -65.5t55 -111.5t20 -159.5q0 -90 -20 -158t-55 -113t-82 -68t-102 -23zM300 126q19 0 37 10t32 35.5t23 69t9 109.5q0 65 -9 107.5t-23 67.5t-32 35
t-37 10t-37 -10t-32 -35t-22.5 -67.5t-8.5 -107.5q0 -66 8.5 -109.5t22.5 -69t32 -35.5t37 -10zM300 276q-32 0 -54 21t-22 53q0 33 22 55.5t54 22.5t54 -22.5t22 -55.5q0 -32 -22 -53t-54 -21z" />
    <glyph glyph-name="uni0299" unicode="&#x299;" 
d="M107 0v500h238q44 0 83.5 -6.5t69.5 -22t47.5 -41t17.5 -64.5q0 -29 -19 -59t-65 -43v-4q48 -12 75 -39t27 -77q0 -39 -18 -66.5t-48.5 -44.5t-71 -25t-84.5 -8h-252zM275 310h63q32 0 46.5 10t14.5 28t-14 29t-48 11h-62v-78zM275 112h76q37 0 50.5 13t13.5 31
q0 17 -14.5 29.5t-49.5 12.5h-76v-86z" />
    <glyph glyph-name="uni029C" unicode="&#x29c;" 
d="M64 0v500h172v-172h128v172h172v-500h-172v178h-128v-178h-172z" />
    <glyph glyph-name="uni029D" unicode="&#x29d;" 
d="M412 -220q-10 26 -20.5 49t-21.5 43q-29 -28 -69.5 -44t-94.5 -16q-45 0 -80.5 12.5t-60 34t-38 51t-13.5 64.5q0 66 47 106t133 40q17 0 34.5 -1.5t35.5 -6.5v254h-190v134h362v-464v-12t-1 -12q31 -32 58.5 -74.5t50.5 -99.5zM200 -58q27 0 43.5 11.5t19.5 36.5
q-35 18 -71 18q-27 0 -39.5 -8t-12.5 -22t14 -25t46 -11zM344 568q-48 0 -79 27.5t-31 72.5t31 73.5t79 28.5t79 -28.5t31 -73.5t-31 -72.5t-79 -27.5z" />
    <glyph glyph-name="uni029E" unicode="&#x29e;" 
d="M364 -176v354h-4l-152 -178h-198l203 217l-191 283h174l115 -179l53 57v122h172v-676h-172z" />
    <glyph glyph-name="uni029F" unicode="&#x29f;" 
d="M110 0v500h172v-366h256v-134h-428z" />
    <glyph glyph-name="uni02A1" unicode="&#x2a1;" 
d="M192 0v234h-146v74l76 6h90q80 48 115 92.5t35 79.5q0 42 -27.5 63t-72.5 21q-39 0 -74.5 -19t-61.5 -47l-84 108q39 41 99 68.5t141 27.5q51 0 96.5 -13t80 -40t55 -67t20.5 -94q0 -51 -32.5 -97.5t-77.5 -82.5h124v-80h-184v-234h-172z" />
    <glyph glyph-name="uni02A2" unicode="&#x2a2;" 
d="M232 0v234h-184v74l76 6h48q-45 36 -77.5 82.5t-32.5 97.5q0 54 20.5 94t55 67t80 40t96.5 13q81 0 141 -27.5t99 -68.5l-84 -108q-26 28 -61.5 47t-74.5 19q-45 0 -72.5 -21t-27.5 -63q0 -35 35 -79.5t115 -92.5h166v-80h-146v-234h-172z" />
    <glyph glyph-name="uni02A4" unicode="&#x2a4;" 
d="M185 128q10 0 18.5 10.5t10.5 31.5v178q-5 12 -14 18t-18 6q-20 0 -33 -27.5t-13 -92.5t13.5 -94.5t35.5 -29.5zM434 -188q-45 0 -79 13t-61 39l64 110q27 -24 56 -24q24 0 41 20t17 70q0 41 -16 59.5t-36 18.5q-6 0 -9.5 -0.5t-12.5 -5.5l-50 92l96 162h-100v-366h-100
l-14 38h-4q-20 -26 -40 -38t-43 -12q-33 0 -61.5 18.5t-48.5 53t-31.5 83t-11.5 107.5t11.5 107.5t31.5 83t47.5 53t59.5 18.5q21 0 42 -10.5t38 -31.5h2l-8 90v136h130v-196h252v-92l-95 -175q55 -15 86 -67t31 -128q0 -46 -12 -87t-35 -72t-57.5 -49t-79.5 -18z" />
    <glyph glyph-name="uni02A6" unicode="&#x2a6;" 
d="M332 -12q-70 0 -120.5 14.5t-82.5 41.5t-47.5 64.5t-15.5 83.5v174h-66v128l74 6l22 150h142v-150h137q33 12 75 12q41 0 79 -13t69 -39l-56 -92q-23 16 -39.5 21t-32.5 5q-30 0 -30 -26q0 -10 11.5 -19.5t29.5 -21.5t38 -27t38 -36t29.5 -48.5t11.5 -63.5
q0 -38 -13.5 -68.5t-45 -51.5t-82 -32.5t-125.5 -11.5zM350 114q56 0 77 11t21 33q0 15 -11.5 27.5t-29.5 25.5t-39 27.5t-39 32.5t-31.5 41t-15.5 54h-44v-170q0 -23 8 -39t23 -25.5t35.5 -13.5t45.5 -4z" />
    <glyph glyph-name="uni02A7" unicode="&#x2a7;" 
d="M376 -188q-33 0 -54 4t-36 10l30 126q11 -3 19 -4.5t17 -1.5q21 0 30.5 16.5t9.5 57.5v346h-164v-171q0 -42 13.5 -57.5t30.5 -15.5q15 0 26.5 1.5t23.5 6.5l26 -124q-20 -6 -46.5 -12t-67.5 -6q-47 0 -81 14.5t-55.5 41.5t-31.5 64.5t-10 83.5v174h-66v128l74 6l22 150
h142v-150h164v2q0 39 10 76t33 66t61 46.5t94 17.5q29 0 47 -4t33 -10l-30 -126q-15 6 -26 6q-27 0 -38.5 -16.5t-11.5 -57.5v-474q0 -42 -9.5 -80.5t-31.5 -68.5t-58 -47.5t-89 -17.5z" />
    <glyph glyph-name="h.sups" unicode="&#x2b0;" 
d="M149 368v466h119v-112l-6 -58q16 15 42 29.5t62 14.5q57 0 81.5 -37.5t24.5 -99.5v-203h-119v188q0 27 -8 39t-29 12q-15 0 -25 -6t-23 -17v-216h-119z" />
    <glyph glyph-name="j.sups" unicode="&#x2b2;" 
d="M230 245q-31 0 -55 6.5t-45 16.5l34 83q20 -9 33.5 -11.5t24.5 -2.5q29 0 40.5 13.5t11.5 46.5v211h-119v92h239v-300q0 -30 -7.5 -58t-26.5 -49.5t-50.5 -34.5t-79.5 -13zM332 738q-33 0 -54.5 18.5t-21.5 49.5q0 30 21.5 50t54.5 20t54.5 -20t21.5 -50
q0 -31 -21.5 -49.5t-54.5 -18.5z" />
    <glyph glyph-name="r.sups" unicode="&#x2b3;" 
d="M203 368v332h98l9 -71h3q22 41 53.5 60t65.5 19q23 0 36 -4t27 -10l-23 -99q-15 5 -27.5 7t-30.5 2q-24 0 -49.5 -16t-42.5 -58v-162h-119z" />
    <glyph glyph-name="w.sups" unicode="&#x2b7;" 
d="M112 368l-80 332h118l24 -136l12 -102h3l17 102l34 136h94l36 -136l18 -102h3l13 102l24 136h109l-75 -332h-138l-24 112l-14 90h-2l-14 -90l-22 -112h-136z" />
    <glyph glyph-name="y.sups" unicode="&#x2b8;" 
d="M207 245q-17 0 -28.5 2t-22.5 5l20 88q5 -1 10.5 -2.5t10.5 -1.5q23 0 34.5 8.5t16.5 22.5l3 14l-126 319h119l38 -124q8 -23 13 -46t11 -48h2q5 23 10 46.5t11 47.5l31 124h114l-111 -324q-24 -70 -58.5 -100.5t-97.5 -30.5z" />
    <glyph glyph-name="uni02B9" unicode="&#x2b9;" 
d="M220 324l20 360h172l-28 -162l-52 -198h-112z" />
    <glyph glyph-name="uni02BB" unicode="&#x2bb;" 
d="M302 267q-63 0 -95.5 46t-32.5 129q0 85 45.5 148.5t141.5 105.5l43 -89q-108 -44 -115 -133q5 1 9 1.5t9 0.5q44 0 71.5 -27t27.5 -72q0 -51 -29.5 -80.5t-74.5 -29.5z" />
    <glyph glyph-name="uni02BC" unicode="&#x2bc;" 
d="M239 267l-43 89q108 44 115 133q-5 -1 -9 -1.5t-9 -0.5q-44 0 -71.5 27t-27.5 72q0 51 29.5 80.5t74.5 29.5q63 0 95.5 -46t32.5 -129q0 -85 -45.5 -148.5t-141.5 -105.5z" />
    <glyph glyph-name="uni02BE" unicode="&#x2be;" 
d="M220 538v90q45 0 64.5 14.5t19.5 43.5t-19.5 43.5t-64.5 14.5v90q57 1 96.5 -9t63.5 -29.5t35 -47.5t11 -62t-11 -62t-35 -47.5t-63.5 -30t-96.5 -8.5z" />
    <glyph glyph-name="uni02BF" unicode="&#x2bf;" 
d="M380 538q-57 -2 -96.5 8.5t-63.5 30t-35 47.5t-11 62t11 62t35 47.5t63.5 29.5t96.5 9v-90q-45 0 -64.5 -14.5t-19.5 -43.5t19.5 -43.5t64.5 -14.5v-90z" />
    <glyph glyph-name="uni02C1" unicode="&#x2c1;" 
d="M252 456v76q-24 19 -44 36.5t-35 36.5t-23 41t-8 49q0 35 14 61.5t38 44t55.5 26t66.5 8.5q53 0 89.5 -17t62.5 -44l-58 -74q-17 18 -37.5 29t-44.5 11q-29 0 -47.5 -12t-18.5 -38q0 -15 5.5 -28.5t18 -27t33.5 -28.5t53 -34v-116h-120z" />
    <glyph glyph-name="circumflex" unicode="&#x2c6;" 
d="M170 558l-64 60l106 128h176l106 -128l-64 -60l-128 84h-4z" />
    <glyph glyph-name="caron" unicode="&#x2c7;" 
d="M212 578l-106 128l64 60l128 -84h4l128 84l64 -60l-106 -128h-176z" />
    <glyph glyph-name="uni02C8" unicode="&#x2c8;" 
d="M248 370l-34 380h172l-34 -380h-104z" />
    <glyph glyph-name="uni02C9" unicode="&#x2c9;" 
d="M146 588v108h308v-108h-308z" />
    <glyph glyph-name="uni02CA" unicode="&#x2ca;" 
d="M300 558l-84 84l158 188l116 -114z" />
    <glyph glyph-name="uni02CB" unicode="&#x2cb;" 
d="M300 558l-190 158l116 114l158 -188z" />
    <glyph glyph-name="uni02CC" unicode="&#x2cc;" 
d="M214 -270l34 380h104l34 -380h-172z" />
    <glyph glyph-name="uni02D0" unicode="&#x2d0;" 
d="M150 0l142 240h16l142 -240h-300zM292 306l-142 240h300l-142 -240h-16z" />
    <glyph glyph-name="uni02D1" unicode="&#x2d1;" 
d="M292 306l-142 240h300l-142 -240h-16z" />
    <glyph glyph-name="breve" unicode="&#x2d8;" 
d="M300 572q-88 0 -130 44.5t-44 115.5l96 16q5 -30 23.5 -50t54.5 -20t54.5 20t23.5 50l96 -16q-2 -71 -44 -115.5t-130 -44.5z" />
    <glyph glyph-name="dotaccent" unicode="&#x2d9;" 
d="M300 568q-48 0 -79 27.5t-31 72.5t31 73.5t79 28.5t79 -28.5t31 -73.5t-31 -72.5t-79 -27.5z" />
    <glyph glyph-name="ring" unicode="&#x2da;" 
d="M300 568q-71 0 -105.5 31t-34.5 75t34.5 75t105.5 31t105.5 -31t34.5 -75t-34.5 -75t-105.5 -31zM300 630q16 0 27 12t11 32t-11 32t-27 12t-27 -12t-11 -32t11 -32t27 -12z" />
    <glyph glyph-name="ogonek" unicode="&#x2db;" 
d="M308 -228q-50 0 -84 25.5t-34 76.5q0 24 8.5 44.5t20.5 37t25 28.5t22 18h92q-26 -22 -40 -43.5t-14 -44.5t15.5 -32.5t30.5 -9.5q17 0 29.5 3.5t18.5 8.5l34 -76q-21 -17 -56 -26.5t-68 -9.5z" />
    <glyph glyph-name="tilde" unicode="&#x2dc;" 
d="M364 572q-23 0 -41.5 8.5t-33.5 19t-27 19.5t-22 9q-12 0 -19.5 -9.5t-10.5 -36.5l-106 6q2 85 37 121.5t95 36.5q22 0 41 -9t34 -19.5t27 -19t22 -8.5q12 0 19.5 9.5t10.5 36.5l106 -6q-2 -85 -37 -121.5t-95 -36.5z" />
    <glyph glyph-name="hungarumlaut" unicode="&#x2dd;" 
d="M248 564l-90 40l88 184l114 -50zM438 564l-90 40l88 184l114 -50z" />
    <glyph glyph-name="uni02DE" unicode="&#x2de;" 
d="M337 225q-37 0 -70.5 20t-54.5 77l-136 -60v122l204 88q7 -45 15.5 -74.5t17 -47t17.5 -24.5t18 -7q13 0 23 3t18 7l33 -79q-17 -11 -37.5 -18t-47.5 -7z" />
    <glyph glyph-name="uni02E0" unicode="&#x2e0;" 
d="M304 233q-53 0 -85 28.5t-32 76.5q0 25 10 46.5t29 52.5l-101 262h119l35 -121q5 -21 11 -37.5t12 -39.5h3q6 23 12 39.5t12 37.5l34 121h114l-97 -260q20 -32 30 -53.5t10 -47.5q0 -48 -32 -76.5t-84 -28.5zM304 305q8 0 14.5 6.5t6.5 17.5q0 12 -4.5 25.5t-16.5 34.5
h-3q-10 -21 -14.5 -34.5t-4.5 -25.5q0 -11 6.5 -17.5t15.5 -6.5z" />
    <glyph glyph-name="l.sups" unicode="&#x2e1;" 
d="M377 360q-37 0 -63 10.5t-42.5 30t-24 46.5t-7.5 59v236h-64v92h183v-332q0 -29 13.5 -38.5t36.5 -9.5q9 0 19 2.5t22 7.5l19 -91q-24 -6 -43.5 -9.5t-48.5 -3.5z" />
    <glyph glyph-name="s.sups" unicode="&#x2e2;" 
d="M297 360q-42 0 -84.5 13.5t-73.5 34.5l53 72q28 -17 54 -25.5t53 -8.5q26 0 36 4.5t10 13.5q0 12 -22.5 19.5t-52.5 16.5q-19 6 -38.5 14.5t-35.5 20.5t-26 27.5t-10 36.5q0 49 42 79t114 30q46 0 81.5 -14.5t61.5 -31.5l-53 -69q-22 13 -43.5 20t-44.5 7q-21 0 -30 -3.5
t-9 -12.5q0 -12 21.5 -19t50.5 -15q20 -6 40 -13.5t36 -19.5t26 -28t10 -38q0 -48 -42.5 -79.5t-123.5 -31.5z" />
    <glyph glyph-name="x.sups" unicode="&#x2e3;" 
d="M110 368l112 172l-105 160h127l27 -46q7 -14 15.5 -28.5t16.5 -28.5h3q5 14 11.5 28.5t12.5 28.5l20 46h125l-107 -174l112 -158h-127l-30 44q-8 14 -18 28.5t-18 28.5h-2q-7 -14 -14 -28.5t-13 -28.5l-24 -44h-124z" />
    <glyph glyph-name="uni02E4" unicode="&#x2e4;" 
d="M252 368v164q-24 19 -44 36.5t-35 36.5t-23 41t-8 49q0 35 14 61.5t38 44t55.5 26t66.5 8.5q53 0 89.5 -17t62.5 -44l-58 -74q-17 18 -37.5 29t-44.5 11q-29 0 -47.5 -12t-18.5 -38q0 -15 5.5 -28.5t18 -27t33.5 -28.5t53 -34v-204h-120z" />
    <glyph glyph-name="uni0300" unicode="&#x300;" 
d="M300 558l-190 158l116 114l158 -188z" />
    <glyph glyph-name="uni0301" unicode="&#x301;" 
d="M300 558l-84 84l158 188l116 -114z" />
    <glyph glyph-name="uni0302" unicode="&#x302;" 
d="M170 558l-64 60l106 128h176l106 -128l-64 -60l-128 84h-4z" />
    <glyph glyph-name="uni0303" unicode="&#x303;" 
d="M364 572q-23 0 -41.5 8.5t-33.5 19t-27 19.5t-22 9q-12 0 -19.5 -9.5t-10.5 -36.5l-106 6q2 85 37 121.5t95 36.5q22 0 41 -9t34 -19.5t27 -19t22 -8.5q12 0 19.5 9.5t10.5 36.5l106 -6q-2 -85 -37 -121.5t-95 -36.5z" />
    <glyph glyph-name="uni0304" unicode="&#x304;" 
d="M146 588v108h308v-108h-308z" />
    <glyph glyph-name="uni0305" unicode="&#x305;" 
d="M146 588v108h308v-108h-308z" />
    <glyph glyph-name="uni0306" unicode="&#x306;" 
d="M300 572q-88 0 -130 44.5t-44 115.5l96 16q5 -30 23.5 -50t54.5 -20t54.5 20t23.5 50l96 -16q-2 -71 -44 -115.5t-130 -44.5z" />
    <glyph glyph-name="uni0307" unicode="&#x307;" 
d="M300 568q-48 0 -79 27.5t-31 72.5t31 73.5t79 28.5t79 -28.5t31 -73.5t-31 -72.5t-79 -27.5z" />
    <glyph glyph-name="uni0308" unicode="&#x308;" 
d="M184 564q-40 0 -65 26t-25 64t25 64t65 26t65 -26t25 -64t-25 -64t-65 -26zM416 564q-40 0 -65 26t-25 64t25 64t65 26t65 -26t25 -64t-25 -64t-65 -26z" />
    <glyph glyph-name="uni0309" unicode="&#x309;" 
d="M252 566l-12 66q17 2 28.5 8.5t11.5 21.5q0 17 -17 27t-61 13l10 104q55 -2 91.5 -12t59 -27.5t32 -41t9.5 -51.5q0 -27 -12 -46.5t-33 -33t-48.5 -20.5t-58.5 -8z" />
    <glyph glyph-name="uni030A" unicode="&#x30a;" 
d="M300 568q-71 0 -105.5 31t-34.5 75t34.5 75t105.5 31t105.5 -31t34.5 -75t-34.5 -75t-105.5 -31zM300 630q16 0 27 12t11 32t-11 32t-27 12t-27 -12t-11 -32t11 -32t27 -12z" />
    <glyph glyph-name="uni030B" unicode="&#x30b;" 
d="M248 564l-90 40l88 184l114 -50zM438 564l-90 40l88 184l114 -50z" />
    <glyph glyph-name="uni030C" unicode="&#x30c;" 
d="M212 578l-106 128l64 60l128 -84h4l128 84l64 -60l-106 -128h-176z" />
    <glyph glyph-name="uni030F" unicode="&#x30f;" 
d="M162 564l-112 174l114 50l88 -184zM352 564l-112 174l114 50l88 -184z" />
    <glyph glyph-name="uni0310" unicode="&#x310;" 
d="M300 572q-92 0 -138.5 44.5t-49.5 115.5l86 16q5 -35 31.5 -57.5t70.5 -22.5q43 0 70 22.5t32 57.5l86 -16q-3 -71 -49.5 -115.5t-138.5 -44.5zM300 702q-36 0 -60 22t-24 58t24 59t60 23t60 -23t24 -59t-24 -58t-60 -22z" />
    <glyph glyph-name="uni0311" unicode="&#x311;" 
d="M222 564l-96 16q1 35 11.5 64.5t32 50.5t54 33t76.5 12q88 0 130 -44.5t44 -115.5l-96 -16q-5 30 -23.5 50t-54.5 20t-54.5 -20t-23.5 -50z" />
    <glyph glyph-name="uni0312" unicode="&#x312;" 
d="M312 566q-42 0 -67 27t-25 75q0 50 32 85.5t98 52.5l24 -54q-69 -18 -77 -52q9 6 20 6q28 0 48.5 -18t20.5 -52q0 -32 -21 -51t-53 -19z" />
    <glyph glyph-name="uni0313" unicode="&#x313;" 
d="M250 566l-24 54q69 18 77 52q-9 -6 -20 -6q-28 0 -48.5 18t-20.5 52q0 32 21 51t53 19q42 0 67 -27t25 -75q0 -50 -32 -85.5t-98 -52.5z" />
    <glyph glyph-name="uni0318" unicode="&#x318;" 
d="M326 -260v64h-118v80h118v64h96v-208h-96z" />
    <glyph glyph-name="uni0319" unicode="&#x319;" 
d="M178 -260v208h96v-64h118v-80h-118v-64h-96z" />
    <glyph glyph-name="uni031A" unicode="&#x31a;" 
d="M316 574v74h-108v80h196v-154h-88z" />
    <glyph glyph-name="uni031B" unicode="&#x31b;" 
d="M302 424l-12 66q25 6 42.5 24.5t17.5 65.5q0 18 -5.5 33t-10.5 25l126 54q12 -15 22 -42.5t10 -57.5q0 -43 -16 -73.5t-42.5 -51t-60.5 -31t-71 -12.5z" />
    <glyph glyph-name="uni031C" unicode="&#x31c;" 
d="M370 -258q-49 -2 -82.5 5.5t-54.5 21t-30 33.5t-9 44t9 44t30 33.5t54.5 20.5t82.5 6v-62q-35 0 -49.5 -11.5t-14.5 -30.5t14.5 -30.5t49.5 -11.5v-62z" />
    <glyph glyph-name="uni031D" unicode="&#x31d;" 
d="M168 -236v80h84v104h96v-104h84v-80h-264z" />
    <glyph glyph-name="uni031E" unicode="&#x31e;" 
d="M252 -260v104h-84v80h264v-80h-84v-104h-96z" />
    <glyph glyph-name="uni031F" unicode="&#x31f;" 
d="M252 -260v64h-84v80h84v64h96v-64h84v-80h-84v-64h-96z" />
    <glyph glyph-name="uni0320" unicode="&#x320;" 
d="M168 -156v80h264v-80h-264z" />
    <glyph glyph-name="uni0323" unicode="&#x323;" 
d="M300 -257q-48 0 -79 27.5t-31 72.5t31 73.5t79 28.5t79 -28.5t31 -73.5t-31 -72.5t-79 -27.5z" />
    <glyph glyph-name="uni0324" unicode="&#x324;" 
d="M184 -241q-40 0 -65 26t-25 64t25 64t65 26t65 -26t25 -64t-25 -64t-65 -26zM416 -241q-40 0 -65 26t-25 64t25 64t65 26t65 -26t25 -64t-25 -64t-65 -26z" />
    <glyph glyph-name="uni0325" unicode="&#x325;" 
d="M300 -259q-71 0 -105.5 31t-34.5 75t34.5 75t105.5 31t105.5 -31t34.5 -75t-34.5 -75t-105.5 -31zM300 -197q16 0 27 12t11 32t-11 32t-27 12t-27 -12t-11 -32t11 -32t27 -12z" />
    <glyph glyph-name="uni0326" unicode="&#x326;" 
d="M192 -244l-12 66q57 3 78.5 11t21.5 25q0 12 -13.5 20.5t-46.5 11.5l32 60q43 -3 71.5 -10t46 -17.5t25 -25t7.5 -33.5q0 -54 -55 -79.5t-155 -28.5z" />
    <glyph glyph-name="uni0327" unicode="&#x327;" 
d="M192 -244l-12 66q57 3 78.5 12t21.5 30q0 13 -15 23.5t-61 16.5l54 108h98l-32 -72q39 -9 58.5 -26.5t19.5 -49.5q0 -54 -55 -79.5t-155 -28.5z" />
    <glyph glyph-name="uni0328" unicode="&#x328;" 
d="M308 -228q-50 0 -84 25.5t-34 76.5q0 24 8.5 44.5t20.5 37t25 28.5t22 18h92q-26 -22 -40 -43.5t-14 -44.5t15.5 -32.5t30.5 -9.5q17 0 29.5 3.5t18.5 8.5l34 -76q-21 -17 -56 -26.5t-68 -9.5z" />
    <glyph glyph-name="uni0329" unicode="&#x329;" 
d="M232 -270l6 208h124l6 -208h-136z" />
    <glyph glyph-name="uni032A" unicode="&#x32a;" 
d="M166 -218v142h268v-142h-86v62h-96v-62h-86z" />
    <glyph glyph-name="uni032C" unicode="&#x32c;" 
d="M212 -225l-106 128l64 60l128 -84h4l128 84l64 -60l-106 -128h-176z" />
    <glyph glyph-name="uni032E" unicode="&#x32e;" 
d="M300 -233q-88 0 -130 44.5t-44 115.5l96 16q5 -30 23.5 -50t54.5 -20t54.5 20t23.5 50l96 -16q-2 -71 -44 -115.5t-130 -44.5z" />
    <glyph glyph-name="uni032F" unicode="&#x32f;" 
d="M222 -249l-96 16q1 35 11.5 64.5t32 50.5t54 33t76.5 12q88 0 130 -44.5t44 -115.5l-96 -16q-5 30 -23.5 50t-54.5 20t-54.5 -20t-23.5 -50z" />
    <glyph glyph-name="uni0330" unicode="&#x330;" 
d="M364 -227q-23 0 -41.5 8.5t-33.5 19t-27 19.5t-22 9q-12 0 -19.5 -9.5t-10.5 -36.5l-106 6q2 85 37 121.5t95 36.5q22 0 41 -9t34 -19.5t27 -19t22 -8.5q12 0 19.5 9.5t10.5 36.5l106 -6q-2 -85 -37 -121.5t-95 -36.5z" />
    <glyph glyph-name="uni0331" unicode="&#x331;" 
d="M146 -195v108h308v-108h-308z" />
    <glyph glyph-name="uni0334" unicode="&#x334;" 
d="M424 164q-39 0 -71.5 8.5t-60 19t-51 19.5t-45.5 9q-12 0 -19.5 -9t-10.5 -33l-106 22q3 74 34 106t82 32q40 0 72.5 -9t60 -19.5t50.5 -19t45 -8.5q12 0 19.5 9t10.5 33l106 -22q-3 -74 -34 -106t-82 -32z" />
    <glyph glyph-name="uni0339" unicode="&#x339;" 
d="M230 -258v62q35 0 49.5 11.5t14.5 30.5t-14.5 30.5t-49.5 11.5v62q49 1 82.5 -6t54.5 -20.5t30 -33.5t9 -44t-9 -44t-30 -33.5t-54.5 -21t-82.5 -5.5z" />
    <glyph glyph-name="uni033A" unicode="&#x33a;" 
d="M166 -210v142h86v-62h96v62h86v-142h-268z" />
    <glyph glyph-name="uni033B" unicode="&#x33b;" 
d="M166 -250v188h268v-188h-268zM252 -190h96v70h-96v-70z" />
    <glyph glyph-name="uni033C" unicode="&#x33c;" 
d="M195 -250l-96 12q0 82 29 123t94 41q56 0 76 -52h4q10 26 30 39t46 13q66 0 94.5 -41t28.5 -123l-96 -12q0 43 -8 57t-25 14q-19 0 -25.5 -13.5t-6.5 -32.5v-23h-80v23q0 19 -6.5 32.5t-26.5 13.5q-17 0 -24.5 -14t-7.5 -57z" />
    <glyph glyph-name="uni033D" unicode="&#x33d;" 
d="M234 566l-56 50l64 56l-64 56l56 50l66 -54l66 54l56 -50l-64 -56l64 -56l-56 -50l-66 54z" />
    <glyph glyph-name="uni0342" unicode="&#x342;" 
d="M364 572q-23 0 -41.5 8.5t-33.5 19t-27 19.5t-22 9q-12 0 -19.5 -9.5t-10.5 -36.5l-106 6q2 85 37 121.5t95 36.5q22 0 41 -9t34 -19.5t27 -19t22 -8.5q12 0 19.5 9.5t10.5 36.5l106 -6q-2 -85 -37 -121.5t-95 -36.5z" />
    <glyph glyph-name="uni0345" unicode="&#x345;" 
d="M358 -222q-35 0 -58.5 10t-38 28.5t-21 44t-6.5 57.5v30h122q-2 -11 -2 -20.5v-15.5q0 -20 11.5 -26.5t28.5 -6.5h7t8 1l16 -90q-11 -5 -27.5 -8.5t-39.5 -3.5z" />
    <glyph glyph-name="uni035F" unicode="&#x35f;" 
d="M-214 -196v108h1028v-108h-1028z" />
    <glyph glyph-name="uni0361" unicode="&#x361;" 
d="M-114 580l-44 78q104 63 222 92.5t236 29.5t236 -29.5t222 -92.5l-44 -78q-49 27 -103 44.5t-108.5 28t-106.5 15t-96 4.5t-96 -4.5t-106.5 -15t-108.5 -28t-103 -44.5z" />
    <glyph glyph-name="uni0374" unicode="&#x374;" 
d="M222 364l18 320h172l-26 -140l-52 -180h-112z" />
    <glyph glyph-name="uni0375" unicode="&#x375;" 
d="M188 0l26 140l52 180h112l-18 -320h-172z" />
    <glyph glyph-name="uni037A" unicode="&#x37a;" 
d="M358 -222q-35 0 -58.5 10t-38 28.5t-21 44t-6.5 57.5v30h122q-2 -11 -2 -20.5v-15.5q0 -20 11.5 -26.5t28.5 -6.5h7t8 1l16 -90q-11 -5 -27.5 -8.5t-39.5 -3.5z" />
    <glyph glyph-name="uni037E" unicode="&#x37e;" 
d="M300 298q-29 0 -53 10t-41 28t-26.5 41.5t-9.5 50.5t9.5 50.5t26.5 41t41 28t53 10.5t53 -10.5t41 -28t26.5 -41t9.5 -50.5t-9.5 -50.5t-26.5 -41.5t-41 -28t-53 -10zM218 -218l-41 98q68 22 100.5 56.5t30.5 75.5h-8q-23 0 -45 7.5t-38.5 22t-26.5 35.5t-10 48
q0 51 36 82t89 31q68 0 102.5 -49.5t34.5 -138.5q0 -99 -56 -167.5t-168 -100.5z" />
    <glyph glyph-name="tonos" unicode="&#x384;" 
d="M352 558l-114 16l30 268l166 -24z" />
    <glyph glyph-name="dieresistonos" unicode="&#x385;" 
d="M156 580q-27 0 -46.5 18t-19.5 48q0 31 19.5 48.5t46.5 17.5t46.5 -17.5t19.5 -48.5q0 -30 -19.5 -48t-46.5 -18zM244 584l34 258l118 -18l-78 -252zM444 580q-27 0 -46.5 18t-19.5 48q0 31 19.5 48.5t46.5 17.5t46.5 -17.5t19.5 -48.5q0 -30 -19.5 -48t-46.5 -18z" />
    <glyph glyph-name="Alphatonos" unicode="&#x386;" 
d="M292 316l-8 -45h87l-8 45q-8 47 -16 88.5t-19 97.5h-4q-5 -28 -9 -51.5t-8 -46t-7.5 -44t-7.5 -44.5zM60 0l166 650h208l166 -650h-182l-24 138h-134l-24 -138h-176zM98 330l-108 20l48 340l144 -20z" />
    <glyph glyph-name="anoteleia" unicode="&#x387;" 
d="M300 274q-29 0 -53 10t-41 28t-26.5 41.5t-9.5 50.5t9.5 50.5t26.5 41t41 28t53 10.5t53 -10.5t41 -28t26.5 -41t9.5 -50.5t-9.5 -50.5t-26.5 -41.5t-41 -28t-53 -10z" />
    <glyph glyph-name="Epsilontonos" unicode="&#x388;" 
d="M214 0v650h312v-144h-160v-102h120v-144h-120v-116h170v-144h-322zM98 330l-108 20l48 340l144 -20z" />
    <glyph glyph-name="Etatonos" unicode="&#x389;" 
d="M198 0v650h152v-242h60v242h152v-650h-152v258h-60v-258h-152zM98 330l-108 20l48 340l144 -20z" />
    <glyph glyph-name="Iotatonos" unicode="&#x38a;" 
d="M206 0v144h78v362h-78v144h328v-144h-78v-362h78v-144h-328zM98 330l-108 20l48 340l144 -20z" />
    <glyph glyph-name="Omicrontonos" unicode="&#x38c;" 
d="M356 -12q-47 0 -85.5 23t-66 66.5t-43 107t-15.5 143.5q0 84 15.5 146.5t43 104.5t66 62.5t85.5 20.5t85.5 -20.5t66.5 -62.5t43 -104.5t15 -146.5t-15 -147.5t-43 -106.5t-66.5 -64.5t-85.5 -21.5zM356 136q12 0 21 9t15 31.5t9 59t3 92.5q0 55 -3 91t-9 57t-15 29.5
t-21 8.5q-11 0 -20 -8.5t-15 -29.5t-9.5 -57t-3.5 -91q0 -56 3.5 -92.5t9.5 -59t15 -31.5t20 -9zM98 330l-108 20l48 340l144 -20z" />
    <glyph glyph-name="Upsilontonos" unicode="&#x38e;" 
d="M344 0v215l-136 435h155l27 -142q8 -40 15 -74.5t14 -73.5h4q7 39 15 73.5t16 74.5l28 142h150l-136 -435v-215h-152zM108 330l-108 20l48 340l144 -20z" />
    <glyph glyph-name="Omegatonos" unicode="&#x38f;" 
d="M138 0v138h76v4q-27 46 -46.5 102t-19.5 136q0 63 15 115t42 89t65.5 57.5t85.5 20.5t85.5 -20.5t65.5 -57.5t42 -89t15 -115q0 -80 -19.5 -136t-46.5 -102v-4h76v-138h-200v124q10 33 16 59t9 50t4 50t1 59q0 92 -12.5 132t-35.5 40t-35.5 -40t-12.5 -132q0 -33 1 -59
t4 -50t9 -50t16 -59v-124h-200zM98 330l-108 20l48 340l144 -20z" />
    <glyph glyph-name="iotadieresistonos" unicode="&#x390;" 
d="M390 -12q-59 0 -97.5 16t-61.5 44.5t-32 68.5t-9 89v160h-136v134h310q-2 -38 -4 -80.5t-3.5 -83t-3 -76.5t-1.5 -60q0 -43 20.5 -58.5t63.5 -15.5q14 0 35 4t39 12l36 -126q-26 -11 -64 -19.5t-92 -8.5zM133 580q-27 0 -46.5 18t-19.5 48q0 31 19.5 48.5t46.5 17.5
t46.5 -17.5t19.5 -48.5q0 -30 -19.5 -48t-46.5 -18zM221 584l34 258l118 -18l-78 -252zM421 580q-27 0 -46.5 18t-19.5 48q0 31 19.5 48.5t46.5 17.5t46.5 -17.5t19.5 -48.5q0 -30 -19.5 -48t-46.5 -18z" />
    <glyph glyph-name="Alpha" unicode="&#x391;" 
d="M249 316l-10 -45h116l-10 45q-11 47 -23.5 101.5t-23.5 104.5h-4q-11 -50 -22.5 -104.5t-22.5 -101.5zM0 0l196 650h208l196 -650h-182l-32 138h-178l-32 -138h-176z" />
    <glyph glyph-name="Beta" unicode="&#x392;" 
d="M64 0v650h232q51 0 95.5 -7.5t77.5 -25.5t52 -49.5t19 -79.5q0 -21 -6.5 -42.5t-20 -41t-34.5 -34.5t-49 -22v-4q69 -14 103.5 -50.5t34.5 -101.5q0 -50 -19.5 -86.5t-54 -60t-80.5 -34.5t-98 -11h-252zM236 394h56q42 0 61 19t19 49t-19 43t-61 13h-56v-124zM236 132h68
q51 0 73.5 19t22.5 55t-22.5 52t-73.5 16h-68v-142z" />
    <glyph glyph-name="Gamma" unicode="&#x393;" 
d="M98 0v650h440v-144h-268v-506h-172z" />
    <glyph glyph-name="uni0394" unicode="&#x394;" 
d="M26 0v104l170 546h208l170 -546v-104h-548zM210 144h176l-41 172q-11 47 -23.5 101.5t-23.5 104.5h-4q-11 -50 -22.5 -104.5t-22.5 -101.5z" />
    <glyph glyph-name="Epsilon" unicode="&#x395;" 
d="M84 0v650h442v-144h-270v-102h230v-144h-230v-116h280v-144h-452z" />
    <glyph glyph-name="Zeta" unicode="&#x396;" 
d="M53 0v104l281 402h-254v144h467v-104l-281 -402h284v-144h-497z" />
    <glyph glyph-name="Eta" unicode="&#x397;" 
d="M58 0v650h172v-242h140v242h172v-650h-172v258h-140v-258h-172z" />
    <glyph glyph-name="Theta" unicode="&#x398;" 
d="M300 -12q-60 0 -109 23t-84 66.5t-54 107t-19 143.5t19 142.5t54 105t84 64.5t109 22t109 -22t84 -65t54 -105t19 -142t-19 -143.5t-54 -107t-84 -66.5t-109 -23zM300 136q42 0 66 51.5t24 140.5t-24 137.5t-66 48.5t-66 -48.5t-24 -137.5t24 -140.5t66 -51.5zM244 258
v150h112v-150h-112z" />
    <glyph glyph-name="Iota" unicode="&#x399;" 
d="M66 0v144h148v362h-148v144h468v-144h-148v-362h148v-144h-468z" />
    <glyph glyph-name="Kappa" unicode="&#x39a;" 
d="M56 0v650h174v-242h4l160 242h190l-192 -263l208 -387h-190l-119 250l-61 -84v-166h-174z" />
    <glyph glyph-name="Lambda" unicode="&#x39b;" 
d="M4 0l192 650h208l192 -650h-182l-68 284q-14 52 -24 102.5t-24 103.5h-4q-14 -53 -24.5 -103.5t-23.5 -102.5l-66 -284h-176z" />
    <glyph glyph-name="Mu" unicode="&#x39c;" 
d="M52 0v650h175l53 -212l18 -84h4l18 84l53 212h175v-650h-142v153q0 29 2.5 73.5t5.5 92t7 91.5t7 73h-3l-55 -193l-34 -118h-76l-36 118l-50 193h-4q3 -29 7 -73t7 -91.5t5.5 -92t2.5 -73.5v-153h-140z" />
    <glyph glyph-name="Nu" unicode="&#x39d;" 
d="M60 0v650h174l109 -290l53 -146h4q-3 26 -7 57t-8 63.5t-6.5 65t-2.5 62.5v188h164v-650h-174l-109 291l-53 145h-4q6 -56 15 -122t9 -126v-188h-164z" />
    <glyph glyph-name="Xi" unicode="&#x39e;" 
d="M64 0v144h472v-144h-472zM130 260v144h340v-144h-340zM74 506v144h452v-144h-452z" />
    <glyph glyph-name="Omicron" unicode="&#x39f;" 
d="M300 -12q-59 0 -108 21.5t-84 64t-54.5 106t-19.5 148.5q0 82 19.5 144.5t54.5 104.5t84 63.5t108 21.5t108 -21.5t84 -63.5t54.5 -104.5t19.5 -144.5q0 -85 -19.5 -148.5t-54.5 -106t-84 -64t-108 -21.5zM300 136q42 0 66 47t24 145q0 94 -24 140t-66 46t-66 -46
t-24 -140q0 -98 24 -145t66 -47z" />
    <glyph glyph-name="Pi" unicode="&#x3a0;" 
d="M58 0v650h484v-650h-172v506h-140v-506h-172z" />
    <glyph glyph-name="Rho" unicode="&#x3a1;" 
d="M64 0v650h244q52 0 99.5 -10.5t83 -36t56.5 -67t21 -102.5q0 -60 -21.5 -103t-57.5 -70.5t-83 -41t-98 -13.5h-72v-206h-172zM236 342h64q51 0 75.5 24t24.5 68t-26 62t-74 18h-64v-172z" />
    <glyph glyph-name="Sigma" unicode="&#x3a3;" 
d="M59 0v104l192 224l-190 218v104h456v-144h-242l148 -174l-150 -188h270v-144h-484z" />
    <glyph glyph-name="Tau" unicode="&#x3a4;" 
d="M214 0v506h-187v144h546v-144h-187v-506h-172z" />
    <glyph glyph-name="Upsilon" unicode="&#x3a5;" 
d="M214 0v215l-206 435h184l54 -142q13 -38 26 -73.5t27 -74.5h4q14 39 27.5 74.5t27.5 73.5l54 142h180l-206 -435v-215h-172z" />
    <glyph glyph-name="Phi" unicode="&#x3a6;" 
d="M438 328q0 54 -19.5 87t-52.5 44v-266q33 11 52.5 46t19.5 89zM162 328q0 -54 19.5 -89t52.5 -46v266q-33 -11 -52.5 -44t-19.5 -87zM234 -22v84q-50 6 -91 25.5t-70 53.5t-45 80.5t-16 106.5t16 106t45 79t70 52.5t91 24.5v82h132v-82q50 -5 91 -24.5t70 -52.5t45 -79
t16 -106t-16 -106.5t-45 -80.5t-70 -53.5t-91 -25.5v-84h-132z" />
    <glyph glyph-name="Chi" unicode="&#x3a7;" 
d="M4 0l188 334l-177 316h192l52 -106q11 -23 23 -49.5t26 -58.5h4q11 32 22 58.5t21 49.5l46 106h184l-177 -324l188 -326h-192l-60 116q-14 26 -25.5 52t-24.5 56h-4q-11 -30 -22.5 -56t-23.5 -52l-56 -116h-184z" />
    <glyph glyph-name="Psi" unicode="&#x3a8;" 
d="M230 0v210q-102 9 -160 66t-58 164v210h158v-200q0 -47 15.5 -71.5t44.5 -32.5v304h140v-304q29 8 44.5 32.5t15.5 71.5v200h158v-210q0 -107 -58 -164t-160 -66v-210h-140z" />
    <glyph glyph-name="uni03A9" unicode="&#x3a9;" 
d="M28 0v138h92v4q-14 15 -29.5 37t-28 50t-20.5 61t-8 70q0 67 19 123t53.5 95.5t84 61.5t109.5 22t109.5 -22t84 -61.5t53.5 -95.5t19 -123q0 -37 -8 -70t-20.5 -61t-28 -50t-29.5 -37v-4h92v-138h-234v124q16 30 26 55.5t16 50.5t8 52t2 60q0 77 -23 124.5t-67 47.5
t-67 -47.5t-23 -124.5q0 -33 2 -60t8 -52t16 -50.5t26 -55.5v-124h-234z" />
    <glyph glyph-name="Iotadieresis" unicode="&#x3aa;" 
d="M66 0v144h148v362h-148v144h468v-144h-148v-362h148v-144h-468zM182 694q-36 0 -59 23.5t-23 58.5t23 58.5t59 23.5t59 -23.5t23 -58.5t-23 -58.5t-59 -23.5zM418 694q-36 0 -59 23.5t-23 58.5t23 58.5t59 23.5t59 -23.5t23 -58.5t-23 -58.5t-59 -23.5z" />
    <glyph glyph-name="Upsilondieresis" unicode="&#x3ab;" 
d="M214 0v215l-206 435h184l54 -142q13 -38 26 -73.5t27 -74.5h4q14 39 27.5 74.5t27.5 73.5l54 142h180l-206 -435v-215h-172zM182 694q-36 0 -59 23.5t-23 58.5t23 58.5t59 23.5t59 -23.5t23 -58.5t-23 -58.5t-59 -23.5zM418 694q-36 0 -59 23.5t-23 58.5t23 58.5t59 23.5
t59 -23.5t23 -58.5t-23 -58.5t-59 -23.5z" />
    <glyph glyph-name="alphatonos" unicode="&#x3ac;" 
d="M232 -12q-45 0 -81 18t-61.5 52t-39.5 82.5t-14 109.5t17 110t45.5 82.5t65.5 51.5t76 18q42 0 75 -19t59 -69h4l14 76h170q-10 -41 -21.5 -88t-21.5 -92t-16.5 -84.5t-6.5 -65.5t13.5 -35t34.5 -9q14 0 32 6l20 -126q-15 -8 -39 -13t-57 -5q-56 0 -89 16t-51 60h-4
q-45 -76 -124 -76zM274 128q24 0 43.5 26t22.5 64l6 84q-13 30 -31 50t-37 20q-24 0 -45 -27t-21 -93q0 -68 17 -96t45 -28zM382 558l-114 16l30 268l166 -24z" />
    <glyph glyph-name="epsilontonos" unicode="&#x3ad;" 
d="M334 -12q-60 0 -110 9.5t-86 29t-56 48.5t-20 69q0 50 30 76t85 40v4q-48 15 -71.5 44t-23.5 58q0 39 19 66.5t52.5 45t80 26t102.5 8.5q52 0 106.5 -14.5t99.5 -43.5l-62 -110q-31 20 -65.5 29t-68.5 9q-54 0 -75 -11.5t-21 -28.5q0 -18 22 -25t62 -7q17 0 36.5 1
t36.5 3v-120q-22 2 -45 3t-44 1q-47 0 -67.5 -7.5t-20.5 -28.5t27 -32.5t93 -11.5q25 0 62 8.5t72 33.5l66 -108q-58 -40 -110 -52t-106 -12zM382 558l-114 16l30 268l166 -24z" />
    <glyph glyph-name="etatonos" unicode="&#x3ae;" 
d="M364 -176q2 58 4.5 122.5t4 127t2.5 118t1 94.5q0 48 -12.5 64t-45.5 16q-23 0 -42 -15t-38 -43v-308h-172v340q0 30 -2 74t-10 86h152l12 -80h4q31 37 68 64.5t90 27.5q44 0 74 -14.5t49 -41t27 -64.5t8 -84v-484h-174zM372 558l-114 16l30 268l166 -24z" />
    <glyph glyph-name="iotatonos" unicode="&#x3af;" 
d="M390 -12q-59 0 -97.5 16t-61.5 44.5t-32 68.5t-9 89v160h-136v134h310q-2 -38 -4 -80.5t-3.5 -83t-3 -76.5t-1.5 -60q0 -43 20.5 -58.5t63.5 -15.5q14 0 35 4t39 12l36 -126q-26 -11 -64 -19.5t-92 -8.5zM329 558l-114 16l30 268l166 -24z" />
    <glyph glyph-name="upsilondieresistonos" unicode="&#x3b0;" 
d="M294 -12q-63 0 -106.5 17.5t-71 48.5t-40 73t-12.5 90q0 31 2 61.5t2 61.5q0 30 -2 74t-10 86h166q6 -26 8 -58t2 -68q0 -13 -1 -32.5t-2 -42.5t-2 -48t-1 -49q0 -35 19 -55.5t49 -20.5q40 0 58 33.5t18 108.5q0 43 -7 93t-23 115l166 36q14 -57 25 -116.5t11 -118.5
q0 -66 -15.5 -119.5t-46 -91t-77 -58t-109.5 -20.5zM147 580q-27 0 -46.5 18t-19.5 48q0 31 19.5 48.5t46.5 17.5t46.5 -17.5t19.5 -48.5q0 -30 -19.5 -48t-46.5 -18zM235 584l34 258l118 -18l-78 -252zM435 580q-27 0 -46.5 18t-19.5 48q0 31 19.5 48.5t46.5 17.5
t46.5 -17.5t19.5 -48.5q0 -30 -19.5 -48t-46.5 -18z" />
    <glyph glyph-name="alpha" unicode="&#x3b1;" 
d="M232 -12q-45 0 -81 18t-61.5 52t-39.5 82.5t-14 109.5t17 110t45.5 82.5t65.5 51.5t76 18q42 0 75 -19t59 -69h4l14 76h170q-10 -41 -21.5 -88t-21.5 -92t-16.5 -84.5t-6.5 -65.5t13.5 -35t34.5 -9q14 0 32 6l20 -126q-15 -8 -39 -13t-57 -5q-56 0 -89 16t-51 60h-4
q-45 -76 -124 -76zM274 128q24 0 43.5 26t22.5 64l6 84q-13 30 -31 50t-37 20q-24 0 -45 -27t-21 -93q0 -68 17 -96t45 -28z" />
    <glyph glyph-name="beta" unicode="&#x3b2;" 
d="M64 -176v642q0 51 13.5 95t41 77t70 51.5t101.5 18.5q42 0 82.5 -11t72 -33.5t50.5 -57.5t19 -83q0 -49 -19 -84t-57 -59v-4q25 -6 48 -21.5t40 -38t27.5 -51.5t10.5 -63q0 -57 -17.5 -97.5t-46 -66.5t-63.5 -38t-69 -12q-35 0 -71 13.5t-71 50.5q6 -117 12 -228h-174z
M316 128q32 0 56 20t24 66q0 32 -16 55t-48 23q-21 0 -36 -6l-20 124q43 5 58.5 31t15.5 65q0 35 -18.5 51.5t-41.5 16.5q-30 0 -44 -33t-16 -93q-2 -67 -4 -132.5t-2 -132.5q25 -32 48 -43.5t44 -11.5z" />
    <glyph glyph-name="gamma" unicode="&#x3b3;" 
d="M204 -176q2 15 3.5 28.5t2.5 29.5t1.5 36t0.5 48q0 42 -16 104.5t-43 132.5t-64 141.5t-79 131.5l176 36q15 -23 32 -56t34.5 -74.5t34.5 -89t31 -99.5h4q35 74 54 147.5t24 159.5h170q-11 -64 -25.5 -118.5t-37 -110t-56 -117t-83.5 -138.5q9 -48 11.5 -99t2.5 -93h-178
z" />
    <glyph glyph-name="delta" unicode="&#x3b4;" 
d="M296 -12q-52 0 -97 15.5t-78.5 45.5t-53 72.5t-19.5 96.5q0 37 12 67.5t32.5 55t47.5 43t56 32.5q-20 15 -38.5 32t-32.5 37t-22.5 44t-8.5 53q0 25 12 48t37 40.5t62.5 27.5t88.5 10q60 0 122.5 -12t113.5 -29l-38 -126q-51 17 -103.5 29t-94.5 12q-36 0 -36 -18
q0 -11 11.5 -22.5t31 -25t46 -30t57.5 -36.5q39 -25 67 -48.5t46 -50t26.5 -57.5t8.5 -70q0 -53 -17.5 -96t-50.5 -74.5t-80.5 -48.5t-107.5 -17zM300 126q17 0 32.5 5t27.5 16.5t19 30.5t7 48q0 37 -21.5 64t-54.5 50q-45 -11 -72.5 -39.5t-27.5 -80.5q0 -48 26.5 -71
t63.5 -23z" />
    <glyph glyph-name="epsilon" unicode="&#x3b5;" 
d="M334 -12q-60 0 -110 9.5t-86 29t-56 48.5t-20 69q0 50 30 76t85 40v4q-48 15 -71.5 44t-23.5 58q0 39 19 66.5t52.5 45t80 26t102.5 8.5q52 0 106.5 -14.5t99.5 -43.5l-62 -110q-31 20 -65.5 29t-68.5 9q-54 0 -75 -11.5t-21 -28.5q0 -18 22 -25t62 -7q17 0 36.5 1
t36.5 3v-120q-22 2 -45 3t-44 1q-47 0 -67.5 -7.5t-20.5 -28.5t27 -32.5t93 -11.5q25 0 62 8.5t72 33.5l66 -108q-58 -40 -110 -52t-106 -12z" />
    <glyph glyph-name="zeta" unicode="&#x3b6;" 
d="M476 -188l-134 42q20 27 33 47t13 39q0 10 -5 16.5t-18 12t-34 11t-53 12.5q-37 8 -73.5 23t-65.5 42t-47 69t-18 104q0 86 64.5 171t201.5 171q-17 -1 -45.5 -1.5t-61.5 -1.5t-66.5 -2.5t-60.5 -4.5v134h422v-134h-6q-65 -29 -115.5 -69.5t-85 -85.5t-53 -89t-18.5 -78
q0 -26 5 -44t19 -31t39 -22t65 -17q44 -9 74.5 -20.5t49.5 -27.5t27.5 -38t8.5 -52q0 -27 -14.5 -76t-47.5 -100z" />
    <glyph glyph-name="eta" unicode="&#x3b7;" 
d="M364 -176q2 58 4.5 122.5t4 127t2.5 118t1 94.5q0 48 -12.5 64t-45.5 16q-23 0 -42 -15t-38 -43v-308h-172v340q0 30 -2 74t-10 86h152l12 -80h4q31 37 68 64.5t90 27.5q44 0 74 -14.5t49 -41t27 -64.5t8 -84v-484h-174z" />
    <glyph glyph-name="theta" unicode="&#x3b8;" 
d="M300 -12q-56 0 -102.5 23t-79.5 68t-51.5 113t-18.5 158q0 92 18.5 159.5t51.5 111.5t79.5 65.5t102.5 21.5t102.5 -21.5t79.5 -65.5t51.5 -111.5t18.5 -159.5q0 -90 -18.5 -158t-51.5 -113t-79.5 -68t-102.5 -23zM300 570q-16 0 -30 -5.5t-25.5 -23t-19 -49.5t-10.5 -86
h170q-3 54 -10.5 86t-19 49.5t-25.5 23t-30 5.5zM300 126q16 0 30 7t25 25.5t19 51t11 84.5h-170q3 -52 10.5 -84.5t19 -51t25.5 -25.5t30 -7z" />
    <glyph glyph-name="iota" unicode="&#x3b9;" 
d="M390 -12q-59 0 -97.5 16t-61.5 44.5t-32 68.5t-9 89v160h-136v134h310q-2 -38 -4 -80.5t-3.5 -83t-3 -76.5t-1.5 -60q0 -43 20.5 -58.5t63.5 -15.5q14 0 35 4t39 12l36 -126q-26 -11 -64 -19.5t-92 -8.5z" />
    <glyph glyph-name="kappa" unicode="&#x3ba;" 
d="M395 -12q-26 35 -53 82.5t-59 113.5l-3 -3q-20 -20 -31.5 -55t-11.5 -95v-31h-162v340q0 30 -2 74t-10 86h170q6 -26 8 -58t2 -68v-70h4q27 40 56.5 76t63 64t72 45.5t83.5 22.5l13 -160q-37 -7 -68 -20.5t-70 -44.5q19 -36 42.5 -75.5t49 -78t51 -73t49.5 -60.5z" />
    <glyph glyph-name="lambda" unicode="&#x3bb;" 
d="M211 -12l-186 12l214 498l-2 12q-5 27 -29 40.5t-51 13.5q-24 0 -40 -4t-34 -12l-36 138q13 5 26 9t28 7t33 4.5t43 1.5q46 0 82 -11.5t64.5 -37t50 -65t37.5 -94.5l174 -500h-186l-82 308h-4z" />
    <glyph glyph-name="uni03BC" unicode="&#x3bc;" 
d="M56 -200v700h172v-286q0 -48 14 -64t40 -16t44 16t34 48v302h174q-2 -41 -4.5 -88t-4 -92t-2.5 -84.5t-1 -65.5t10.5 -35t27.5 -9h8.5t9.5 2l20 -126q-14 -6 -35 -10t-49 -4q-53 0 -85.5 23t-48.5 65h-4q-17 -39 -44 -60.5t-60 -21.5q-14 0 -28.5 2.5t-25.5 11.5
q2 -54 4 -104t8 -104h-174z" />
    <glyph glyph-name="nu" unicode="&#x3bd;" 
d="M208 0q-10 70 -30 136t-46 126t-56 114t-60 100l176 36q18 -32 37.5 -75.5t37 -89.5t31 -91t19.5 -81h4q35 83 52 163.5t23 161.5h170q-12 -67 -27.5 -126.5t-38.5 -118.5t-55 -121t-75 -134h-162z" />
    <glyph glyph-name="xi" unicode="&#x3be;" 
d="M476 -188l-134 42q20 27 33 47t13 39q0 10 -5 16.5t-18 12t-34 11t-53 12.5q-42 9 -79.5 23t-65 36t-43.5 54t-16 79q0 31 11.5 58.5t30.5 50t44.5 39.5t54.5 28v4q-48 18 -72.5 52t-24.5 76q0 20 9 42.5t27 37.5q-24 -2 -46.5 -3.5t-61.5 -6.5v134h482v-134h-139
q-48 0 -73.5 -20.5t-25.5 -55.5q0 -14 5.5 -28t16.5 -25t28.5 -18t41.5 -7q28 0 49 1t47 9v-132q-29 8 -54.5 9t-51.5 1q-55 0 -88.5 -24t-33.5 -60q0 -22 7 -35t23.5 -22t43 -15.5t64.5 -13.5q47 -9 76.5 -20.5t46 -27.5t22 -38t5.5 -52q0 -27 -13.5 -75t-48.5 -101z" />
    <glyph glyph-name="omicron" unicode="&#x3bf;" 
d="M300 -12q-50 0 -95.5 17.5t-81 51t-56.5 82.5t-21 111t21 111t56.5 82.5t81 51t95.5 17.5q49 0 95 -17.5t81.5 -51t56.5 -82.5t21 -111t-21 -111t-56.5 -82.5t-81.5 -51t-95 -17.5zM300 126q42 0 60 33.5t18 90.5t-18 90.5t-60 33.5t-60 -33.5t-18 -90.5t18 -90.5
t60 -33.5z" />
    <glyph glyph-name="pi" unicode="&#x3c0;" 
d="M514 -12q-47 0 -78 13.5t-50.5 38.5t-27.5 59.5t-8 76.5q0 8 0.5 28.5t1.5 47t1.5 56.5t0.5 58h-93q0 -85 -4.5 -182t-10.5 -194l-172 10q14 100 20 194.5t6 171.5h-96v128l76 6h516v-134h-78q-2 -29 -3.5 -61.5t-2 -60.5t-0.5 -48.5v-25.5q0 -26 11.5 -35t32.5 -9
q5 0 10 1t12 3l20 -126q-14 -6 -35 -11t-49 -5z" />
    <glyph glyph-name="rho" unicode="&#x3c1;" 
d="M64 -176v409q0 73 19 126t52 87t79 50t100 16q114 0 179 -66t65 -188q0 -65 -18 -115t-47.5 -84.5t-68 -52.5t-78.5 -18q-30 0 -63 10.5t-57 39.5q3 -54 6 -108.5t6 -105.5h-174zM304 128q16 0 30 6.5t24.5 21.5t17 39.5t6.5 60.5q0 62 -18.5 89t-55.5 27
q-38 0 -60 -33.5t-22 -86.5v-94q19 -19 38.5 -24.5t39.5 -5.5z" />
    <glyph glyph-name="uni03C2" unicode="&#x3c2;" 
d="M469 -188l-135 42q20 27 34 48.5t14 39.5q0 24 -18.5 37t-65.5 25q-41 10 -82.5 27.5t-74.5 47t-54 73t-21 106.5q0 60 24.5 107t66 80t95 50t110.5 17q56 0 103 -17t79 -49l-78 -106q-28 23 -49 28.5t-43 5.5q-58 0 -95 -31.5t-37 -84.5q0 -26 7.5 -44.5t23 -32
t39.5 -23t56 -16.5q48 -11 79.5 -24t50.5 -31t26.5 -42t7.5 -57q0 -27 -14.5 -76t-48.5 -100z" />
    <glyph glyph-name="sigma" unicode="&#x3c3;" 
d="M282 -12q-50 0 -93.5 16.5t-76 49t-51.5 80.5t-19 110q0 64 21 112.5t55.5 80t79 47.5t92.5 16h288v-140q-20 2 -36.5 4t-32.5 3.5t-32 2.5t-35 2v-4q35 -20 53 -60t18 -92q0 -53 -17 -95t-47.5 -71.5t-73 -45.5t-93.5 -16zM284 126q32 0 49 27.5t17 80.5q0 27 -4.5 50
t-12.5 40.5t-20.5 27.5t-28.5 10q-32 0 -49 -26.5t-17 -91.5q0 -57 17 -87.5t49 -30.5z" />
    <glyph glyph-name="tau" unicode="&#x3c4;" 
d="M388 -12q-49 0 -82.5 14.5t-53.5 40.5t-29 62.5t-9 80.5v180h-170v128l76 6h436v-134h-174q-3 -54 -4.5 -104t-1.5 -82t16 -43t42 -11q16 0 30.5 3t37.5 11l22 -128q-30 -11 -64 -17.5t-72 -6.5z" />
    <glyph glyph-name="upsilon" unicode="&#x3c5;" 
d="M294 -12q-63 0 -106.5 17.5t-71 48.5t-40 73t-12.5 90q0 31 2 61.5t2 61.5q0 30 -2 74t-10 86h166q6 -26 8 -58t2 -68q0 -13 -1 -32.5t-2 -42.5t-2 -48t-1 -49q0 -35 19 -55.5t49 -20.5q40 0 58 33.5t18 108.5q0 43 -7 93t-23 115l166 36q14 -57 25 -116.5t11 -118.5
q0 -66 -15.5 -119.5t-46 -91t-77 -58t-109.5 -20.5z" />
    <glyph glyph-name="phi" unicode="&#x3c6;" 
d="M164 250q0 -62 17.5 -94t48.5 -36v260q-31 -4 -48.5 -36t-17.5 -94zM436 250q0 62 -17 94t-49 36v-260q32 4 49 36t17 94zM230 -176v169q-42 3 -80 21.5t-67.5 51t-47 79t-17.5 105.5t17.5 105.5t47 79t67.5 51t80 21.5v123h140v-123q42 -3 80 -21.5t67.5 -51t47 -79
t17.5 -105.5t-17.5 -105.5t-47 -79t-67.5 -51t-80 -21.5v-169h-140z" />
    <glyph glyph-name="chi" unicode="&#x3c7;" 
d="M214 -188l-178 12l187 342l-189 310l170 36l102 -196h4l74 184h178l-170 -330l196 -322l-170 -36l-108 218h-4z" />
    <glyph glyph-name="psi" unicode="&#x3c8;" 
d="M230 -176v164q-60 2 -101 22t-65.5 52.5t-35 74t-10.5 86.5v117q0 30 -2 74t-10 86h156q6 -26 8 -58t2 -68q0 -15 -0.5 -36.5t-0.5 -45t-0.5 -45.5t-0.5 -39q0 -15 2.5 -30.5t9.5 -28t18.5 -20t29.5 -7.5v508h140v-508q16 1 28 8t20 23t12 41.5t4 63.5q0 47 -6 99.5
t-24 118.5l152 36q18 -57 27 -120.5t9 -125.5q0 -133 -55 -204.5t-167 -73.5v-164h-140z" />
    <glyph glyph-name="omega" unicode="&#x3c9;" 
d="M198 -12q-85 0 -132.5 70.5t-47.5 203.5q0 28 5 60.5t14.5 65.5t23 65t29.5 59l154 -60q-36 -63 -54 -115.5t-18 -108.5q0 -44 7 -73t27 -29t28 21.5t8 60.5q0 18 -1 32.5t-3 29t-4.5 31t-5.5 39.5h140q-3 -23 -5.5 -39.5t-4.5 -31t-3 -29t-1 -32.5q0 -45 6.5 -63.5
t23.5 -18.5q15 0 24.5 33.5t9.5 94.5q0 27 -2.5 51t-9 48t-18 49t-28.5 54l154 56q31 -52 49.5 -112t18.5 -134q0 -131 -44 -204.5t-130 -73.5q-33 0 -62 16.5t-46 59.5h-4q-17 -43 -41.5 -59.5t-56.5 -16.5z" />
    <glyph glyph-name="iotadieresis" unicode="&#x3ca;" 
d="M390 -12q-59 0 -97.5 16t-61.5 44.5t-32 68.5t-9 89v160h-136v134h310q-2 -38 -4 -80.5t-3.5 -83t-3 -76.5t-1.5 -60q0 -43 20.5 -58.5t63.5 -15.5q14 0 35 4t39 12l36 -126q-26 -11 -64 -19.5t-92 -8.5zM161 564q-40 0 -65 26t-25 64t25 64t65 26t65 -26t25 -64t-25 -64
t-65 -26zM393 564q-40 0 -65 26t-25 64t25 64t65 26t65 -26t25 -64t-25 -64t-65 -26z" />
    <glyph glyph-name="upsilondieresis" unicode="&#x3cb;" 
d="M294 -12q-63 0 -106.5 17.5t-71 48.5t-40 73t-12.5 90q0 31 2 61.5t2 61.5q0 30 -2 74t-10 86h166q6 -26 8 -58t2 -68q0 -13 -1 -32.5t-2 -42.5t-2 -48t-1 -49q0 -35 19 -55.5t49 -20.5q40 0 58 33.5t18 108.5q0 43 -7 93t-23 115l166 36q14 -57 25 -116.5t11 -118.5
q0 -66 -15.5 -119.5t-46 -91t-77 -58t-109.5 -20.5zM175 564q-40 0 -65 26t-25 64t25 64t65 26t65 -26t25 -64t-25 -64t-65 -26zM407 564q-40 0 -65 26t-25 64t25 64t65 26t65 -26t25 -64t-25 -64t-65 -26z" />
    <glyph glyph-name="omicrontonos" unicode="&#x3cc;" 
d="M300 -12q-50 0 -95.5 17.5t-81 51t-56.5 82.5t-21 111t21 111t56.5 82.5t81 51t95.5 17.5q49 0 95 -17.5t81.5 -51t56.5 -82.5t21 -111t-21 -111t-56.5 -82.5t-81.5 -51t-95 -17.5zM300 126q42 0 60 33.5t18 90.5t-18 90.5t-60 33.5t-60 -33.5t-18 -90.5t18 -90.5
t60 -33.5zM352 558l-114 16l30 268l166 -24z" />
    <glyph glyph-name="upsilontonos" unicode="&#x3cd;" 
d="M294 -12q-63 0 -106.5 17.5t-71 48.5t-40 73t-12.5 90q0 31 2 61.5t2 61.5q0 30 -2 74t-10 86h166q6 -26 8 -58t2 -68q0 -13 -1 -32.5t-2 -42.5t-2 -48t-1 -49q0 -35 19 -55.5t49 -20.5q40 0 58 33.5t18 108.5q0 43 -7 93t-23 115l166 36q14 -57 25 -116.5t11 -118.5
q0 -66 -15.5 -119.5t-46 -91t-77 -58t-109.5 -20.5zM343 558l-114 16l30 268l166 -24z" />
    <glyph glyph-name="omegatonos" unicode="&#x3ce;" 
d="M198 -12q-85 0 -132.5 70.5t-47.5 203.5q0 28 5 60.5t14.5 65.5t23 65t29.5 59l154 -60q-36 -63 -54 -115.5t-18 -108.5q0 -44 7 -73t27 -29t28 21.5t8 60.5q0 18 -1 32.5t-3 29t-4.5 31t-5.5 39.5h140q-3 -23 -5.5 -39.5t-4.5 -31t-3 -29t-1 -32.5q0 -45 6.5 -63.5
t23.5 -18.5q15 0 24.5 33.5t9.5 94.5q0 27 -2.5 51t-9 48t-18 49t-28.5 54l154 56q31 -52 49.5 -112t18.5 -134q0 -131 -44 -204.5t-130 -73.5q-33 0 -62 16.5t-46 59.5h-4q-17 -43 -41.5 -59.5t-56.5 -16.5zM352 558l-114 16l30 268l166 -24z" />
    <glyph glyph-name="uni03D0" unicode="&#x3d0;" 
d="M326 -12q-50 0 -97 14t-84 45t-59 79.5t-22 117.5v222q0 51 13.5 95t42 76t72 50.5t102.5 18.5q42 0 81.5 -10.5t70 -33t49.5 -57t19 -82.5q0 -49 -21 -87t-57 -56v-4q25 -5 48 -20t41 -38.5t28.5 -53t10.5 -62.5q0 -56 -19 -96.5t-51.5 -66.5t-76 -38.5t-91.5 -12.5z
M230 448q-1 -14 -1.5 -29.5t-1.5 -30.5q40 10 64.5 21t37.5 25t17 31.5t4 40.5q0 35 -18 51.5t-40 16.5q-35 0 -46.5 -35t-15.5 -91zM320 136q31 0 53.5 18.5t22.5 59.5q0 32 -17 55t-49 23q-27 0 -106 -25v-7q0 -34 8 -57.5t21.5 -38.5t31 -21.5t35.5 -6.5z" />
    <glyph glyph-name="uni03D1" unicode="&#x3d1;" 
d="M204 502q0 -20 7 -39t26.5 -32.5t54.5 -19.5t92 1q-4 45 -14 75.5t-23.5 49t-30.5 26.5t-36 7q-38 -1 -57 -21.5t-19 -46.5zM300 -12q-63 0 -106 16t-70 42.5t-38.5 60.5t-11.5 70q0 32 -1 56t-9 47h162q3 -5 5 -14.5t3 -21t1.5 -23t0.5 -19.5q0 -36 16 -56t54 -20
q18 0 32.5 8t24.5 28.5t15.5 56.5t6.5 92q-105 -12 -171 6.5t-102.5 51.5t-50 72t-13.5 69q0 41 17 77t47 63t71 42.5t89 15.5q67 0 119 -25.5t88 -72t54.5 -112.5t18.5 -146q0 -85 -15 -152.5t-45.5 -114.5t-78 -72t-113.5 -25z" />
    <glyph glyph-name="uni03D5" unicode="&#x3d5;" 
d="M164 250q0 -62 17.5 -94t48.5 -36v260q-31 -4 -48.5 -36t-17.5 -94zM436 250q0 62 -17 94t-49 36v-260q32 4 49 36t17 94zM230 -176v169q-42 3 -80 21.5t-67.5 51t-47 79t-17.5 105.5t17.5 105.5t47 79t67.5 51t80 21.5v123h140v-123q42 -3 80 -21.5t67.5 -51t47 -79
t17.5 -105.5t-17.5 -105.5t-47 -79t-67.5 -51t-80 -21.5v-169h-140z" />
    <glyph glyph-name="uni03D7" unicode="&#x3d7;" 
d="M461 -188l-202 12q37 39 72.5 82t61.5 84q-25 35 -52 81.5t-58 112.5l-3 -3q-20 -20 -31.5 -55t-11.5 -95v-31h-162v340q0 30 -2 74t-10 86h170q6 -26 8 -58t2 -68v-70h4q27 40 56.5 76t63 64t72 45.5t83.5 22.5l13 -160q-37 -7 -68 -20.5t-70 -44.5q19 -36 42.5 -75.5
t49 -78t51 -73t49.5 -60.5q-17 -26 -35 -53.5t-35 -53t-32.5 -47t-25.5 -34.5z" />
    <glyph glyph-name="uni03D9" unicode="&#x3d9;" 
d="M300 118q45 0 63.5 35t18.5 97q0 57 -18.5 90.5t-63.5 33.5t-63.5 -33.5t-18.5 -90.5q0 -62 18.5 -97t63.5 -35zM220 -176v176q-37 11 -69.5 33t-56.5 53.5t-38 72.5t-14 91q0 62 21.5 111t57.5 82.5t82.5 51t96.5 17.5t96.5 -17.5t82.5 -51t57.5 -82.5t21.5 -111
q0 -49 -13.5 -89.5t-37 -72t-55.5 -53.5t-68 -34q3 -45 5.5 -90t4.5 -87h-174z" />
    <glyph glyph-name="uni03DB" unicode="&#x3db;" 
d="M468 -188l-132 42q21 27 33.5 48.5t12.5 35.5q0 11 -2.5 20t-11.5 16.5t-25.5 14.5t-44.5 15q-42 11 -83 29.5t-74 47.5t-53 69t-20 94q0 64 22 112.5t60.5 80t90.5 47.5t111 16h186v-140q-43 2 -90.5 2h-81.5q-54 0 -88 -26.5t-34 -91.5q0 -35 26.5 -60.5t97.5 -41.5
q48 -11 79.5 -24t50.5 -31t26.5 -42t7.5 -57q0 -27 -15 -76t-49 -100z" />
    <glyph glyph-name="uni03DD" unicode="&#x3dd;" 
d="M104 -176v676h424v-134h-264l2 -136h242v-112h-240q0 -74 2.5 -143.5t7.5 -150.5h-174z" />
    <glyph glyph-name="uni03E1" unicode="&#x3e1;" 
d="M545 -182l-168 20q9 50 13.5 94.5t4.5 89.5v21t-1 20q-48 -23 -96 -48.5t-101 -54.5l-70 144l245 108q-6 22 -13.5 43t-15.5 42q-60 -26 -118.5 -57t-123.5 -67l-70 144l240 105q-32 43 -72.5 82t-91.5 74l112 126q172 -124 259 -297.5t87 -386.5q0 -49 -5.5 -99.5
t-14.5 -102.5z" />
    <glyph glyph-name="uni0400" unicode="&#x400;" 
d="M84 0v650h442v-144h-270v-102h230v-144h-230v-116h280v-144h-452zM360 674l-196 120l90 110l182 -144z" />
    <glyph glyph-name="uni0401" unicode="&#x401;" 
d="M84 0v650h442v-144h-270v-102h230v-144h-230v-116h280v-144h-452zM202 694q-36 0 -59 23.5t-23 58.5t23 58.5t59 23.5t59 -23.5t23 -58.5t-23 -58.5t-59 -23.5zM438 694q-36 0 -59 23.5t-23 58.5t23 58.5t59 23.5t59 -23.5t23 -58.5t-23 -58.5t-59 -23.5z" />
    <glyph glyph-name="uni0402" unicode="&#x402;" 
d="M416 -12q-21 0 -38 2t-32 8l26 130q6 -2 9.5 -3t8.5 -1q3 0 6 2t6 8.5t4.5 19.5t1.5 36q0 42 -15 63t-39 21q-15 0 -30 -6v-268h-172v506h-124v144h440v-144h-144v-102q15 2 29.5 4t28.5 2q35 0 68.5 -12t59.5 -38t42 -67.5t16 -100.5t-11 -98t-31 -62.5t-48 -33.5
t-62 -10z" />
    <glyph glyph-name="uni0403" unicode="&#x403;" 
d="M98 0v650h440v-144h-268v-506h-172zM260 674l-76 86l182 144l90 -110z" />
    <glyph glyph-name="uni0404" unicode="&#x404;" 
d="M361 -12q-64 0 -120.5 19t-98.5 59.5t-66.5 103t-24.5 150.5t25.5 152.5t68.5 106.5t100 62.5t120 20.5q65 0 116 -25.5t86 -60.5l-90 -110q-24 21 -49.5 34.5t-58.5 13.5q-49 0 -86.5 -25.5t-52.5 -84.5h203v-144h-207q11 -68 47.5 -96t93.5 -28q38 0 67.5 16.5
t50.5 39.5l90 -108q-42 -48 -96.5 -72t-117.5 -24z" />
    <glyph glyph-name="uni0405" unicode="&#x405;" 
d="M296 -12q-64 0 -130.5 22.5t-121.5 70.5l98 118q37 -28 79 -45.5t87 -17.5q39 0 55.5 11t16.5 27q0 14 -6.5 23.5t-18.5 17t-29.5 14.5t-39.5 16l-81 34q-28 10 -53 26.5t-43.5 39t-29.5 51.5t-11 64q0 42 18 78.5t50.5 64t78 43.5t101.5 16q58 0 116 -21t106 -66
l-86 -108q-35 23 -67.5 35t-78.5 12q-29 0 -46.5 -10.5t-17.5 -33.5q0 -11 7 -19.5t20 -15.5t32 -14t43 -16l75 -31q66 -24 101.5 -67t35.5 -111q0 -41 -17 -79t-50 -66.5t-81.5 -45.5t-111.5 -17z" />
    <glyph glyph-name="uni0406" unicode="&#x406;" 
d="M66 0v144h148v362h-148v144h468v-144h-148v-362h148v-144h-468z" />
    <glyph glyph-name="uni0407" unicode="&#x407;" 
d="M66 0v144h148v362h-148v144h468v-144h-148v-362h148v-144h-468zM182 694q-36 0 -59 23.5t-23 58.5t23 58.5t59 23.5t59 -23.5t23 -58.5t-23 -58.5t-59 -23.5zM418 694q-36 0 -59 23.5t-23 58.5t23 58.5t59 23.5t59 -23.5t23 -58.5t-23 -58.5t-59 -23.5z" />
    <glyph glyph-name="uni0408" unicode="&#x408;" 
d="M272 -12q-27 0 -56.5 5.5t-58.5 18t-56 33t-50 50.5l97 107q28 -32 58 -49t60 -17q21 0 37 4.5t27.5 16.5t17 32t5.5 51v266h-247v144h419v-424q0 -49 -13 -92t-43 -75.5t-78.5 -51.5t-118.5 -19z" />
    <glyph glyph-name="uni0409" unicode="&#x409;" 
d="M46 -12q-17 0 -32 1.5t-32 6.5l30 156q5 -2 8.5 -3t9.5 -1q4 0 7.5 3t6.5 14.5t7 34t9 62.5q14 105 18 204t6 184h306v-226h8q40 0 74 -11.5t59 -36t39 -64t14 -94.5q0 -62 -16 -103.5t-43.5 -67t-64 -36.5t-76.5 -11h-136v506h-34q-2 -31 -3 -59t-2.5 -59.5t-4.5 -69.5
t-8 -90q-6 -67 -16.5 -112.5t-28 -74t-43 -41t-62.5 -12.5zM390 136h6q25 0 39.5 18t14.5 62q0 72 -54 72h-6v-152z" />
    <glyph glyph-name="uni040A" unicode="&#x40a;" 
d="M26 0v650h152v-242h60v242h152v-226h8q40 0 74 -11.5t59 -36t39 -64t14 -94.5q0 -62 -15 -103.5t-41 -67t-60.5 -36.5t-73.5 -11h-156v258h-60v-258h-152zM390 136h6q20 0 32 16t12 64q0 41 -10.5 56.5t-33.5 15.5h-6v-152z" />
    <glyph glyph-name="uni040B" unicode="&#x40b;" 
d="M152 0v506h-124v144h440v-144h-144v-102q17 2 31 4t28 2q42 0 76 -10.5t58 -33t37.5 -58.5t13.5 -86v-222h-168v222q0 26 -10.5 39t-35.5 13q-15 0 -30 -6v-268h-172z" />
    <glyph glyph-name="uni040C" unicode="&#x40c;" 
d="M56 0v650h172v-246h39l71 142q32 65 77 90.5t105 25.5q15 0 31.5 -2t28.5 -8l-28 -154q-9 3 -17 3.5t-13 0.5q-23 0 -38.5 -10.5t-29.5 -39.5l-51 -106l197 -346h-184l-146 260h-42v-260h-172zM290 674l-76 86l182 144l90 -110z" />
    <glyph glyph-name="uni040D" unicode="&#x40d;" 
d="M58 0v650h154v-188q0 -30 -2.5 -62.5t-5.5 -65t-7 -63.5t-7 -57h4l52 146l122 290h174v-650h-154v188q0 60 8 126t14 122h-4l-52 -145l-122 -291h-174zM344 674l-196 120l90 110l182 -144z" />
    <glyph glyph-name="uni040E" unicode="&#x40e;" 
d="M180 -12q-31 0 -53 4t-37 10l30 148q9 -3 19.5 -5.5t32.5 -2.5q17 0 31.5 5t22.5 16l8 14l-220 473h182l58 -151l56 -166h4l54 166l52 151h172l-196 -491q-32 -80 -83 -125.5t-133 -45.5zM310 694q-50 0 -85 9t-57.5 26.5t-33.5 42t-12 56.5l144 6q3 -56 44 -56t44 56
l144 -6q-3 -63 -45.5 -98.5t-142.5 -35.5z" />
    <glyph glyph-name="uni040F" unicode="&#x40f;" 
d="M58 0v650h172v-506h140v506h172v-650h-158l-12 -188h-142v188h-172z" />
    <glyph glyph-name="uni0410" unicode="&#x410;" 
d="M249 316l-10 -45h116l-10 45q-11 47 -23.5 101.5t-23.5 104.5h-4q-11 -50 -22.5 -104.5t-22.5 -101.5zM0 0l196 650h208l196 -650h-182l-32 138h-178l-32 -138h-176z" />
    <glyph glyph-name="uni0411" unicode="&#x411;" 
d="M64 0v650h462v-144h-290v-102h78q51 0 97 -9.5t81 -32t55.5 -60t20.5 -92.5q0 -58 -20 -98t-54.5 -65t-80 -36t-95.5 -11h-254zM236 132h66q98 0 98 76q0 39 -25 54.5t-73 15.5h-66v-146z" />
    <glyph glyph-name="uni0412" unicode="&#x412;" 
d="M64 0v650h232q51 0 95.5 -7.5t77.5 -25.5t52 -49.5t19 -79.5q0 -21 -6.5 -42.5t-20 -41t-34.5 -34.5t-49 -22v-4q69 -14 103.5 -50.5t34.5 -101.5q0 -50 -19.5 -86.5t-54 -60t-80.5 -34.5t-98 -11h-252zM236 394h56q42 0 61 19t19 49t-19 43t-61 13h-56v-124zM236 132h68
q51 0 73.5 19t22.5 55t-22.5 52t-73.5 16h-68v-142z" />
    <glyph glyph-name="uni0413" unicode="&#x413;" 
d="M98 0v650h440v-144h-268v-506h-172z" />
    <glyph glyph-name="uni0414" unicode="&#x414;" 
d="M22 -188l-14 224v108h29q19 6 36.5 57.5t36.5 164.5q7 40 12.5 73t10.5 65t9.5 67t10.5 79h358v-506h81v-108l-14 -224h-154v188h-248v-188h-154zM262 344q-20 -124 -57 -200h134v362h-54q-3 -26 -5.5 -44t-5 -35t-5.5 -36t-7 -47z" />
    <glyph glyph-name="uni0415" unicode="&#x415;" 
d="M84 0v650h442v-144h-270v-102h230v-144h-230v-116h280v-144h-452z" />
    <glyph glyph-name="uni0416" unicode="&#x416;" 
d="M0 0l104 344l-20 118q-6 38 -34 38q-6 0 -11.5 -1t-10.5 -3l-26 158q11 3 23.5 5.5t26.5 2.5q48 0 82.5 -23.5t49.5 -86.5l35 -148h13v246h136v-246h13l35 148q15 63 49.5 86.5t82.5 23.5q14 0 26.5 -2.5t23.5 -5.5l-26 -158q-5 2 -10.5 3t-11.5 1q-28 0 -34 -38
l-20 -118l104 -344h-154l-50 260h-28v-260h-136v260h-28l-50 -260h-154z" />
    <glyph glyph-name="uni0417" unicode="&#x417;" 
d="M290 -12q-64 0 -130 21t-120 71l90 118q36 -32 76 -47t82 -15q49 0 77.5 18.5t28.5 53.5q0 33 -24 47.5t-80 14.5h-92v126h72q53 0 73.5 16t20.5 43q0 33 -24 46t-62 13t-68.5 -13t-65.5 -37l-86 114q48 42 105.5 63t120.5 21q125 0 186.5 -47.5t61.5 -130.5
q0 -45 -19.5 -81.5t-57.5 -56.5v-4q46 -14 76.5 -53t30.5 -95q0 -51 -20.5 -90t-57 -64.5t-86.5 -38.5t-108 -13z" />
    <glyph glyph-name="uni0418" unicode="&#x418;" 
d="M58 0v650h154v-188q0 -30 -2.5 -62.5t-5.5 -65t-7 -63.5t-7 -57h4l52 146l122 290h174v-650h-154v188q0 60 8 126t14 122h-4l-52 -145l-122 -291h-174z" />
    <glyph glyph-name="uni0419" unicode="&#x419;" 
d="M58 0v650h154v-188q0 -30 -2.5 -62.5t-5.5 -65t-7 -63.5t-7 -57h4l52 146l122 290h174v-650h-154v188q0 60 8 126t14 122h-4l-52 -145l-122 -291h-174zM304 694q-50 0 -85 9t-57.5 26.5t-33.5 42t-12 56.5l144 6q3 -56 44 -56t44 56l144 -6q-3 -63 -45.5 -98.5
t-142.5 -35.5z" />
    <glyph glyph-name="uni041A" unicode="&#x41a;" 
d="M56 0v650h172v-246h39l71 142q32 65 77 90.5t105 25.5q15 0 31.5 -2t28.5 -8l-28 -154q-9 3 -17 3.5t-13 0.5q-23 0 -38.5 -10.5t-29.5 -39.5l-51 -106l197 -346h-184l-146 260h-42v-260h-172z" />
    <glyph glyph-name="uni041B" unicode="&#x41b;" 
d="M76 -12q-30 0 -48.5 2t-35.5 8l30 154q6 -2 12.5 -3t15.5 -1q10 0 17.5 4t15 19t16 44.5t19.5 80.5q10 47 18.5 91t15.5 86.5t14 86t16 90.5h360v-650h-172v506h-56q-5 -31 -9 -58.5t-8.5 -55t-9.5 -55.5t-11 -59q-17 -85 -35.5 -141t-41.5 -89t-53 -46.5t-70 -13.5z" />
    <glyph glyph-name="uni041C" unicode="&#x41c;" 
d="M52 0v650h175l53 -212l18 -84h4l18 84l53 212h175v-650h-142v153q0 29 2.5 73.5t5.5 92t7 91.5t7 73h-3l-55 -193l-34 -118h-76l-36 118l-50 193h-4q3 -29 7 -73t7 -91.5t5.5 -92t2.5 -73.5v-153h-140z" />
    <glyph glyph-name="uni041D" unicode="&#x41d;" 
d="M58 0v650h172v-242h140v242h172v-650h-172v258h-140v-258h-172z" />
    <glyph glyph-name="uni041E" unicode="&#x41e;" 
d="M300 -12q-59 0 -108 21.5t-84 64t-54.5 106t-19.5 148.5q0 82 19.5 144.5t54.5 104.5t84 63.5t108 21.5t108 -21.5t84 -63.5t54.5 -104.5t19.5 -144.5q0 -85 -19.5 -148.5t-54.5 -106t-84 -64t-108 -21.5zM300 136q42 0 66 47t24 145q0 94 -24 140t-66 46t-66 -46
t-24 -140q0 -98 24 -145t66 -47z" />
    <glyph glyph-name="uni041F" unicode="&#x41f;" 
d="M58 0v650h484v-650h-172v506h-140v-506h-172z" />
    <glyph glyph-name="uni0420" unicode="&#x420;" 
d="M64 0v650h244q52 0 99.5 -10.5t83 -36t56.5 -67t21 -102.5q0 -60 -21.5 -103t-57.5 -70.5t-83 -41t-98 -13.5h-72v-206h-172zM236 342h64q51 0 75.5 24t24.5 68t-26 62t-74 18h-64v-172z" />
    <glyph glyph-name="uni0421" unicode="&#x421;" 
d="M358 -12q-61 0 -116.5 20.5t-98 62t-68 104t-25.5 145.5q0 82 25 145.5t68 107t101 66.5t124 23q63 0 114 -25.5t86 -58.5l-94 -106q-23 20 -48 31t-58 11q-30 0 -56 -13t-45 -37t-30 -59t-11 -79q0 -92 42 -141t108 -49q32 0 58.5 14.5t47.5 37.5l94 -104
q-41 -48 -96.5 -72t-121.5 -24z" />
    <glyph glyph-name="uni0422" unicode="&#x422;" 
d="M214 0v506h-187v144h546v-144h-187v-506h-172z" />
    <glyph glyph-name="uni0423" unicode="&#x423;" 
d="M180 -12q-31 0 -53 4t-37 10l30 148q9 -3 19.5 -5.5t32.5 -2.5q17 0 31.5 5t22.5 16l8 14l-220 473h182l58 -151l56 -166h4l54 166l52 151h172l-196 -491q-32 -80 -83 -125.5t-133 -45.5z" />
    <glyph glyph-name="uni0424" unicode="&#x424;" 
d="M162 328q0 -54 17.5 -84t54.5 -40v245q-37 -10 -54.5 -38.5t-17.5 -82.5zM438 328q0 54 -17.5 82.5t-54.5 38.5v-245q37 10 54.5 40t17.5 84zM234 -12v88q-107 13 -164.5 75t-57.5 177t57.5 175.5t164.5 73.5v85h132v-85q107 -13 164.5 -73.5t57.5 -175.5t-57.5 -177
t-164.5 -75v-88h-132z" />
    </font>
</defs>
</svg>
