<svg width="20" height="20" viewBox="0 0 20 20" fill="none" xmlns="http://www.w3.org/2000/svg">
<path opacity="0.2" d="M15.625 3.125H12.8125C12.4673 3.125 12.1875 3.40482 12.1875 3.75V16.25C12.1875 16.5952 12.4673 16.875 12.8125 16.875H15.625C15.9702 16.875 16.25 16.5952 16.25 16.25V3.75C16.25 3.40482 15.9702 3.125 15.625 3.125Z" fill="white"/>
<path opacity="0.2" d="M7.1875 3.125H4.375C4.02982 3.125 3.75 3.40482 3.75 3.75V16.25C3.75 16.5952 4.02982 16.875 4.375 16.875H7.1875C7.53268 16.875 7.8125 16.5952 7.8125 16.25V3.75C7.8125 3.40482 7.53268 3.125 7.1875 3.125Z" fill="white"/>
<path d="M15.625 3.125H12.8125C12.4673 3.125 12.1875 3.40482 12.1875 3.75V16.25C12.1875 16.5952 12.4673 16.875 12.8125 16.875H15.625C15.9702 16.875 16.25 16.5952 16.25 16.25V3.75C16.25 3.40482 15.9702 3.125 15.625 3.125Z" stroke="white" stroke-width="2" stroke-linecap="round" stroke-linejoin="round"/>
<path d="M7.1875 3.125H4.375C4.02982 3.125 3.75 3.40482 3.75 3.75V16.25C3.75 16.5952 4.02982 16.875 4.375 16.875H7.1875C7.53268 16.875 7.8125 16.5952 7.8125 16.25V3.75C7.8125 3.40482 7.53268 3.125 7.1875 3.125Z" stroke="white" stroke-width="2" stroke-linecap="round" stroke-linejoin="round"/>
</svg>
