<svg width="20" height="20" viewBox="0 0 20 20" fill="none" xmlns="http://www.w3.org/2000/svg">
<path opacity="0.2" d="M17.8241 9.46679L6.57591 2.59268C6.48117 2.53478 6.37272 2.50317 6.2617 2.50109C6.15069 2.49901 6.04112 2.52654 5.94428 2.58085C5.84744 2.63516 5.76681 2.71429 5.7107 2.8101C5.65458 2.90591 5.625 3.01494 5.625 3.12598V16.8742C5.625 16.9852 5.65458 17.0943 5.7107 17.1901C5.76681 17.2859 5.84744 17.365 5.94428 17.4193C6.04112 17.4736 6.15069 17.5012 6.2617 17.4991C6.37272 17.497 6.48117 17.4654 6.57591 17.4075L17.8241 10.5334C17.9154 10.4776 17.9909 10.3992 18.0433 10.3058C18.0957 10.2124 18.1232 10.1072 18.1232 10.0001C18.1232 9.89302 18.0957 9.78775 18.0433 9.69437C17.9909 9.60099 17.9154 9.52262 17.8241 9.46679Z" fill="white"/>
<path d="M17.8241 9.46679L6.57591 2.59268C6.48117 2.53478 6.37272 2.50317 6.2617 2.50109C6.15069 2.49901 6.04112 2.52654 5.94428 2.58085C5.84744 2.63516 5.76681 2.71429 5.7107 2.8101C5.65458 2.90591 5.625 3.01494 5.625 3.12598V16.8742C5.625 16.9852 5.65458 17.0943 5.7107 17.1901C5.76681 17.2859 5.84744 17.365 5.94428 17.4193C6.04112 17.4736 6.15069 17.5012 6.2617 17.4991C6.37272 17.497 6.48117 17.4654 6.57591 17.4075L17.8241 10.5334C17.9154 10.4776 17.9909 10.3992 18.0433 10.3058C18.0957 10.2124 18.1232 10.1072 18.1232 10.0001C18.1232 9.89302 18.0957 9.78775 18.0433 9.69437C17.9909 9.60099 17.9154 9.52262 17.8241 9.46679Z" stroke="white" stroke-width="2" stroke-linecap="round" stroke-linejoin="round"/>
</svg>
