<svg width="24" height="24" viewBox="0 0 24 24" fill="none" xmlns="http://www.w3.org/2000/svg">
<path opacity="0.2" d="M12 3C10.22 3 8.47991 3.52784 6.99987 4.51677C5.51983 5.50571 4.36628 6.91131 3.68509 8.55585C3.0039 10.2004 2.82567 12.01 3.17294 13.7558C3.5202 15.5016 4.37737 17.1053 5.63604 18.364C6.89472 19.6226 8.49836 20.4798 10.2442 20.8271C11.99 21.1743 13.7996 20.9961 15.4442 20.3149C17.0887 19.6337 18.4943 18.4802 19.4832 17.0001C20.4722 15.5201 21 13.78 21 12C21 10.8181 20.7672 9.64778 20.3149 8.55585C19.8626 7.46392 19.1997 6.47176 18.364 5.63604C17.5282 4.80031 16.5361 4.13737 15.4442 3.68508C14.3522 3.23279 13.1819 3 12 3ZM13.5904 13.591L8.02197 15.9775L10.4085 10.409L16.2243 7.76518L13.5904 13.591Z" fill="#7B7D82"/>
<path d="M12 21C16.9706 21 21 16.9706 21 12C21 7.02944 16.9706 3 12 3C7.02944 3 3 7.02944 3 12C3 16.9706 7.02944 21 12 21Z" stroke="#7B7D82" stroke-width="2" stroke-miterlimit="10"/>
<path d="M13.5904 13.591L16.2243 7.76514L10.4085 10.409L8.02197 15.9774L13.5904 13.591Z" stroke="#7B7D82" stroke-width="2" stroke-linecap="round" stroke-linejoin="round"/>
</svg>
