<svg width="24" height="24" viewBox="0 0 24 24" fill="none" xmlns="http://www.w3.org/2000/svg">
<path fill-rule="evenodd" clip-rule="evenodd" d="M17.1689 6.95981C17.0543 4.20214 14.7264 2.00005 11.8724 2.00005C8.94822 1.9876 6.56519 4.29304 6.55238 7.15028L6.55237 9.26812L6.55921 9.36743C6.60888 9.72466 6.92267 10 7.30237 10C7.71658 10 8.05237 9.67233 8.05237 9.26812V7.15349L8.05817 6.96289C8.16872 5.00612 9.83572 3.45515 11.8691 3.4638C13.9711 3.4638 15.6734 5.12492 15.6734 7.173V9.26812L15.6802 9.36743C15.7299 9.72466 16.0437 10 16.4234 10C16.8376 10 17.1734 9.67233 17.1734 9.26812V7.173L17.1689 6.95981ZM12.6059 14.1012C12.5562 13.7351 12.2424 13.453 11.8627 13.453C11.4485 13.453 11.1127 13.7888 11.1127 14.203V16.424L11.1196 16.5257C11.1693 16.8918 11.4831 17.174 11.8627 17.174C12.277 17.174 12.6127 16.8382 12.6127 16.424V14.203L12.6059 14.1012Z" fill="#7B7D82"/>
<rect x="5" y="10" width="14" height="11" rx="1" stroke="#7B7D82" stroke-width="2"/>
</svg>
