<svg width="24" height="24" viewBox="0 0 24 24" fill="none" xmlns="http://www.w3.org/2000/svg">
<path opacity="0.2" d="M9.21967 4.71967L12 7.5H3V5.25C3 5.05109 3.07902 4.86032 3.21967 4.71967C3.36032 4.57902 3.55109 4.5 3.75 4.5H8.68934C8.78783 4.5 8.88536 4.5194 8.97635 4.55709C9.06735 4.59478 9.15003 4.65003 9.21967 4.71967Z" fill="white"/>
<path d="M20.3333 19.5H3.69231C3.50886 19.4995 3.33308 19.4264 3.20337 19.2966C3.07365 19.1669 3.00054 18.9911 3 18.8077V7.5H20.25C20.4489 7.5 20.6397 7.57902 20.7803 7.71967C20.921 7.86032 21 8.05109 21 8.25V18.8333C21 19.0101 20.9298 19.1797 20.8047 19.3047C20.6797 19.4298 20.5101 19.5 20.3333 19.5V19.5Z" stroke="white" stroke-width="1.5" stroke-linecap="round" stroke-linejoin="round"/>
<path d="M3 7.5V5.25C3 5.05109 3.07902 4.86032 3.21967 4.71967C3.36032 4.57902 3.55109 4.5 3.75 4.5H8.68934C8.78783 4.5 8.88536 4.5194 8.97635 4.55709C9.06735 4.59478 9.15003 4.65003 9.21967 4.71967L12 7.5" stroke="white" stroke-width="1.5" stroke-linecap="round" stroke-linejoin="round"/>
</svg>
