<svg width="24" height="24" viewBox="0 0 24 24" fill="none" xmlns="http://www.w3.org/2000/svg">
<path fill-rule="evenodd" clip-rule="evenodd" d="M20.8064 7.62337L20.184 6.54328C19.6574 5.62936 18.4905 5.31408 17.5753 5.83847C17.1397 6.0951 16.6198 6.16791 16.1305 6.04084C15.6411 5.91378 15.2224 5.59727 14.9666 5.16113C14.8021 4.8839 14.7137 4.56815 14.7103 4.2458C14.7251 3.72898 14.5302 3.22816 14.1698 2.85743C13.8094 2.48669 13.3143 2.27762 12.7973 2.27783H11.5433C11.0367 2.27783 10.5511 2.47967 10.1938 2.8387C9.83644 3.19773 9.63693 3.68435 9.63937 4.19088C9.62435 5.23668 8.77224 6.07657 7.72632 6.07646C7.40397 6.07311 7.08821 5.9847 6.81099 5.82017C5.89582 5.29577 4.72887 5.61105 4.20229 6.52497L3.5341 7.62337C3.00817 8.53615 3.31916 9.70236 4.22975 10.2321C4.82166 10.5738 5.18629 11.2053 5.18629 11.8888C5.18629 12.5723 4.82166 13.2038 4.22975 13.5456C3.32031 14.0717 3.00898 15.2351 3.5341 16.1451L4.16568 17.2344C4.4124 17.6795 4.82636 18.008 5.31595 18.1472C5.80554 18.2863 6.3304 18.2247 6.77438 17.9758C7.21084 17.7211 7.73094 17.6513 8.2191 17.782C8.70725 17.9126 9.12299 18.2328 9.37392 18.6714C9.53845 18.9486 9.62686 19.2644 9.63021 19.5868C9.63021 20.6433 10.4867 21.4998 11.5433 21.4998H12.7973C13.8502 21.4998 14.7053 20.6489 14.7103 19.5959C14.7079 19.0878 14.9086 18.5998 15.2679 18.2405C15.6272 17.8812 16.1152 17.6804 16.6233 17.6829C16.9449 17.6915 17.2594 17.7795 17.5387 17.9392C18.4515 18.4651 19.6177 18.1541 20.1474 17.2435L20.8064 16.1451C21.0615 15.7073 21.1315 15.1858 21.001 14.6961C20.8704 14.2065 20.55 13.7891 20.1108 13.5364C19.6715 13.2837 19.3511 12.8663 19.2206 12.3767C19.09 11.8871 19.16 11.3656 19.4151 10.9277C19.581 10.6381 19.8211 10.398 20.1108 10.2321C21.0159 9.70265 21.3262 8.54325 20.8064 7.63252V7.62337Z" fill="#7B7D82" fill-opacity="0.3" stroke="#7B7D82" stroke-width="2" stroke-linecap="round" stroke-linejoin="round"/>
<circle cx="12.1747" cy="11.8886" r="2.63616" stroke="#7B7D82" stroke-width="1.5" stroke-linecap="round" stroke-linejoin="round"/>
</svg>
