<svg width="257" height="228" viewBox="0 0 257 228" fill="none" xmlns="http://www.w3.org/2000/svg">
<path d="M130.011 228C179.302 228 219.466 188.003 219.466 138.877C219.466 89.5855 179.468 49.7539 130.011 49.7539C80.5535 49.588 40.556 89.4195 40.556 138.711C40.556 188.003 80.5535 228 130.011 228Z" fill="white" fill-opacity="0.06"/>
<path d="M114.244 107.677L111.921 101.204C111.423 99.5446 109.763 98.5488 108.104 98.5488H67.2762C63.7909 98.5488 61.1355 101.204 61.1355 104.69V196.136V181.033H200.546V116.473C200.546 112.988 197.89 110.332 194.405 110.332H118.061C116.402 110.332 114.908 109.337 114.244 107.677Z" fill="white" fill-opacity="0.09"/>
<g filter="url(#filter0_bd_603_3513)">
<path d="M65.1187 54.8974L93.0007 103.359C93.8306 105.019 93.3327 107.176 91.673 108.006L44.2071 134.56C42.5475 135.39 40.3899 134.892 39.5601 133.233L4.54156 70.498C3.3798 68.8384 4.20963 66.6809 5.86927 65.851L40.3899 46.5991L65.1187 54.8974Z" fill="white" fill-opacity="0.06"/>
</g>
<path d="M40.0582 60.0422L17.1551 72.8215C16.6572 73.1535 15.8274 72.9875 15.6614 72.3236C15.3295 71.8257 15.4954 70.9959 15.9933 70.83L38.8965 58.2166C39.3944 57.8847 40.2242 58.0507 40.3901 58.5486C40.7221 59.0465 40.5561 59.8763 40.0582 60.0422Z" fill="#D5DDEA" fill-opacity="0.15"/>
<path d="M28.9384 73.4856L20.1423 78.2986C19.6444 78.6305 18.9805 78.4645 18.8145 77.9667C18.4826 77.4688 18.6486 76.6389 19.1465 76.473L27.7766 71.66C28.2745 71.3281 29.1043 71.494 29.2703 71.9919C29.7682 72.3239 29.6022 73.1537 28.9384 73.4856Z" fill="#D5DDEA" fill-opacity="0.15"/>
<path d="M40.3898 46.5991L48.0242 60.0423C49.1859 61.8679 51.6754 62.5317 53.501 61.5359L65.6164 54.8974" fill="#D5DDEA" fill-opacity="0.15"/>
<path d="M67.9398 84.439C66.4461 81.4516 64.4545 77.9663 61.965 75.4769C60.6373 74.1492 58.9777 73.3193 56.9861 73.3193C54.9945 73.3193 53.1689 73.9832 51.1773 74.979C47.6921 76.4727 44.5387 77.9663 41.3854 79.9579C38.564 81.6176 35.2447 83.4432 33.0872 86.0986C30.2658 89.9158 31.7594 93.733 33.751 97.7162C35.2447 100.704 37.2363 104.189 39.7258 106.678C41.7173 108.67 44.3728 109.334 47.0282 108.504C50.5135 107.674 56.9861 104.023 59.9734 102.197C62.6289 100.538 65.7822 99.0439 67.7738 96.5544C71.591 92.7372 70.2633 88.7541 67.9398 84.439ZM44.7047 88.5881C44.2068 87.5923 44.5387 86.7625 45.8665 86.9284C49.3517 87.0944 52.671 87.0944 55.9903 87.2604C57.318 87.2604 57.6499 87.9242 57.152 89.086C55.4924 91.9074 53.8328 94.8947 52.1731 97.8821C51.5092 98.8779 50.6794 98.8779 50.1815 98.0481C49.6836 97.5502 45.2026 89.4179 44.7047 88.5881Z" fill="#D5DDEA" fill-opacity="0.5"/>
<path d="M170.672 139.541L169.179 138.546C168.847 138.214 168.847 137.882 169.179 137.55C169.511 137.218 169.843 137.218 170.34 137.384L171.834 138.38C172.166 138.546 172.166 139.044 172 139.375C171.502 139.707 171.004 139.707 170.672 139.541Z" fill="#E3EAF2" fill-opacity="0.09"/>
<path d="M166.689 136.385L158.225 129.747C157.893 129.581 157.893 129.083 158.059 128.751C158.225 128.419 158.723 128.419 159.221 128.585L167.685 135.224C168.017 135.39 168.017 135.888 167.851 136.219C167.519 136.551 167.021 136.717 166.689 136.385Z" fill="#E3EAF2" fill-opacity="0.09"/>
<g filter="url(#filter1_bd_603_3513)">
<path d="M252.825 93.7334L221.125 134.727C220.13 136.22 218.138 136.386 216.644 135.225L177.145 104.189C175.651 103.193 175.485 101.202 176.647 99.7081L217.806 47.4292C218.802 45.9356 220.794 45.7696 222.287 46.9313L250.999 69.5026L252.825 93.7334Z" fill="white" fill-opacity="0.06"/>
</g>
<path d="M239.382 73.9839L220.296 59.0471C219.964 58.7152 219.798 58.2173 220.13 57.5534C220.462 57.2215 220.96 57.0555 221.623 57.3875L240.709 72.3243C241.041 72.6562 241.207 73.1541 240.875 73.818C240.377 74.3159 239.88 74.3159 239.382 73.9839Z" fill="#D5DDEA" fill-opacity="0.15"/>
<path d="M224.113 69.3379L216.976 63.5292C216.644 63.1972 216.478 62.6993 216.81 62.0355C217.142 61.5376 217.64 61.5376 218.304 61.8695L225.44 67.6783C225.772 68.0102 225.938 68.5081 225.606 69.172C225.108 69.6699 224.445 69.6699 224.113 69.3379Z" fill="#D5DDEA" fill-opacity="0.15"/>
<path d="M250.999 69.5015L242.203 80.6211C240.876 82.2807 241.373 84.6043 242.867 85.766L252.991 93.7323" fill="#D5DDEA" fill-opacity="0.15"/>
<path d="M240.544 96.2249L230.586 88.5905L220.296 80.4582L210.836 72.9898C209.84 72.16 208.181 72.326 207.351 73.4877L193.742 90.7481C192.912 91.7438 193.078 93.4035 194.074 94.2333L223.947 117.8C224.943 118.63 226.603 118.464 227.433 117.302L241.042 100.042C241.872 98.5484 241.706 97.2207 240.544 96.2249ZM209.01 96.0589L211.998 92.0758L221.126 99.2123L218.139 103.195L209.01 96.0589ZM217.309 104.357L214.487 108.008L205.359 100.872L208.181 97.2207L217.309 104.357ZM225.109 94.2333L222.122 98.2165L212.994 91.08L215.981 87.0968L225.109 94.2333ZM216.811 85.9351L220.13 81.9519L229.258 89.0884L226.271 93.0716L216.811 85.9351ZM233.407 107.013L223.283 99.0463L226.271 95.0631L236.395 103.029L233.407 107.013ZM211.832 90.0842L202.04 82.4498L205.027 78.4667L214.819 86.101L211.832 90.0842ZM201.044 83.6116L210.836 91.2459L207.849 95.2291L198.057 87.5947L201.044 83.6116ZM222.454 100.208L232.577 108.174L229.59 112.157L219.466 104.191L222.454 100.208ZM239.88 98.8803L237.39 102.034L227.267 94.0673L230.254 90.0842L239.548 97.3866C240.212 97.7186 240.212 98.3824 239.88 98.8803ZM209.84 73.8197L218.802 80.9561L215.815 84.9393L206.023 77.3049L208.513 74.1516C208.845 73.6537 209.508 73.6537 209.84 73.8197ZM194.903 91.4119L197.061 88.7565L206.853 96.3909L204.032 100.042L194.903 92.9056C194.572 92.5737 194.572 91.7438 194.903 91.4119ZM224.943 116.141L215.649 108.838L218.47 105.187L228.594 113.153L226.271 115.975C225.939 116.639 225.275 116.639 224.943 116.141Z" fill="#D5DDEA" fill-opacity="0.5"/>
<path d="M158.888 133.234L149.428 132.238C148.931 132.238 148.599 131.74 148.765 131.242C148.765 130.744 149.262 130.412 149.926 130.578L159.386 131.574C159.884 131.574 160.216 132.072 160.05 132.57C159.884 133.068 159.386 133.566 158.888 133.234Z" fill="white" fill-opacity="0.06"/>
<path d="M203.367 142.197L193.077 188.169C192.413 190.824 189.26 192.982 185.277 192.982H73.5826C69.7654 192.982 66.4461 190.99 65.7822 188.169L57.318 150.495C56.6542 147.673 59.8075 145.018 63.7907 145.018H126.857C128.849 145.018 130.343 144.022 131.006 142.86L132.832 138.877C133.496 137.55 135.155 136.72 136.981 136.72H197.06C200.878 136.72 203.865 139.375 203.367 142.197Z" fill="#D5DDEA" fill-opacity="0.2"/>
<g filter="url(#filter2_bd_603_3513)">
<path d="M173.66 43.7786L168.349 101.368C168.183 103.36 166.357 104.854 164.366 104.522L108.27 98.7129C106.278 98.5469 104.784 96.7213 104.95 94.7297L112.585 20.8754C112.751 18.8838 114.576 17.3902 116.568 17.7221L157.229 21.8712L173.66 43.7786Z" fill="white" fill-opacity="0.06"/>
</g>
<path d="M157.395 22.0396L155.735 37.8062C155.569 39.9637 157.229 42.1213 159.552 42.2872L173.825 43.7809" fill="#D5DDEA" fill-opacity="0.15"/>
<path d="M162.706 85.7667L116.733 80.6218C115.572 80.4558 114.742 79.626 114.908 78.4642L118.393 49.0885C118.559 48.0927 119.555 47.0969 120.551 47.2629L166.523 52.2418C167.685 52.4078 168.514 53.2376 168.348 54.3993L164.863 83.7751C164.697 84.9368 163.701 85.7667 162.706 85.7667Z" fill="#ECF0F8" fill-opacity="0.09"/>
<path d="M159.552 80.623L128.849 76.9718L146.275 61.5371L159.552 80.623Z" fill="white" fill-opacity="0.06"/>
<path d="M141.96 78.6322L120.717 76.1427L132.666 65.355L141.96 78.6322Z" fill="#7C8088"/>
<path d="M131.007 60.7074C133.33 60.7074 135.156 58.8818 135.156 56.5583C135.156 54.2348 133.33 52.4092 131.007 52.4092C128.683 52.4092 126.857 54.2348 126.857 56.5583C126.857 58.8818 128.683 60.7074 131.007 60.7074Z" fill="#D5DDEA" fill-opacity="0.15"/>
<path d="M148.765 31.6648L120.883 28.5115C120.551 28.5115 120.219 28.1795 120.385 27.8476V27.5157C120.385 27.1837 120.717 26.8518 121.049 27.0178L148.931 30.1711C149.263 30.1711 149.594 30.503 149.428 30.835V31.1669C149.594 31.4988 149.263 31.8308 148.765 31.6648Z" fill="#D5DDEA" fill-opacity="0.15"/>
<path d="M148.599 36.9729L120.385 33.8196C120.053 33.8196 119.721 33.4876 119.887 33.1557V32.8238C119.887 32.4918 120.219 32.1599 120.551 32.3259L148.765 35.4792C149.097 35.4792 149.429 35.8111 149.263 36.1431V36.475C149.429 36.641 148.931 36.9729 148.599 36.9729Z" fill="#D5DDEA" fill-opacity="0.15"/>
<path d="M149.594 91.2455L114.576 87.2624C114.078 87.2624 113.746 86.7645 113.912 86.2666C113.912 85.7687 114.41 85.4368 115.074 85.6027L149.926 89.5859C150.424 89.5859 150.756 90.0838 150.59 90.5817C150.424 91.0796 150.092 91.4115 149.594 91.2455Z" fill="#D5DDEA" fill-opacity="0.15"/>
<path d="M144.45 41.9534L119.887 39.132C119.389 39.132 119.057 38.6341 119.223 38.1362C119.223 37.6383 119.721 37.3064 120.385 37.4724L144.948 40.2938C145.446 40.2938 145.778 40.7917 145.612 41.2896C145.446 41.6215 145.114 41.9534 144.45 41.9534Z" fill="#D5DDEA" fill-opacity="0.15"/>
<path d="M162.54 98.0502L113.746 92.2414C113.248 92.2414 112.916 91.7435 113.082 91.2456C113.082 90.7477 113.58 90.4158 114.244 90.5817L163.038 96.2245C163.536 96.2245 163.867 96.7224 163.702 97.2203C163.536 97.7182 163.038 98.0502 162.54 98.0502Z" fill="#D5DDEA" fill-opacity="0.15"/>
<path d="M111.921 10.0881C111.257 10.42 110.427 10.0881 110.095 9.42424L107.108 1.95583C106.776 1.29197 107.108 0.462147 107.771 0.130218C108.435 -0.201712 109.265 0.130217 109.597 0.794076L112.584 8.26249C113.082 9.25828 112.75 9.92213 111.921 10.0881Z" fill="#D5DDEA" fill-opacity="0.15"/>
<path d="M106.444 17.3908C106.112 17.7228 105.78 17.8887 105.116 17.7228L97.3156 16.2291C96.6517 16.0631 95.9879 15.3993 96.1538 14.5694C96.3198 13.9056 96.9837 13.2417 97.8135 13.5736L105.614 15.0673C106.278 15.2333 106.942 15.8971 106.776 16.727C106.61 16.8929 106.61 17.2249 106.444 17.3908Z" fill="#D5DDEA" fill-opacity="0.15"/>
<path d="M122.21 9.25843C122.044 9.25843 121.878 9.09246 121.546 9.09246C121.048 8.59457 120.882 7.76475 121.38 7.10089L126.193 0.794228C126.691 0.296334 127.521 0.130369 128.185 0.628263C128.683 1.12616 128.849 1.95598 128.351 2.61984L123.538 8.9265C123.04 9.09246 122.542 9.25843 122.21 9.25843Z" fill="#D5DDEA" fill-opacity="0.15"/>
<defs>
<filter id="filter0_bd_603_3513" x="-18" y="24.5991" width="133.395" height="132.355" filterUnits="userSpaceOnUse" color-interpolation-filters="sRGB">
<feFlood flood-opacity="0" result="BackgroundImageFix"/>
<feGaussianBlur in="BackgroundImage" stdDeviation="11"/>
<feComposite in2="SourceAlpha" operator="in" result="effect1_backgroundBlur_603_3513"/>
<feColorMatrix in="SourceAlpha" type="matrix" values="0 0 0 0 0 0 0 0 0 0 0 0 0 0 0 0 0 0 127 0" result="hardAlpha"/>
<feOffset dy="4"/>
<feGaussianBlur stdDeviation="2"/>
<feColorMatrix type="matrix" values="0 0 0 0 0 0 0 0 0 0 0 0 0 0 0 0 0 0 0.25 0"/>
<feBlend mode="normal" in2="effect1_backgroundBlur_603_3513" result="effect2_dropShadow_603_3513"/>
<feBlend mode="normal" in="SourceGraphic" in2="effect2_dropShadow_603_3513" result="shape"/>
</filter>
<filter id="filter1_bd_603_3513" x="153.885" y="24.1689" width="120.94" height="133.818" filterUnits="userSpaceOnUse" color-interpolation-filters="sRGB">
<feFlood flood-opacity="0" result="BackgroundImageFix"/>
<feGaussianBlur in="BackgroundImage" stdDeviation="11"/>
<feComposite in2="SourceAlpha" operator="in" result="effect1_backgroundBlur_603_3513"/>
<feColorMatrix in="SourceAlpha" type="matrix" values="0 0 0 0 0 0 0 0 0 0 0 0 0 0 0 0 0 0 127 0" result="hardAlpha"/>
<feOffset dy="4"/>
<feGaussianBlur stdDeviation="2"/>
<feColorMatrix type="matrix" values="0 0 0 0 0 0 0 0 0 0 0 0 0 0 0 0 0 0 0.25 0"/>
<feBlend mode="normal" in2="effect1_backgroundBlur_603_3513" result="effect2_dropShadow_603_3513"/>
<feBlend mode="normal" in="SourceGraphic" in2="effect2_dropShadow_603_3513" result="shape"/>
</filter>
<filter id="filter2_bd_603_3513" x="82.9378" y="-4.32422" width="112.722" height="130.892" filterUnits="userSpaceOnUse" color-interpolation-filters="sRGB">
<feFlood flood-opacity="0" result="BackgroundImageFix"/>
<feGaussianBlur in="BackgroundImage" stdDeviation="11"/>
<feComposite in2="SourceAlpha" operator="in" result="effect1_backgroundBlur_603_3513"/>
<feColorMatrix in="SourceAlpha" type="matrix" values="0 0 0 0 0 0 0 0 0 0 0 0 0 0 0 0 0 0 127 0" result="hardAlpha"/>
<feOffset dy="4"/>
<feGaussianBlur stdDeviation="2"/>
<feColorMatrix type="matrix" values="0 0 0 0 0 0 0 0 0 0 0 0 0 0 0 0 0 0 0.25 0"/>
<feBlend mode="normal" in2="effect1_backgroundBlur_603_3513" result="effect2_dropShadow_603_3513"/>
<feBlend mode="normal" in="SourceGraphic" in2="effect2_dropShadow_603_3513" result="shape"/>
</filter>
</defs>
</svg>
