<svg width="24" height="24" viewBox="0 0 24 24" fill="none" xmlns="http://www.w3.org/2000/svg">
<path opacity="0.2" d="M3 19.5L5.82906 11.0128C5.87883 10.8635 5.97434 10.7336 6.10204 10.6416C6.22974 10.5495 6.38316 10.5 6.54057 10.5H19.5V8.25C19.5 8.05109 19.421 7.86032 19.2803 7.71967C19.1397 7.57902 18.9489 7.5 18.75 7.5H12.25C12.0877 7.5 11.9298 7.44737 11.8 7.35L9.2 5.4C9.07018 5.30263 8.91228 5.25 8.75 5.25H3.75C3.55109 5.25 3.36032 5.32902 3.21967 5.46967C3.07902 5.61032 3 5.80109 3 6V19.5Z" fill="#7B7D82"/>
<path d="M3 19.5V6C3 5.80109 3.07902 5.61032 3.21967 5.46967C3.36032 5.32902 3.55109 5.25 3.75 5.25H8.75C8.91228 5.25 9.07018 5.30263 9.2 5.4L11.8 7.35C11.9298 7.44737 12.0877 7.5 12.25 7.5H18.75C18.9489 7.5 19.1397 7.57902 19.2803 7.71967C19.421 7.86032 19.5 8.05109 19.5 8.25V10.5" stroke="#7B7D82" stroke-width="2" stroke-linecap="round" stroke-linejoin="round"/>
<path d="M3 19.5L5.82906 11.0128C5.87884 10.8635 5.97434 10.7336 6.10204 10.6416C6.22974 10.5495 6.38316 10.5 6.54057 10.5H21.4594C21.5783 10.5 21.6954 10.5282 21.8012 10.5824C21.907 10.6365 21.9984 10.7151 22.0679 10.8115C22.1373 10.9079 22.1829 11.0194 22.2009 11.1369C22.2188 11.2544 22.2085 11.3744 22.1709 11.4872L19.5 19.5H3Z" stroke="#7B7D82" stroke-width="2" stroke-linecap="round" stroke-linejoin="round"/>
</svg>
