<svg width="24" height="24" viewBox="0 0 24 24" fill="none" xmlns="http://www.w3.org/2000/svg">
<path d="M8.99988 3C6.23845 3 3.99988 5.23858 3.99988 8C3.99988 10.7614 6.23845 13 8.99988 13C11.7613 13 13.9999 10.7614 13.9999 8C13.9999 5.23858 11.7613 3 8.99988 3ZM5.99988 8C5.99988 6.34315 7.34302 5 8.99988 5C10.6567 5 11.9999 6.34315 11.9999 8C11.9999 9.65685 10.6567 11 8.99988 11C7.34302 11 5.99988 9.65685 5.99988 8Z" fill="#7B7D82"/>
<path d="M16.9083 8.21828C16.627 8.07484 16.3157 8.00006 15.9999 8.00006V6.00006C16.6315 6.00006 17.2541 6.14956 17.8168 6.43645C17.8787 6.46805 17.9398 6.50121 17.9999 6.5359C18.4853 6.81614 18.9071 7.19569 19.2372 7.65055C19.6082 8.16172 19.8528 8.75347 19.9511 9.37737C20.0494 10.0013 19.9986 10.6396 19.8028 11.2401C19.607 11.8405 19.2718 12.3861 18.8246 12.8321C18.3774 13.2782 17.831 13.6119 17.23 13.8062C16.6952 13.979 16.1307 14.037 15.5734 13.9772C15.5045 13.9698 15.4356 13.9606 15.3669 13.9496C14.7437 13.8497 14.153 13.6038 13.643 13.2319L13.642 13.2311L14.8209 11.6156C15.076 11.8017 15.3716 11.9248 15.6834 11.9747C15.9952 12.0247 16.3144 12.0001 16.6149 11.903C16.9154 11.8059 17.1886 11.639 17.4122 11.416C17.6358 11.193 17.8034 10.9202 17.9013 10.62C17.9992 10.3198 18.0246 10.0006 17.9754 9.68869C17.9263 9.37675 17.804 9.08089 17.6185 8.82531C17.433 8.56974 17.1896 8.36172 16.9083 8.21828Z" fill="#7B7D82"/>
<path d="M19.998 21C19.998 20.475 19.8946 19.9551 19.6936 19.47C19.4927 18.9849 19.1982 18.5442 18.827 18.1729C18.4557 17.8017 18.015 17.5072 17.5299 17.3062C17.0448 17.1053 16.5249 17.0019 15.9999 17.0019V15C16.682 15 17.3583 15.1163 17.9999 15.3431C18.0994 15.3783 18.1982 15.4162 18.296 15.4567C19.0239 15.7583 19.6854 16.2002 20.2425 16.7574C20.7997 17.3145 21.2416 17.9759 21.5432 18.7039C21.5837 18.8017 21.6215 18.9004 21.6567 19C21.8836 19.6416 21.9999 20.3179 21.9999 21H19.998Z" fill="#7B7D82"/>
<path d="M15.9999 21H13.9999C13.9999 18.2386 11.7613 16 8.99988 16C6.23845 16 3.99988 18.2386 3.99988 21H1.99988C1.99988 17.134 5.13388 14 8.99988 14C12.8659 14 15.9999 17.134 15.9999 21Z" fill="#7B7D82"/>
</svg>
